{"glyphs":{"0":{"ha":985,"x_min":65,"x_max":920,"o":"m 492 -25 q 264 38 360 -25 q 117 219 168 101 q 66 504 65 337 q 180 888 66 753 q 492 1024 294 1024 q 720 963 624 1024 q 868 786 816 902 q 919 504 920 669 q 868 218 919 337 q 720 38 816 100 q 492 -25 624 -25 m 492 175 q 620 256 572 175 q 668 504 669 336 q 619 746 668 667 q 492 826 571 826 q 365 746 414 826 q 317 504 317 667 q 365 256 316 336 q 492 175 413 175 z "},"1":{"ha":691,"x_min":66,"x_max":542,"o":"m 542 1010 l 542 0 l 298 0 l 298 782 l 292 782 l 66 644 l 66 855 l 315 1010 l 542 1010 z "},"2":{"ha":886,"x_min":60,"x_max":822,"o":"m 74 0 l 74 176 l 443 498 q 539 598 505 554 q 573 699 573 643 q 533 798 573 762 q 431 834 493 834 q 330 796 368 834 q 291 690 291 758 l 60 690 q 106 868 60 793 q 236 983 152 943 q 432 1024 321 1024 q 632 985 547 1024 q 763 878 717 947 q 810 719 810 810 q 786 604 810 661 q 703 479 763 548 q 534 315 643 410 l 413 203 l 413 197 l 822 197 l 822 0 l 74 0 z "},"3":{"ha":926,"x_min":62,"x_max":864,"o":"m 459 -14 q 254 26 343 -14 q 114 136 165 66 q 62 297 63 206 l 307 297 q 352 216 309 247 q 460 184 395 184 q 566 218 525 184 q 607 306 608 252 q 562 393 608 359 q 439 427 515 427 l 341 427 l 341 601 l 439 601 q 549 634 507 601 q 590 719 591 667 q 555 802 591 770 q 461 834 519 834 q 358 802 400 834 q 315 718 317 770 l 82 718 q 132 877 83 808 q 266 985 181 946 q 461 1024 352 1024 q 651 986 569 1024 q 780 883 733 948 q 826 735 826 817 q 770 595 826 650 q 626 526 714 539 l 626 518 q 803 442 743 505 q 863 287 864 380 q 812 131 864 199 q 668 25 760 64 q 459 -14 577 -14 z "},"4":{"ha":958,"x_min":62,"x_max":904,"o":"m 62 168 l 62 358 l 476 1010 l 783 1010 l 783 360 l 904 360 l 904 168 l 783 168 l 783 0 l 550 0 l 550 168 l 62 168 m 555 360 l 555 752 l 547 752 l 305 368 l 305 360 l 555 360 z "},"5":{"ha":912,"x_min":78,"x_max":853,"o":"m 461 -14 q 265 26 351 -14 q 129 136 179 66 q 78 297 79 206 l 315 297 q 360 207 317 241 q 461 174 402 174 q 574 218 530 174 q 618 335 618 263 q 574 453 618 408 q 460 498 529 498 q 376 479 415 499 q 317 425 337 459 l 102 466 l 145 1010 l 794 1010 l 794 813 l 346 813 l 323 575 l 329 575 q 410 644 354 617 q 538 672 466 672 q 700 630 628 672 q 812 513 771 587 q 853 342 853 438 q 804 158 853 238 q 667 32 755 77 q 461 -14 579 -14 z "},"6":{"ha":934,"x_min":59,"x_max":871,"o":"m 479 -14 q 320 13 396 -14 q 186 99 245 40 q 93 254 127 158 q 59 488 59 350 q 112 775 59 654 q 260 959 165 895 q 484 1024 356 1024 q 671 983 590 1024 q 801 872 752 942 q 859 718 850 803 l 619 718 q 571 791 608 766 q 484 816 535 816 q 346 736 392 816 q 299 520 300 655 l 306 520 q 407 627 337 588 q 562 666 477 666 q 723 624 653 666 q 832 509 792 582 q 871 343 871 436 q 821 157 871 237 q 684 31 772 76 q 479 -14 595 -14 m 478 174 q 590 220 545 174 q 634 335 634 266 q 590 450 634 404 q 478 496 546 496 q 367 449 412 496 q 322 334 323 403 q 367 220 323 266 q 478 174 411 174 z "},"7":{"ha":837,"x_min":48,"x_max":777,"o":"m 117 0 l 525 807 l 525 813 l 48 813 l 48 1010 l 777 1010 l 777 812 l 368 0 l 117 0 z "},"8":{"ha":938,"x_min":61,"x_max":877,"o":"m 469 -14 q 259 24 351 -14 q 114 126 167 61 q 61 273 61 191 q 91 388 61 336 q 173 475 121 440 q 288 520 224 510 l 288 528 q 152 605 205 544 q 99 751 99 667 q 147 891 99 830 q 279 988 195 953 q 469 1024 363 1024 q 660 988 576 1024 q 791 891 743 953 q 839 751 839 830 q 786 605 839 667 q 650 528 732 544 l 650 520 q 764 475 713 510 q 846 388 816 440 q 877 273 877 336 q 824 126 877 191 q 679 24 771 61 q 469 -14 587 -14 m 469 159 q 579 197 536 159 q 621 293 621 235 q 578 390 621 352 q 469 429 535 429 q 360 390 403 429 q 317 293 317 352 q 360 197 317 235 q 469 159 402 159 m 469 601 q 564 636 526 601 q 601 724 601 670 q 564 811 601 777 q 469 845 527 845 q 374 811 411 845 q 337 724 337 777 q 374 636 337 670 q 469 601 411 601 z "},"9":{"ha":934,"x_min":63,"x_max":875,"o":"m 455 1024 q 613 997 538 1024 q 748 911 689 970 q 841 758 806 853 q 875 526 875 663 q 823 236 875 358 q 674 51 770 115 q 450 -14 579 -14 q 262 27 343 -14 q 132 138 181 68 q 74 295 84 209 l 315 295 q 363 219 326 245 q 450 194 399 194 q 588 275 543 194 q 634 493 634 355 l 628 493 q 527 387 597 425 q 372 348 457 348 q 212 390 282 348 q 103 504 143 431 q 64 669 64 577 q 112 854 63 774 q 250 979 162 934 q 455 1024 338 1024 m 456 836 q 344 791 389 836 q 300 677 300 745 q 344 564 301 610 q 455 518 388 518 q 567 564 522 518 q 612 678 613 611 q 567 790 612 744 q 456 836 523 836 z "},"A":{"ha":1072,"x_min":33,"x_max":1039,"o":"m 295 0 l 33 0 l 373 1010 l 698 1010 l 1039 0 l 777 0 l 710 212 l 362 212 l 295 0 m 420 398 l 652 398 l 540 756 l 532 756 l 420 398 z "},"Ä":{"ha":1072,"x_min":33,"x_max":1039,"o":"m 295 0 l 33 0 l 373 1010 l 698 1010 l 1039 0 l 777 0 l 710 212 l 362 212 l 295 0 m 420 398 l 652 398 l 540 756 l 532 756 l 420 398 m 383 1106 q 304 1138 336 1106 q 271 1214 271 1170 q 304 1290 271 1259 q 383 1321 336 1321 q 461 1290 429 1321 q 493 1214 493 1259 q 461 1138 493 1170 q 383 1106 429 1106 m 690 1106 q 611 1138 644 1106 q 579 1214 579 1170 q 611 1290 579 1259 q 690 1321 644 1321 q 769 1290 736 1321 q 801 1214 801 1259 q 769 1138 801 1170 q 690 1106 736 1106 z "},"Ã":{"ha":1072,"x_min":33,"x_max":1039,"o":"m 295 0 l 33 0 l 373 1010 l 698 1010 l 1039 0 l 777 0 l 710 212 l 362 212 l 295 0 m 420 398 l 652 398 l 540 756 l 532 756 l 420 398 m 398 1109 l 272 1110 q 320 1261 272 1210 q 436 1313 368 1312 q 507 1297 478 1313 q 557 1265 535 1282 q 588 1244 573 1253 q 619 1235 603 1235 q 661 1257 648 1236 q 675 1312 675 1277 l 799 1310 q 750 1159 798 1211 q 635 1107 703 1107 q 564 1122 591 1106 q 514 1154 536 1137 q 484 1175 499 1165 q 452 1184 470 1184 q 413 1164 428 1184 q 398 1109 398 1145 z "},"À":{"ha":1072,"x_min":33,"x_max":1039,"o":"m 295 0 l 33 0 l 373 1010 l 698 1010 l 1039 0 l 777 0 l 710 212 l 362 212 l 295 0 m 420 398 l 652 398 l 540 756 l 532 756 l 420 398 m 455 1106 l 306 1329 l 519 1329 l 619 1106 l 455 1106 z "},"Á":{"ha":1072,"x_min":33,"x_max":1039,"o":"m 295 0 l 33 0 l 373 1010 l 698 1010 l 1039 0 l 777 0 l 710 212 l 362 212 l 295 0 m 420 398 l 652 398 l 540 756 l 532 756 l 420 398 m 453 1106 l 552 1329 l 766 1329 l 617 1106 l 453 1106 z "},"Â":{"ha":1072,"x_min":33,"x_max":1039,"o":"m 295 0 l 33 0 l 373 1010 l 698 1010 l 1039 0 l 777 0 l 710 212 l 362 212 l 295 0 m 420 398 l 652 398 l 540 756 l 532 756 l 420 398 m 438 1100 l 236 1100 l 236 1106 l 449 1327 l 622 1327 l 836 1106 l 836 1100 l 634 1100 l 536 1214 l 438 1100 z "},"Å":{"ha":1072,"x_min":33,"x_max":1039,"o":"m 295 0 l 33 0 l 373 1010 l 698 1010 l 1039 0 l 777 0 l 710 212 l 362 212 l 295 0 m 420 398 l 652 398 l 540 756 l 532 756 l 420 398 m 536 1060 q 456 1080 492 1060 q 398 1136 420 1101 q 377 1212 377 1170 q 398 1289 377 1254 q 456 1344 420 1323 q 536 1364 492 1364 q 648 1320 602 1364 q 695 1212 695 1275 q 648 1105 695 1149 q 536 1060 602 1060 m 536 1149 q 583 1168 563 1149 q 603 1212 603 1186 q 583 1257 603 1238 q 536 1275 563 1275 q 489 1257 509 1275 q 469 1212 469 1238 q 489 1167 469 1186 q 536 1149 508 1149 z "},"Ǻ":{"ha":1072,"x_min":33,"x_max":1039,"o":"m 295 0 l 33 0 l 373 1010 l 698 1010 l 1039 0 l 777 0 l 710 212 l 362 212 l 295 0 m 420 398 l 652 398 l 540 756 l 532 756 l 420 398 m 536 1060 q 446 1096 483 1060 q 408 1181 408 1132 q 446 1267 408 1231 q 536 1302 483 1302 q 626 1267 589 1302 q 663 1181 663 1231 q 626 1096 663 1132 q 536 1060 589 1060 m 456 1354 l 602 1503 l 804 1503 l 601 1354 l 456 1354 m 536 1134 q 570 1148 556 1134 q 584 1181 584 1162 q 570 1213 584 1199 q 536 1227 556 1227 q 501 1213 515 1227 q 487 1181 487 1199 q 501 1148 487 1162 q 536 1134 515 1134 z "},"Ā":{"ha":1072,"x_min":33,"x_max":1039,"o":"m 295 0 l 33 0 l 373 1010 l 698 1010 l 1039 0 l 777 0 l 710 212 l 362 212 l 295 0 m 420 398 l 652 398 l 540 756 l 532 756 l 420 398 m 779 1263 l 779 1143 l 292 1143 l 292 1263 l 779 1263 z "},"Ă":{"ha":1072,"x_min":33,"x_max":1039,"o":"m 295 0 l 33 0 l 373 1010 l 698 1010 l 1039 0 l 777 0 l 710 212 l 362 212 l 295 0 m 420 398 l 652 398 l 540 756 l 532 756 l 420 398 m 634 1278 l 793 1278 q 723 1129 793 1186 q 536 1073 654 1073 q 348 1129 417 1073 q 279 1278 279 1186 l 436 1278 q 459 1219 436 1246 q 536 1193 481 1193 q 611 1219 588 1193 q 634 1278 634 1245 z "},"Ą":{"ha":1072,"x_min":33,"x_max":1057,"o":"m 295 0 l 33 0 l 373 1010 l 698 1010 l 1039 0 l 777 0 l 710 212 l 362 212 l 295 0 m 420 398 l 652 398 l 540 756 l 532 756 l 420 398 m 942 -279 q 829 -245 875 -279 q 769 -148 784 -211 q 764 -65 759 -107 q 791 12 770 -22 q 849 62 813 46 l 1039 0 q 965 -39 992 -18 q 938 -93 937 -61 q 984 -144 937 -144 q 1010 -140 999 -144 q 1031 -134 1021 -136 l 1057 -249 q 1010 -269 1039 -259 q 942 -279 981 -279 z "},"Ǎ":{"ha":1072,"x_min":33,"x_max":1039,"o":"m 295 0 l 33 0 l 373 1010 l 698 1010 l 1039 0 l 777 0 l 710 212 l 362 212 l 295 0 m 420 398 l 652 398 l 540 756 l 532 756 l 420 398 m 438 1328 l 536 1214 l 634 1328 l 836 1328 l 836 1322 l 622 1101 l 449 1101 l 236 1322 l 236 1328 l 438 1328 z "},"Ǟ":{"ha":1072,"x_min":33,"x_max":1039,"o":"m 295 0 l 33 0 l 373 1010 l 698 1010 l 1039 0 l 777 0 l 710 212 l 362 212 l 295 0 m 420 398 l 652 398 l 540 756 l 532 756 l 420 398 m 383 1106 q 304 1138 336 1106 q 271 1214 271 1170 q 304 1290 271 1259 q 383 1321 336 1321 q 461 1290 429 1321 q 493 1214 493 1259 q 461 1138 493 1170 q 383 1106 429 1106 m 690 1106 q 611 1138 644 1106 q 579 1214 579 1170 q 611 1290 579 1259 q 690 1321 644 1321 q 769 1290 736 1321 q 801 1214 801 1259 q 769 1138 801 1170 q 690 1106 736 1106 m 779 1515 l 779 1396 l 292 1396 l 292 1515 l 779 1515 z "},"Ǡ":{"ha":1072,"x_min":33,"x_max":1039,"o":"m 295 0 l 33 0 l 373 1010 l 698 1010 l 1039 0 l 777 0 l 710 212 l 362 212 l 295 0 m 420 398 l 652 398 l 540 756 l 532 756 l 420 398 m 779 1515 l 779 1396 l 292 1396 l 292 1515 l 779 1515 m 536 1106 q 456 1138 490 1106 q 423 1213 423 1169 q 456 1290 423 1258 q 536 1321 490 1321 q 616 1290 583 1321 q 649 1213 649 1258 q 616 1138 649 1169 q 536 1106 583 1106 z "},"Ȁ":{"ha":1072,"x_min":33,"x_max":1039,"o":"m 295 0 l 33 0 l 373 1010 l 698 1010 l 1039 0 l 777 0 l 710 212 l 362 212 l 295 0 m 420 398 l 652 398 l 540 756 l 532 756 l 420 398 m 477 1106 l 301 1152 l 212 1329 l 422 1283 l 477 1106 m 729 1106 l 565 1152 l 518 1329 l 709 1283 l 729 1106 z "},"Ȃ":{"ha":1072,"x_min":33,"x_max":1039,"o":"m 295 0 l 33 0 l 373 1010 l 698 1010 l 1039 0 l 777 0 l 710 212 l 362 212 l 295 0 m 420 398 l 652 398 l 540 756 l 532 756 l 420 398 m 277 1130 q 346 1283 277 1223 q 535 1342 416 1342 q 723 1283 653 1342 q 793 1130 793 1223 l 634 1130 q 611 1189 633 1163 q 535 1215 588 1215 q 458 1189 481 1215 q 436 1130 436 1163 l 277 1130 z "},"Ȧ":{"ha":1072,"x_min":33,"x_max":1039,"o":"m 295 0 l 33 0 l 373 1010 l 698 1010 l 1039 0 l 777 0 l 710 212 l 362 212 l 295 0 m 420 398 l 652 398 l 540 756 l 532 756 l 420 398 m 536 1098 q 448 1132 485 1098 q 412 1214 412 1166 q 448 1295 412 1262 q 536 1329 485 1329 q 623 1295 587 1329 q 659 1214 659 1262 q 623 1132 659 1166 q 536 1098 587 1098 z "},"Ḁ":{"ha":1072,"x_min":33,"x_max":1039,"o":"m 295 0 l 33 0 l 373 1010 l 698 1010 l 1039 0 l 777 0 l 710 212 l 362 212 l 295 0 m 420 398 l 652 398 l 540 756 l 532 756 l 420 398 m 400 -150 q 438 -68 400 -102 q 536 -34 477 -34 q 630 -68 591 -34 q 669 -150 669 -102 q 630 -235 669 -202 q 536 -267 591 -267 q 438 -234 477 -267 q 400 -150 400 -201 m 484 -150 q 499 -185 484 -171 q 536 -198 513 -198 q 569 -185 556 -198 q 582 -150 582 -171 q 569 -118 582 -131 q 536 -105 556 -105 q 499 -118 513 -105 q 484 -150 484 -131 z "},"Ạ":{"ha":1072,"x_min":33,"x_max":1039,"o":"m 295 0 l 33 0 l 373 1010 l 698 1010 l 1039 0 l 777 0 l 710 212 l 362 212 l 295 0 m 420 398 l 652 398 l 540 756 l 532 756 l 420 398 m 536 -295 q 449 -261 485 -295 q 412 -180 412 -227 q 449 -98 412 -132 q 536 -65 485 -65 q 624 -98 587 -65 q 660 -180 660 -132 q 624 -261 660 -227 q 536 -295 587 -295 z "},"Ả":{"ha":1072,"x_min":33,"x_max":1039,"o":"m 295 0 l 33 0 l 373 1010 l 698 1010 l 1039 0 l 777 0 l 710 212 l 362 212 l 295 0 m 420 398 l 652 398 l 540 756 l 532 756 l 420 398 m 621 1121 l 446 1121 l 432 1203 q 507 1217 484 1205 q 528 1246 529 1229 q 501 1281 529 1273 q 433 1290 474 1290 l 438 1392 q 654 1356 580 1392 q 727 1257 728 1321 q 695 1191 728 1213 q 621 1162 662 1168 l 621 1121 z "},"Ấ":{"ha":1072,"x_min":33,"x_max":1039,"o":"m 295 0 l 33 0 l 373 1010 l 698 1010 l 1039 0 l 777 0 l 710 212 l 362 212 l 295 0 m 420 398 l 652 398 l 540 756 l 532 756 l 420 398 m 278 1089 l 476 1234 l 591 1234 l 791 1089 l 636 1089 l 535 1165 l 432 1089 l 278 1089 m 739 1165 l 861 1352 l 1030 1352 l 864 1165 l 739 1165 z "},"Ầ":{"ha":1072,"x_min":33,"x_max":1039,"o":"m 295 0 l 33 0 l 373 1010 l 698 1010 l 1039 0 l 777 0 l 710 212 l 362 212 l 295 0 m 420 398 l 652 398 l 540 756 l 532 756 l 420 398 m 592 1230 l 792 1086 l 637 1086 l 536 1162 l 433 1086 l 280 1086 l 477 1230 l 592 1230 m 208 1347 l 331 1162 l 208 1162 l 41 1347 l 208 1347 z "},"Ẩ":{"ha":1072,"x_min":33,"x_max":1039,"o":"m 295 0 l 33 0 l 373 1010 l 698 1010 l 1039 0 l 777 0 l 710 212 l 362 212 l 295 0 m 420 398 l 652 398 l 540 756 l 532 756 l 420 398 m 592 1231 l 789 1087 l 636 1087 l 536 1160 l 432 1087 l 279 1087 l 476 1231 l 592 1231 m 841 1170 l 724 1170 l 711 1239 q 773 1250 754 1240 q 792 1274 792 1259 q 769 1304 792 1297 q 711 1311 746 1311 l 716 1395 q 875 1366 821 1395 q 930 1283 930 1337 q 902 1229 930 1248 q 841 1203 874 1209 l 841 1170 z "},"Ẫ":{"ha":1072,"x_min":33,"x_max":1039,"o":"m 295 0 l 33 0 l 373 1010 l 698 1010 l 1039 0 l 777 0 l 710 212 l 362 212 l 295 0 m 420 398 l 652 398 l 540 756 l 532 756 l 420 398 m 595 1235 l 791 1089 l 639 1089 l 535 1164 l 435 1089 l 279 1089 l 477 1235 l 595 1235 m 639 1401 l 718 1373 q 694 1299 717 1333 q 630 1266 671 1266 q 574 1277 600 1266 q 526 1298 549 1287 q 478 1308 503 1308 q 456 1295 463 1308 q 450 1263 449 1281 l 373 1284 q 395 1355 372 1322 q 460 1388 418 1388 q 510 1378 484 1388 q 562 1358 536 1368 q 612 1347 588 1347 q 632 1365 625 1347 q 639 1401 638 1382 z "},"Ậ":{"ha":1072,"x_min":33,"x_max":1039,"o":"m 295 0 l 33 0 l 373 1010 l 698 1010 l 1039 0 l 777 0 l 710 212 l 362 212 l 295 0 m 420 398 l 652 398 l 540 756 l 532 756 l 420 398 m 438 1100 l 236 1100 l 236 1106 l 449 1327 l 622 1327 l 836 1106 l 836 1100 l 634 1100 l 536 1214 l 438 1100 m 536 -295 q 449 -261 485 -295 q 412 -180 412 -227 q 449 -98 412 -132 q 536 -65 485 -65 q 624 -98 587 -65 q 660 -180 660 -132 q 624 -261 660 -227 q 536 -295 587 -295 z "},"Ắ":{"ha":1072,"x_min":33,"x_max":1039,"o":"m 295 0 l 33 0 l 373 1010 l 698 1010 l 1039 0 l 777 0 l 710 212 l 362 212 l 295 0 m 420 398 l 652 398 l 540 756 l 532 756 l 420 398 m 648 1254 l 793 1254 q 722 1132 793 1179 q 534 1085 652 1085 q 347 1132 416 1085 q 278 1254 277 1179 l 420 1254 q 446 1201 419 1225 q 534 1177 472 1177 q 621 1201 596 1177 q 648 1254 647 1225 m 471 1247 l 562 1371 l 719 1371 l 592 1247 l 471 1247 z "},"Ằ":{"ha":1072,"x_min":33,"x_max":1039,"o":"m 295 0 l 33 0 l 373 1010 l 698 1010 l 1039 0 l 777 0 l 710 212 l 362 212 l 295 0 m 420 398 l 652 398 l 540 756 l 532 756 l 420 398 m 648 1255 l 793 1255 q 723 1135 793 1182 q 534 1088 653 1088 q 347 1135 416 1088 q 278 1255 277 1182 l 420 1255 q 446 1202 419 1227 q 534 1178 472 1178 q 621 1202 595 1178 q 648 1255 647 1227 m 483 1247 l 355 1371 l 511 1371 l 602 1247 l 483 1247 z "},"Ẳ":{"ha":1072,"x_min":33,"x_max":1039,"o":"m 295 0 l 33 0 l 373 1010 l 698 1010 l 1039 0 l 777 0 l 710 212 l 362 212 l 295 0 m 420 398 l 652 398 l 540 756 l 532 756 l 420 398 m 648 1239 l 794 1239 q 723 1119 794 1164 q 531 1073 652 1073 q 341 1119 410 1073 q 270 1239 271 1164 l 415 1239 q 442 1189 415 1209 q 531 1168 470 1168 q 621 1189 594 1168 q 648 1239 648 1210 m 595 1264 l 455 1264 l 439 1329 q 535 1359 536 1332 q 509 1389 536 1382 q 440 1395 481 1395 l 446 1475 q 636 1447 572 1475 q 700 1368 701 1419 q 668 1316 701 1334 q 595 1295 635 1299 l 595 1264 z "},"Ẵ":{"ha":1072,"x_min":33,"x_max":1039,"o":"m 295 0 l 33 0 l 373 1010 l 698 1010 l 1039 0 l 777 0 l 710 212 l 362 212 l 295 0 m 420 398 l 652 398 l 540 756 l 532 756 l 420 398 m 645 1240 l 790 1240 q 720 1118 790 1164 q 532 1072 650 1072 q 344 1118 414 1072 q 275 1240 274 1164 l 418 1240 q 443 1191 418 1211 q 532 1170 469 1170 q 618 1190 592 1170 q 645 1240 645 1210 m 643 1455 l 738 1426 q 705 1341 738 1379 q 624 1304 673 1304 q 560 1315 586 1304 q 509 1336 533 1326 q 455 1347 485 1347 q 423 1331 437 1347 q 410 1289 409 1314 l 317 1316 q 349 1402 317 1365 q 432 1439 381 1439 q 488 1428 461 1439 q 543 1407 515 1417 q 600 1396 570 1396 q 629 1413 616 1396 q 643 1455 643 1430 z "},"Ặ":{"ha":1072,"x_min":33,"x_max":1039,"o":"m 295 0 l 33 0 l 373 1010 l 698 1010 l 1039 0 l 777 0 l 710 212 l 362 212 l 295 0 m 420 398 l 652 398 l 540 756 l 532 756 l 420 398 m 634 1278 l 793 1278 q 723 1129 793 1186 q 536 1073 654 1073 q 348 1129 417 1073 q 279 1278 279 1186 l 436 1278 q 459 1219 436 1246 q 536 1193 481 1193 q 611 1219 588 1193 q 634 1278 634 1245 m 536 -295 q 449 -261 485 -295 q 412 -180 412 -227 q 449 -98 412 -132 q 536 -65 485 -65 q 624 -98 587 -65 q 660 -180 660 -132 q 624 -261 660 -227 q 536 -295 587 -295 z "},"Α":{"ha":1072,"x_min":33,"x_max":1039,"o":"m 295 0 l 33 0 l 373 1010 l 698 1010 l 1039 0 l 777 0 l 710 212 l 362 212 l 295 0 m 420 398 l 652 398 l 540 756 l 532 756 l 420 398 z "},"Ά":{"ha":1072,"x_min":33,"x_max":1039,"o":"m 295 0 l 33 0 l 373 1010 l 698 1010 l 1039 0 l 777 0 l 710 212 l 362 212 l 295 0 m 420 398 l 652 398 l 540 756 l 532 756 l 420 398 m 63 850 l 122 1086 l 330 1086 l 201 850 l 63 850 z "},"Ἀ":{"ha":1072,"x_min":33,"x_max":1039,"o":"m 295 0 l 33 0 l 373 1010 l 698 1010 l 1039 0 l 777 0 l 710 212 l 362 212 l 295 0 m 420 398 l 652 398 l 540 756 l 532 756 l 420 398 m 264 1010 l 264 942 q 232 832 264 877 q 152 765 199 786 l 93 834 q 136 880 125 852 q 146 946 146 909 l 146 1010 l 264 1010 z "},"Ἁ":{"ha":1072,"x_min":33,"x_max":1039,"o":"m 295 0 l 33 0 l 373 1010 l 698 1010 l 1039 0 l 777 0 l 710 212 l 362 212 l 295 0 m 420 398 l 652 398 l 540 756 l 532 756 l 420 398 m 120 942 l 120 1010 l 239 1010 l 239 946 q 249 884 240 915 q 291 834 259 853 l 232 765 q 153 832 186 786 q 120 942 121 877 z "},"Ἂ":{"ha":1072,"x_min":-141,"x_max":1039,"o":"m 295 0 l 33 0 l 373 1010 l 698 1010 l 1039 0 l 777 0 l 710 212 l 362 212 l 295 0 m 420 398 l 652 398 l 540 756 l 532 756 l 420 398 m 44 1010 l 44 955 q 10 847 44 896 q -86 765 -25 798 l -141 807 q -98 874 -113 838 q -84 959 -84 911 l -84 1010 l 44 1010 m 304 791 l 304 781 l 238 781 l 76 996 l 76 1010 l 224 1010 l 304 791 z "},"Ἃ":{"ha":1072,"x_min":-108,"x_max":1039,"o":"m 295 0 l 33 0 l 373 1010 l 698 1010 l 1039 0 l 777 0 l 710 212 l 362 212 l 295 0 m 420 398 l 652 398 l 540 756 l 532 756 l 420 398 m -107 942 l -107 1010 l 14 1010 l 14 946 q 22 884 13 915 q 67 834 32 853 l 8 765 q -74 832 -41 786 q -107 942 -108 877 m 300 798 l 300 780 l 234 780 l 72 996 l 72 1010 l 222 1010 l 300 798 z "},"Ἄ":{"ha":1072,"x_min":-123,"x_max":1039,"o":"m 295 0 l 33 0 l 373 1010 l 698 1010 l 1039 0 l 777 0 l 710 212 l 362 212 l 295 0 m 420 398 l 652 398 l 540 756 l 532 756 l 420 398 m 51 1010 l 51 942 q 18 832 51 878 q -64 765 -15 786 l -123 834 q -79 884 -89 853 q -70 946 -70 915 l -70 1010 l 51 1010 m 75 780 l 75 798 l 155 1010 l 304 1010 l 304 996 l 142 780 l 75 780 z "},"Ἅ":{"ha":1072,"x_min":-142,"x_max":1039,"o":"m 295 0 l 33 0 l 373 1010 l 698 1010 l 1039 0 l 777 0 l 710 212 l 362 212 l 295 0 m 420 398 l 652 398 l 540 756 l 532 756 l 420 398 m -30 765 q -108 830 -73 785 q -142 942 -142 875 l -142 1010 l -23 1010 l -23 946 q -12 880 -22 909 q 30 834 -1 852 l -30 765 m 73 780 l 73 798 l 149 1010 l 299 1010 l 299 996 l 136 780 l 73 780 z "},"Ἆ":{"ha":1072,"x_min":-28,"x_max":1039,"o":"m 295 0 l 33 0 l 373 1010 l 698 1010 l 1039 0 l 777 0 l 710 212 l 362 212 l 295 0 m 420 398 l 652 398 l 540 756 l 532 756 l 420 398 m 298 1181 l 392 1152 q 360 1067 392 1103 q 277 1030 327 1030 q 215 1041 241 1030 q 164 1063 188 1052 q 110 1074 141 1074 q 78 1057 90 1074 q 66 1015 66 1039 l -28 1042 q 4 1129 -28 1091 q 86 1167 36 1167 q 144 1156 116 1167 q 198 1134 171 1145 q 254 1124 225 1124 q 285 1140 272 1124 q 298 1181 298 1157 m 250 995 l 250 938 q 218 846 250 883 q 142 793 187 810 l 87 849 q 128 890 120 863 q 136 942 136 916 l 136 995 l 250 995 z "},"Ἇ":{"ha":1072,"x_min":-51,"x_max":1039,"o":"m 295 0 l 33 0 l 373 1010 l 698 1010 l 1039 0 l 777 0 l 710 212 l 362 212 l 295 0 m 420 398 l 652 398 l 540 756 l 532 756 l 420 398 m 275 1181 l 368 1152 q 336 1067 368 1103 q 254 1030 304 1030 q 191 1041 218 1030 q 141 1063 165 1052 q 87 1074 117 1074 q 55 1057 67 1074 q 43 1015 43 1039 l -51 1042 q -19 1129 -51 1091 q 63 1167 13 1167 q 121 1156 93 1167 q 175 1134 148 1145 q 230 1124 202 1124 q 262 1140 249 1124 q 275 1181 275 1157 m 113 938 l 113 995 l 227 995 l 227 942 q 236 890 227 916 q 276 849 244 863 l 219 793 q 146 845 180 809 q 113 938 113 880 z "},"Ᾰ":{"ha":1072,"x_min":33,"x_max":1039,"o":"m 295 0 l 33 0 l 373 1010 l 698 1010 l 1039 0 l 777 0 l 710 212 l 362 212 l 295 0 m 420 398 l 652 398 l 540 756 l 532 756 l 420 398 m 634 1278 l 793 1278 q 723 1129 793 1186 q 536 1073 654 1073 q 348 1129 417 1073 q 279 1278 279 1186 l 436 1278 q 459 1219 436 1246 q 536 1193 481 1193 q 611 1219 588 1193 q 634 1278 634 1245 z "},"Ᾱ":{"ha":1072,"x_min":33,"x_max":1039,"o":"m 295 0 l 33 0 l 373 1010 l 698 1010 l 1039 0 l 777 0 l 710 212 l 362 212 l 295 0 m 420 398 l 652 398 l 540 756 l 532 756 l 420 398 m 779 1263 l 779 1143 l 292 1143 l 292 1263 l 779 1263 z "},"Ὰ":{"ha":1072,"x_min":33,"x_max":1039,"o":"m 295 0 l 33 0 l 373 1010 l 698 1010 l 1039 0 l 777 0 l 710 212 l 362 212 l 295 0 m 420 398 l 652 398 l 540 756 l 532 756 l 420 398 m 232 779 l 70 996 l 70 1010 l 218 1010 l 295 800 l 295 779 l 232 779 z "},"Ⱥ":{"ha":1072,"x_min":33,"x_max":1039,"o":"m 872 1138 l 767 805 l 1039 0 l 777 0 l 710 212 l 582 212 l 475 -128 l 341 -128 l 447 212 l 362 212 l 295 0 l 33 0 l 373 1010 l 697 1010 l 737 1138 l 872 1138 m 505 398 l 579 632 l 540 756 l 532 756 l 420 398 l 505 398 m 646 417 l 640 398 l 652 398 l 646 417 z "},"Ά":{"ha":1072,"x_min":33,"x_max":1039,"o":"m 295 0 l 33 0 l 373 1010 l 698 1010 l 1039 0 l 777 0 l 710 212 l 362 212 l 295 0 m 420 398 l 652 398 l 540 756 l 532 756 l 420 398 m 69 852 l 69 873 l 146 1083 l 349 1083 l 349 1069 l 187 852 l 69 852 z "},"А":{"ha":1072,"x_min":33,"x_max":1039,"o":"m 295 0 l 33 0 l 373 1010 l 698 1010 l 1039 0 l 777 0 l 710 212 l 362 212 l 295 0 m 420 398 l 652 398 l 540 756 l 532 756 l 420 398 z "},"Ӑ":{"ha":1072,"x_min":33,"x_max":1039,"o":"m 295 0 l 33 0 l 373 1010 l 698 1010 l 1039 0 l 777 0 l 710 212 l 362 212 l 295 0 m 420 398 l 652 398 l 540 756 l 532 756 l 420 398 m 634 1278 l 793 1278 q 723 1129 793 1186 q 536 1073 654 1073 q 348 1129 417 1073 q 279 1278 279 1186 l 436 1278 q 459 1219 436 1246 q 536 1193 481 1193 q 611 1219 588 1193 q 634 1278 634 1245 z "},"Ӓ":{"ha":1072,"x_min":33,"x_max":1039,"o":"m 295 0 l 33 0 l 373 1010 l 698 1010 l 1039 0 l 777 0 l 710 212 l 362 212 l 295 0 m 420 398 l 652 398 l 540 756 l 532 756 l 420 398 m 383 1106 q 304 1138 336 1106 q 271 1214 271 1170 q 304 1290 271 1259 q 383 1321 336 1321 q 461 1290 429 1321 q 493 1214 493 1259 q 461 1138 493 1170 q 383 1106 429 1106 m 690 1106 q 611 1138 644 1106 q 579 1214 579 1170 q 611 1290 579 1259 q 690 1321 644 1321 q 769 1290 736 1321 q 801 1214 801 1259 q 769 1138 801 1170 q 690 1106 736 1106 z "},"ᾈ":{"ha":1072,"x_min":33,"x_max":1039,"o":"m 295 0 l 33 0 l 373 1010 l 698 1010 l 1039 0 l 777 0 l 710 212 l 362 212 l 295 0 m 420 398 l 652 398 l 540 756 l 532 756 l 420 398 m 606 -335 q 511 -305 551 -335 q 472 -208 472 -275 l 472 -67 l 605 -67 l 605 -207 q 613 -234 605 -225 q 643 -243 620 -243 q 662 -242 654 -243 q 674 -241 669 -241 l 674 -326 q 643 -333 659 -330 q 606 -335 626 -335 m 264 1010 l 264 942 q 232 832 264 877 q 152 765 199 786 l 93 834 q 136 880 125 852 q 146 946 146 909 l 146 1010 l 264 1010 z "},"ᾉ":{"ha":1072,"x_min":33,"x_max":1039,"o":"m 295 0 l 33 0 l 373 1010 l 698 1010 l 1039 0 l 777 0 l 710 212 l 362 212 l 295 0 m 420 398 l 652 398 l 540 756 l 532 756 l 420 398 m 606 -335 q 511 -305 551 -335 q 472 -208 472 -275 l 472 -67 l 605 -67 l 605 -207 q 613 -234 605 -225 q 643 -243 620 -243 q 662 -242 654 -243 q 674 -241 669 -241 l 674 -326 q 643 -333 659 -330 q 606 -335 626 -335 m 120 942 l 120 1010 l 239 1010 l 239 946 q 249 884 240 915 q 291 834 259 853 l 232 765 q 153 832 186 786 q 120 942 121 877 z "},"ᾊ":{"ha":1072,"x_min":-141,"x_max":1039,"o":"m 295 0 l 33 0 l 373 1010 l 698 1010 l 1039 0 l 777 0 l 710 212 l 362 212 l 295 0 m 420 398 l 652 398 l 540 756 l 532 756 l 420 398 m 606 -335 q 511 -305 551 -335 q 472 -208 472 -275 l 472 -67 l 605 -67 l 605 -207 q 613 -234 605 -225 q 643 -243 620 -243 q 662 -242 654 -243 q 674 -241 669 -241 l 674 -326 q 643 -333 659 -330 q 606 -335 626 -335 m 44 1010 l 44 955 q 10 847 44 896 q -86 765 -25 798 l -141 807 q -98 874 -113 838 q -84 959 -84 911 l -84 1010 l 44 1010 m 304 791 l 304 781 l 238 781 l 76 996 l 76 1010 l 224 1010 l 304 791 z "},"ᾋ":{"ha":1072,"x_min":-108,"x_max":1039,"o":"m 295 0 l 33 0 l 373 1010 l 698 1010 l 1039 0 l 777 0 l 710 212 l 362 212 l 295 0 m 420 398 l 652 398 l 540 756 l 532 756 l 420 398 m 606 -335 q 511 -305 551 -335 q 472 -208 472 -275 l 472 -67 l 605 -67 l 605 -207 q 613 -234 605 -225 q 643 -243 620 -243 q 662 -242 654 -243 q 674 -241 669 -241 l 674 -326 q 643 -333 659 -330 q 606 -335 626 -335 m -107 942 l -107 1010 l 14 1010 l 14 946 q 22 884 13 915 q 67 834 32 853 l 8 765 q -74 832 -41 786 q -107 942 -108 877 m 300 798 l 300 780 l 234 780 l 72 996 l 72 1010 l 222 1010 l 300 798 z "},"ᾌ":{"ha":1072,"x_min":-123,"x_max":1039,"o":"m 295 0 l 33 0 l 373 1010 l 698 1010 l 1039 0 l 777 0 l 710 212 l 362 212 l 295 0 m 420 398 l 652 398 l 540 756 l 532 756 l 420 398 m 51 1010 l 51 942 q 18 832 51 878 q -64 765 -15 786 l -123 834 q -79 884 -89 853 q -70 946 -70 915 l -70 1010 l 51 1010 m 75 780 l 75 798 l 155 1010 l 304 1010 l 304 996 l 142 780 l 75 780 m 606 -335 q 511 -305 551 -335 q 472 -208 472 -275 l 472 -67 l 605 -67 l 605 -207 q 613 -234 605 -225 q 643 -243 620 -243 q 662 -242 654 -243 q 674 -241 669 -241 l 674 -326 q 643 -333 659 -330 q 606 -335 626 -335 z "},"ᾍ":{"ha":1072,"x_min":-142,"x_max":1039,"o":"m 295 0 l 33 0 l 373 1010 l 698 1010 l 1039 0 l 777 0 l 710 212 l 362 212 l 295 0 m 420 398 l 652 398 l 540 756 l 532 756 l 420 398 m 606 -335 q 511 -305 551 -335 q 472 -208 472 -275 l 472 -67 l 605 -67 l 605 -207 q 613 -234 605 -225 q 643 -243 620 -243 q 662 -242 654 -243 q 674 -241 669 -241 l 674 -326 q 643 -333 659 -330 q 606 -335 626 -335 m -30 765 q -108 830 -73 785 q -142 942 -142 875 l -142 1010 l -23 1010 l -23 946 q -12 880 -22 909 q 30 834 -1 852 l -30 765 m 73 780 l 73 798 l 149 1010 l 299 1010 l 299 996 l 136 780 l 73 780 z "},"ᾎ":{"ha":1072,"x_min":-28,"x_max":1039,"o":"m 295 0 l 33 0 l 373 1010 l 698 1010 l 1039 0 l 777 0 l 710 212 l 362 212 l 295 0 m 420 398 l 652 398 l 540 756 l 532 756 l 420 398 m 298 1181 l 392 1152 q 360 1067 392 1103 q 277 1030 327 1030 q 215 1041 241 1030 q 164 1063 188 1052 q 110 1074 141 1074 q 78 1057 90 1074 q 66 1015 66 1039 l -28 1042 q 4 1129 -28 1091 q 86 1167 36 1167 q 144 1156 116 1167 q 198 1134 171 1145 q 254 1124 225 1124 q 285 1140 272 1124 q 298 1181 298 1157 m 250 995 l 250 938 q 218 846 250 883 q 142 793 187 810 l 87 849 q 128 890 120 863 q 136 942 136 916 l 136 995 l 250 995 m 606 -335 q 511 -305 551 -335 q 472 -208 472 -275 l 472 -67 l 605 -67 l 605 -207 q 613 -234 605 -225 q 643 -243 620 -243 q 662 -242 654 -243 q 674 -241 669 -241 l 674 -326 q 643 -333 659 -330 q 606 -335 626 -335 z "},"ᾏ":{"ha":1072,"x_min":-51,"x_max":1039,"o":"m 295 0 l 33 0 l 373 1010 l 698 1010 l 1039 0 l 777 0 l 710 212 l 362 212 l 295 0 m 420 398 l 652 398 l 540 756 l 532 756 l 420 398 m 606 -335 q 511 -305 551 -335 q 472 -208 472 -275 l 472 -67 l 605 -67 l 605 -207 q 613 -234 605 -225 q 643 -243 620 -243 q 662 -242 654 -243 q 674 -241 669 -241 l 674 -326 q 643 -333 659 -330 q 606 -335 626 -335 m 275 1181 l 368 1152 q 336 1067 368 1103 q 254 1030 304 1030 q 191 1041 218 1030 q 141 1063 165 1052 q 87 1074 117 1074 q 55 1057 67 1074 q 43 1015 43 1039 l -51 1042 q -19 1129 -51 1091 q 63 1167 13 1167 q 121 1156 93 1167 q 175 1134 148 1145 q 230 1124 202 1124 q 262 1140 249 1124 q 275 1181 275 1157 m 113 938 l 113 995 l 227 995 l 227 942 q 236 890 227 916 q 276 849 244 863 l 219 793 q 146 845 180 809 q 113 938 113 880 z "},"ᾼ":{"ha":1072,"x_min":33,"x_max":1039,"o":"m 295 0 l 33 0 l 373 1010 l 698 1010 l 1039 0 l 777 0 l 710 212 l 362 212 l 295 0 m 420 398 l 652 398 l 540 756 l 532 756 l 420 398 m 606 -335 q 511 -305 551 -335 q 472 -208 472 -275 l 472 -67 l 605 -67 l 605 -207 q 613 -234 605 -225 q 643 -243 620 -243 q 662 -242 654 -243 q 674 -241 669 -241 l 674 -326 q 643 -333 659 -330 q 606 -335 626 -335 z "},"Λ":{"ha":1072,"x_min":33,"x_max":1039,"o":"m 295 0 l 33 0 l 373 1010 l 698 1010 l 1039 0 l 777 0 l 540 756 l 532 756 l 295 0 z "},"Æ":{"ha":1449,"x_min":33,"x_max":1373,"o":"m 33 0 l 446 1010 l 1373 1010 l 1373 812 l 912 812 l 912 605 l 1337 605 l 1337 406 l 912 406 l 912 198 l 1373 198 l 1373 0 l 668 0 l 668 212 l 383 212 l 301 0 l 33 0 m 455 398 l 668 398 l 668 766 l 599 766 l 455 398 z "},"Ǣ":{"ha":1449,"x_min":33,"x_max":1373,"o":"m 33 0 l 446 1010 l 1373 1010 l 1373 812 l 912 812 l 912 605 l 1337 605 l 1337 406 l 912 406 l 912 198 l 1373 198 l 1373 0 l 668 0 l 668 212 l 383 212 l 301 0 l 33 0 m 455 398 l 668 398 l 668 766 l 599 766 l 455 398 m 1157 1263 l 1157 1143 l 670 1143 l 670 1263 l 1157 1263 z "},"Ǽ":{"ha":1449,"x_min":33,"x_max":1373,"o":"m 33 0 l 446 1010 l 1373 1010 l 1373 812 l 912 812 l 912 605 l 1337 605 l 1337 406 l 912 406 l 912 198 l 1373 198 l 1373 0 l 668 0 l 668 212 l 383 212 l 301 0 l 33 0 m 455 398 l 668 398 l 668 766 l 599 766 l 455 398 m 830 1106 l 930 1329 l 1143 1329 l 994 1106 l 830 1106 z "},"Ӕ":{"ha":1449,"x_min":33,"x_max":1373,"o":"m 33 0 l 446 1010 l 1373 1010 l 1373 812 l 912 812 l 912 605 l 1337 605 l 1337 406 l 912 406 l 912 198 l 1373 198 l 1373 0 l 668 0 l 668 212 l 383 212 l 301 0 l 33 0 m 455 398 l 668 398 l 668 766 l 599 766 l 455 398 z "},"B":{"ha":922,"x_min":76,"x_max":881,"o":"m 76 0 l 76 1010 l 498 1010 q 755 940 668 1010 q 842 755 842 869 q 789 611 842 668 q 653 536 736 553 l 653 526 q 766 493 714 523 q 850 409 818 463 q 881 283 881 356 q 840 137 881 201 q 720 37 799 73 q 530 0 642 0 l 76 0 m 321 197 l 472 197 q 589 227 551 197 q 626 311 626 257 q 586 403 626 369 q 476 437 546 437 l 321 437 l 321 197 m 321 595 l 456 595 q 554 624 516 595 q 593 707 593 654 q 557 787 593 758 q 460 816 521 816 l 321 816 l 321 595 z "},"Ḃ":{"ha":922,"x_min":76,"x_max":881,"o":"m 76 0 l 76 1010 l 498 1010 q 755 940 668 1010 q 842 755 842 869 q 789 611 842 668 q 653 536 736 553 l 653 526 q 766 493 714 523 q 850 409 818 463 q 881 283 881 356 q 840 137 881 201 q 720 37 799 73 q 530 0 642 0 l 76 0 m 321 197 l 472 197 q 589 227 551 197 q 626 311 626 257 q 586 403 626 369 q 476 437 546 437 l 321 437 l 321 197 m 321 595 l 456 595 q 554 624 516 595 q 593 707 593 654 q 557 787 593 758 q 460 816 521 816 l 321 816 l 321 595 m 448 1098 q 361 1132 397 1098 q 324 1214 324 1166 q 361 1295 324 1262 q 448 1329 397 1329 q 535 1295 499 1329 q 572 1214 572 1262 q 535 1132 572 1166 q 448 1098 499 1098 z "},"Ḅ":{"ha":922,"x_min":76,"x_max":881,"o":"m 76 0 l 76 1010 l 498 1010 q 755 940 668 1010 q 842 755 842 869 q 789 611 842 668 q 653 536 736 553 l 653 526 q 766 493 714 523 q 850 409 818 463 q 881 283 881 356 q 840 137 881 201 q 720 37 799 73 q 530 0 642 0 l 76 0 m 321 197 l 472 197 q 589 227 551 197 q 626 311 626 257 q 586 403 626 369 q 476 437 546 437 l 321 437 l 321 197 m 321 595 l 456 595 q 554 624 516 595 q 593 707 593 654 q 557 787 593 758 q 460 816 521 816 l 321 816 l 321 595 m 447 -295 q 360 -261 397 -295 q 324 -180 324 -227 q 360 -98 324 -132 q 447 -65 397 -65 q 535 -98 499 -65 q 571 -180 571 -132 q 535 -261 571 -227 q 447 -295 499 -295 z "},"Ḇ":{"ha":922,"x_min":76,"x_max":881,"o":"m 76 0 l 76 1010 l 498 1010 q 755 940 668 1010 q 842 755 842 869 q 789 611 842 668 q 653 536 736 553 l 653 526 q 766 493 714 523 q 850 409 818 463 q 881 283 881 356 q 840 137 881 201 q 720 37 799 73 q 530 0 642 0 l 76 0 m 321 197 l 472 197 q 589 227 551 197 q 626 311 626 257 q 586 403 626 369 q 476 437 546 437 l 321 437 l 321 197 m 321 595 l 456 595 q 554 624 516 595 q 593 707 593 654 q 557 787 593 758 q 460 816 521 816 l 321 816 l 321 595 m 691 -127 l 691 -246 l 204 -246 l 204 -127 l 691 -127 z "},"Ƀ":{"ha":1014,"x_min":26,"x_max":973,"o":"m 168 0 l 168 1010 l 589 1010 q 846 940 759 1010 q 933 755 933 869 q 880 611 933 668 q 744 536 828 553 l 744 526 q 857 493 805 523 q 941 409 909 463 q 973 283 973 356 q 931 137 973 201 q 811 37 890 73 q 621 0 733 0 l 168 0 m 412 197 l 563 197 q 680 227 642 197 q 718 311 718 257 q 677 403 718 369 q 567 437 637 437 l 412 437 l 412 197 m 412 595 l 547 595 q 646 624 607 595 q 684 707 684 654 q 648 787 684 758 q 551 816 612 816 l 412 816 l 412 595 m 26 250 l 26 385 l 538 385 l 538 250 l 26 250 z "},"Ɓ":{"ha":1233,"x_min":43,"x_max":1192,"o":"m 387 0 l 387 813 l 362 813 q 298 794 321 813 q 267 745 276 775 q 259 686 258 716 l 259 620 l 43 620 l 43 730 q 129 936 43 861 q 362 1010 215 1010 l 808 1010 q 1066 940 979 1010 q 1153 755 1153 869 q 1100 611 1153 668 q 964 536 1047 553 l 964 526 q 1077 493 1025 523 q 1161 409 1129 463 q 1192 283 1192 356 q 1151 137 1192 201 q 1031 37 1109 73 q 840 0 952 0 l 387 0 m 631 197 l 782 197 q 899 227 862 197 q 937 311 937 257 q 897 403 937 369 q 787 437 857 437 l 631 437 l 631 197 m 631 595 l 766 595 q 865 624 827 595 q 904 707 904 654 q 868 787 904 758 q 770 816 832 816 l 631 816 l 631 595 z "},"В":{"ha":922,"x_min":76,"x_max":881,"o":"m 76 0 l 76 1010 l 498 1010 q 755 940 668 1010 q 842 755 842 869 q 789 611 842 668 q 653 536 736 553 l 653 526 q 766 493 714 523 q 850 409 818 463 q 881 283 881 356 q 840 137 881 201 q 720 37 799 73 q 530 0 642 0 l 76 0 m 321 197 l 472 197 q 589 227 551 197 q 626 311 626 257 q 586 403 626 369 q 476 437 546 437 l 321 437 l 321 197 m 321 595 l 456 595 q 554 624 516 595 q 593 707 593 654 q 557 787 593 758 q 460 816 521 816 l 321 816 l 321 595 z "},"Β":{"ha":922,"x_min":76,"x_max":881,"o":"m 76 0 l 76 1010 l 498 1010 q 755 940 668 1010 q 842 755 842 869 q 789 611 842 668 q 653 536 736 553 l 653 526 q 766 493 714 523 q 850 409 818 463 q 881 283 881 356 q 840 137 881 201 q 720 37 799 73 q 530 0 642 0 l 76 0 m 321 197 l 472 197 q 589 227 551 197 q 626 311 626 257 q 586 403 626 369 q 476 437 546 437 l 321 437 l 321 197 m 321 595 l 456 595 q 554 624 516 595 q 593 707 593 654 q 557 787 593 758 q 460 816 521 816 l 321 816 l 321 595 z "},"C":{"ha":1056,"x_min":66,"x_max":993,"o":"m 993 644 l 747 644 q 686 765 737 720 q 551 810 634 810 q 378 730 440 810 q 315 505 315 650 q 378 277 315 355 q 549 200 441 200 q 682 241 630 200 q 747 355 734 282 l 993 354 q 954 221 986 287 q 866 103 922 156 q 729 18 809 50 q 545 -14 649 -14 q 299 47 407 -14 q 128 223 191 107 q 66 505 66 339 q 129 788 66 672 q 301 964 193 904 q 545 1024 410 1024 q 763 979 667 1024 q 921 850 860 935 q 993 644 981 765 z "},"Ƈ":{"ha":1195,"x_min":66,"x_max":1206,"o":"m 993 644 l 747 644 q 686 765 737 720 q 551 810 634 810 q 378 730 440 810 q 315 505 315 650 q 378 277 315 355 q 549 200 441 200 q 682 241 630 200 q 747 355 734 282 l 993 354 q 954 221 986 287 q 866 103 922 156 q 729 18 809 50 q 545 -14 649 -14 q 299 47 407 -14 q 128 223 191 107 q 66 505 66 339 q 129 788 66 672 q 301 964 193 904 q 545 1024 410 1024 q 829 942 713 1024 q 946 1020 876 993 q 1095 1046 1016 1046 q 1149 1045 1124 1046 q 1206 1040 1175 1045 l 1206 847 q 1172 848 1193 847 q 1139 849 1152 849 q 1073 837 1107 849 q 1017 795 1040 824 q 993 715 993 765 l 993 644 z "},"Ç":{"ha":1056,"x_min":66,"x_max":993,"o":"m 993 644 l 747 644 q 686 765 737 720 q 551 810 634 810 q 378 730 440 810 q 315 505 315 650 q 378 277 315 355 q 549 200 441 200 q 682 241 630 200 q 747 355 734 282 l 993 354 q 954 221 986 287 q 866 103 922 156 q 729 18 809 50 q 545 -14 649 -14 q 299 47 407 -14 q 128 223 191 107 q 66 505 66 339 q 129 788 66 672 q 301 964 193 904 q 545 1024 410 1024 q 763 979 667 1024 q 921 850 860 935 q 993 644 981 765 m 492 5 l 588 5 l 581 -39 q 667 -78 635 -47 q 700 -160 700 -110 q 627 -281 701 -236 q 422 -326 553 -326 l 421 -227 q 526 -212 489 -227 q 564 -165 563 -196 q 469 -96 567 -109 l 492 5 z "},"Ć":{"ha":1056,"x_min":66,"x_max":993,"o":"m 993 644 l 747 644 q 686 765 737 720 q 551 810 634 810 q 378 730 440 810 q 315 505 315 650 q 378 277 315 355 q 549 200 441 200 q 682 241 630 200 q 747 355 734 282 l 993 354 q 954 221 986 287 q 866 103 922 156 q 729 18 809 50 q 545 -14 649 -14 q 299 47 407 -14 q 128 223 191 107 q 66 505 66 339 q 129 788 66 672 q 301 964 193 904 q 545 1024 410 1024 q 763 979 667 1024 q 921 850 860 935 q 993 644 981 765 m 461 1106 l 561 1329 l 774 1329 l 625 1106 l 461 1106 z "},"Ĉ":{"ha":1056,"x_min":66,"x_max":993,"o":"m 993 644 l 747 644 q 686 765 737 720 q 551 810 634 810 q 378 730 440 810 q 315 505 315 650 q 378 277 315 355 q 549 200 441 200 q 682 241 630 200 q 747 355 734 282 l 993 354 q 954 221 986 287 q 866 103 922 156 q 729 18 809 50 q 545 -14 649 -14 q 299 47 407 -14 q 128 223 191 107 q 66 505 66 339 q 129 788 66 672 q 301 964 193 904 q 545 1024 410 1024 q 763 979 667 1024 q 921 850 860 935 q 993 644 981 765 m 447 1100 l 245 1100 l 245 1106 l 458 1327 l 631 1327 l 844 1106 l 844 1100 l 643 1100 l 545 1214 l 447 1100 z "},"Ċ":{"ha":1056,"x_min":66,"x_max":993,"o":"m 993 644 l 747 644 q 686 765 737 720 q 551 810 634 810 q 378 730 440 810 q 315 505 315 650 q 378 277 315 355 q 549 200 441 200 q 682 241 630 200 q 747 355 734 282 l 993 354 q 954 221 986 287 q 866 103 922 156 q 729 18 809 50 q 545 -14 649 -14 q 299 47 407 -14 q 128 223 191 107 q 66 505 66 339 q 129 788 66 672 q 301 964 193 904 q 545 1024 410 1024 q 763 979 667 1024 q 921 850 860 935 q 993 644 981 765 m 545 1098 q 457 1132 494 1098 q 421 1214 421 1166 q 457 1295 421 1262 q 545 1329 494 1329 q 632 1295 596 1329 q 668 1214 668 1262 q 632 1132 668 1166 q 545 1098 596 1098 z "},"Č":{"ha":1056,"x_min":66,"x_max":993,"o":"m 993 644 l 747 644 q 686 765 737 720 q 551 810 634 810 q 378 730 440 810 q 315 505 315 650 q 378 277 315 355 q 549 200 441 200 q 682 241 630 200 q 747 355 734 282 l 993 354 q 954 221 986 287 q 866 103 922 156 q 729 18 809 50 q 545 -14 649 -14 q 299 47 407 -14 q 128 223 191 107 q 66 505 66 339 q 129 788 66 672 q 301 964 193 904 q 545 1024 410 1024 q 763 979 667 1024 q 921 850 860 935 q 993 644 981 765 m 447 1328 l 545 1214 l 643 1328 l 844 1328 l 844 1322 l 631 1101 l 458 1101 l 245 1322 l 245 1328 l 447 1328 z "},"Ḉ":{"ha":1056,"x_min":66,"x_max":993,"o":"m 993 644 l 747 644 q 686 765 737 720 q 551 810 634 810 q 378 730 440 810 q 315 505 315 650 q 378 277 315 355 q 549 200 441 200 q 682 241 630 200 q 747 355 734 282 l 993 354 q 954 221 986 287 q 866 103 922 156 q 729 18 809 50 q 545 -14 649 -14 q 299 47 407 -14 q 128 223 191 107 q 66 505 66 339 q 129 788 66 672 q 301 964 193 904 q 545 1024 410 1024 q 763 979 667 1024 q 921 850 860 935 q 993 644 981 765 m 492 5 l 588 5 l 581 -39 q 667 -78 635 -47 q 700 -160 700 -110 q 627 -281 701 -236 q 422 -326 553 -326 l 421 -227 q 526 -212 489 -227 q 564 -165 563 -196 q 469 -96 567 -109 l 492 5 m 461 1106 l 561 1329 l 774 1329 l 625 1106 l 461 1106 z "},"Ȼ":{"ha":1056,"x_min":66,"x_max":993,"o":"m 265 -128 l 317 37 q 134 213 203 94 q 66 505 66 332 q 129 788 66 672 q 301 964 193 904 q 545 1024 410 1024 q 624 1019 585 1024 l 661 1138 l 796 1138 l 748 986 q 915 857 850 944 q 993 644 981 770 l 747 644 q 681 769 737 725 l 504 204 q 549 200 525 200 q 682 241 630 200 q 747 355 734 282 l 993 354 q 954 221 986 287 q 866 103 922 156 q 729 18 809 50 q 545 -14 649 -14 q 438 -4 490 -14 l 400 -128 l 265 -128 m 389 265 l 559 810 q 551 810 555 810 q 378 730 440 810 q 315 505 315 650 q 334 363 315 424 q 389 265 353 303 z "},"Ɔ":{"ha":1056,"x_min":63,"x_max":990,"o":"m 63 644 q 135 850 75 765 q 293 979 196 935 q 511 1024 390 1024 q 755 964 646 1024 q 927 788 863 904 q 990 505 990 672 q 928 223 990 339 q 757 47 865 107 q 511 -14 649 -14 q 327 18 407 -14 q 190 103 247 50 q 102 221 134 156 q 63 354 70 287 l 309 355 q 374 241 322 282 q 507 200 426 200 q 678 277 615 200 q 741 505 741 355 q 678 730 741 650 q 505 810 616 810 q 370 765 422 810 q 309 644 319 720 l 63 644 z "},"Ϲ":{"ha":1056,"x_min":66,"x_max":993,"o":"m 993 644 l 747 644 q 686 765 737 720 q 551 810 634 810 q 378 730 440 810 q 315 505 315 650 q 378 277 315 355 q 549 200 441 200 q 682 241 630 200 q 747 355 734 282 l 993 354 q 954 221 986 287 q 866 103 922 156 q 729 18 809 50 q 545 -14 649 -14 q 299 47 407 -14 q 128 223 191 107 q 66 505 66 339 q 129 788 66 672 q 301 964 193 904 q 545 1024 410 1024 q 763 979 667 1024 q 921 850 860 935 q 993 644 981 765 z "},"D":{"ha":1014,"x_min":76,"x_max":948,"o":"m 450 0 l 76 0 l 76 1010 l 449 1010 q 715 950 604 1010 q 888 776 827 889 q 948 506 948 663 q 888 235 948 348 q 716 61 828 121 q 450 0 604 0 m 321 208 l 440 208 q 636 275 568 208 q 704 506 704 342 q 636 735 704 669 q 437 802 567 802 l 321 802 l 321 208 z "},"Ɗ":{"ha":1328,"x_min":43,"x_max":1262,"o":"m 43 620 l 43 730 q 129 936 43 861 q 362 1010 215 1010 l 763 1010 q 1029 950 917 1010 q 1201 776 1141 889 q 1262 506 1262 663 q 1202 235 1262 348 q 1029 61 1141 121 q 763 0 917 0 l 390 0 l 390 802 l 362 802 q 279 767 300 802 q 259 686 258 731 l 259 620 l 43 620 m 634 802 l 634 208 l 754 208 q 950 275 882 208 q 1017 506 1017 342 q 949 735 1017 669 q 751 802 881 802 l 634 802 z "},"Ď":{"ha":1014,"x_min":76,"x_max":948,"o":"m 450 0 l 76 0 l 76 1010 l 449 1010 q 715 950 604 1010 q 888 776 827 889 q 948 506 948 663 q 888 235 948 348 q 716 61 828 121 q 450 0 604 0 m 321 208 l 440 208 q 636 275 568 208 q 704 506 704 342 q 636 735 704 669 q 437 802 567 802 l 321 802 l 321 208 m 308 1328 l 405 1214 l 504 1328 l 705 1328 l 705 1322 l 492 1101 l 319 1101 l 106 1322 l 106 1328 l 308 1328 z "},"Ḋ":{"ha":1014,"x_min":76,"x_max":948,"o":"m 450 0 l 76 0 l 76 1010 l 449 1010 q 715 950 604 1010 q 888 776 827 889 q 948 506 948 663 q 888 235 948 348 q 716 61 828 121 q 450 0 604 0 m 321 208 l 440 208 q 636 275 568 208 q 704 506 704 342 q 636 735 704 669 q 437 802 567 802 l 321 802 l 321 208 m 405 1098 q 318 1132 355 1098 q 282 1214 282 1166 q 318 1295 282 1262 q 405 1329 355 1329 q 493 1295 457 1329 q 529 1214 529 1262 q 493 1132 529 1166 q 405 1098 457 1098 z "},"Ḍ":{"ha":1014,"x_min":76,"x_max":948,"o":"m 450 0 l 76 0 l 76 1010 l 449 1010 q 715 950 604 1010 q 888 776 827 889 q 948 506 948 663 q 888 235 948 348 q 716 61 828 121 q 450 0 604 0 m 321 208 l 440 208 q 636 275 568 208 q 704 506 704 342 q 636 735 704 669 q 437 802 567 802 l 321 802 l 321 208 m 451 -295 q 363 -261 400 -295 q 327 -180 327 -227 q 363 -98 327 -132 q 451 -65 400 -65 q 538 -98 502 -65 q 575 -180 575 -132 q 538 -261 575 -227 q 451 -295 502 -295 z "},"Ḏ":{"ha":1014,"x_min":76,"x_max":948,"o":"m 450 0 l 76 0 l 76 1010 l 449 1010 q 715 950 604 1010 q 888 776 827 889 q 948 506 948 663 q 888 235 948 348 q 716 61 828 121 q 450 0 604 0 m 321 208 l 440 208 q 636 275 568 208 q 704 506 704 342 q 636 735 704 669 q 437 802 567 802 l 321 802 l 321 208 m 694 -127 l 694 -246 l 207 -246 l 207 -127 l 694 -127 z "},"Ḑ":{"ha":1014,"x_min":76,"x_max":948,"o":"m 450 0 l 76 0 l 76 1010 l 449 1010 q 715 950 604 1010 q 888 776 827 889 q 948 506 948 663 q 888 235 948 348 q 716 61 828 121 q 450 0 604 0 m 321 208 l 440 208 q 636 275 568 208 q 704 506 704 342 q 636 735 704 669 q 437 802 567 802 l 321 802 l 321 208 m 280 -320 l 343 -80 l 563 -80 l 447 -320 l 280 -320 z "},"Ḓ":{"ha":1014,"x_min":76,"x_max":948,"o":"m 450 0 l 76 0 l 76 1010 l 449 1010 q 715 950 604 1010 q 888 776 827 889 q 948 506 948 663 q 888 235 948 348 q 716 61 828 121 q 450 0 604 0 m 321 208 l 440 208 q 636 275 568 208 q 704 506 704 342 q 636 735 704 669 q 437 802 567 802 l 321 802 l 321 208 m 353 -291 l 150 -291 l 150 -285 l 364 -64 l 537 -64 l 750 -285 l 750 -291 l 548 -291 l 450 -177 l 353 -291 z "},"Ɖ":{"ha":1014,"x_min":-59,"x_max":948,"o":"m 450 0 l 76 0 l 76 1010 l 449 1010 q 715 950 604 1010 q 888 776 827 889 q 948 506 948 663 q 888 235 948 348 q 716 61 828 121 q 450 0 604 0 m 321 208 l 440 208 q 636 275 568 208 q 704 506 704 342 q 636 735 704 669 q 437 802 567 802 l 321 802 l 321 208 m -59 470 l -59 604 l 453 604 l 453 470 l -59 470 z "},"ǲ":{"ha":1822,"x_min":76,"x_max":1743,"o":"m 450 0 l 76 0 l 76 1010 l 449 1010 q 715 950 604 1010 q 888 776 827 889 q 948 506 948 663 q 888 235 948 348 q 716 61 828 121 q 450 0 604 0 m 321 208 l 440 208 q 636 275 568 208 q 704 506 704 342 q 636 735 704 669 q 437 802 567 802 l 321 802 l 321 208 m 1092 0 l 1092 138 l 1444 565 l 1444 570 l 1105 570 l 1105 758 l 1731 758 l 1731 607 l 1406 192 l 1406 187 l 1743 187 l 1743 0 l 1092 0 z "},"ǅ":{"ha":1822,"x_min":76,"x_max":1743,"o":"m 450 0 l 76 0 l 76 1010 l 449 1010 q 715 950 604 1010 q 888 776 827 889 q 948 506 948 663 q 888 235 948 348 q 716 61 828 121 q 450 0 604 0 m 321 208 l 440 208 q 636 275 568 208 q 704 506 704 342 q 636 735 704 669 q 437 802 567 802 l 321 802 l 321 208 m 1092 0 l 1092 138 l 1444 565 l 1444 570 l 1105 570 l 1105 758 l 1731 758 l 1731 607 l 1406 192 l 1406 187 l 1743 187 l 1743 0 l 1092 0 m 1319 1076 l 1417 961 l 1515 1076 l 1717 1076 l 1717 1069 l 1504 848 l 1331 848 l 1117 1069 l 1117 1076 l 1319 1076 z "},"E":{"ha":857,"x_min":76,"x_max":781,"o":"m 76 0 l 76 1010 l 781 1010 l 781 812 l 321 812 l 321 605 l 745 605 l 745 406 l 321 406 l 321 198 l 781 198 l 781 0 l 76 0 z "},"È":{"ha":857,"x_min":76,"x_max":781,"o":"m 76 0 l 76 1010 l 781 1010 l 781 812 l 321 812 l 321 605 l 745 605 l 745 406 l 321 406 l 321 198 l 781 198 l 781 0 l 76 0 m 350 1106 l 201 1329 l 414 1329 l 514 1106 l 350 1106 z "},"É":{"ha":857,"x_min":76,"x_max":781,"o":"m 76 0 l 76 1010 l 781 1010 l 781 812 l 321 812 l 321 605 l 745 605 l 745 406 l 321 406 l 321 198 l 781 198 l 781 0 l 76 0 m 348 1106 l 447 1329 l 661 1329 l 512 1106 l 348 1106 z "},"Ê":{"ha":857,"x_min":76,"x_max":781,"o":"m 76 0 l 76 1010 l 781 1010 l 781 812 l 321 812 l 321 605 l 745 605 l 745 406 l 321 406 l 321 198 l 781 198 l 781 0 l 76 0 m 333 1100 l 131 1100 l 131 1106 l 344 1327 l 517 1327 l 730 1106 l 730 1100 l 529 1100 l 431 1214 l 333 1100 z "},"Ë":{"ha":857,"x_min":76,"x_max":781,"o":"m 76 0 l 76 1010 l 781 1010 l 781 812 l 321 812 l 321 605 l 745 605 l 745 406 l 321 406 l 321 198 l 781 198 l 781 0 l 76 0 m 278 1106 q 199 1138 231 1106 q 166 1214 166 1170 q 199 1290 166 1259 q 278 1321 231 1321 q 356 1290 324 1321 q 388 1214 388 1259 q 356 1138 388 1170 q 278 1106 324 1106 m 585 1106 q 506 1138 539 1106 q 473 1214 473 1170 q 506 1290 473 1259 q 585 1321 539 1321 q 664 1290 631 1321 q 696 1214 696 1259 q 664 1138 696 1170 q 585 1106 631 1106 z "},"Ē":{"ha":857,"x_min":76,"x_max":781,"o":"m 76 0 l 76 1010 l 781 1010 l 781 812 l 321 812 l 321 605 l 745 605 l 745 406 l 321 406 l 321 198 l 781 198 l 781 0 l 76 0 m 674 1263 l 674 1143 l 187 1143 l 187 1263 l 674 1263 z "},"Ĕ":{"ha":857,"x_min":76,"x_max":781,"o":"m 76 0 l 76 1010 l 781 1010 l 781 812 l 321 812 l 321 605 l 745 605 l 745 406 l 321 406 l 321 198 l 781 198 l 781 0 l 76 0 m 529 1278 l 688 1278 q 618 1129 688 1186 q 431 1073 549 1073 q 243 1129 312 1073 q 174 1278 174 1186 l 331 1278 q 354 1219 331 1246 q 431 1193 376 1193 q 506 1219 483 1193 q 529 1278 529 1245 z "},"Ė":{"ha":857,"x_min":76,"x_max":781,"o":"m 76 0 l 76 1010 l 781 1010 l 781 812 l 321 812 l 321 605 l 745 605 l 745 406 l 321 406 l 321 198 l 781 198 l 781 0 l 76 0 m 431 1098 q 343 1132 380 1098 q 307 1214 307 1166 q 343 1295 307 1262 q 431 1329 380 1329 q 518 1295 482 1329 q 554 1214 554 1262 q 518 1132 554 1166 q 431 1098 482 1098 z "},"Ę":{"ha":857,"x_min":76,"x_max":799,"o":"m 76 0 l 76 1010 l 781 1010 l 781 812 l 321 812 l 321 605 l 745 605 l 745 406 l 321 406 l 321 198 l 781 198 l 781 0 l 76 0 m 684 -279 q 571 -245 617 -279 q 510 -148 525 -211 q 506 -65 500 -107 q 533 12 511 -22 q 590 62 554 46 l 781 0 q 706 -39 734 -18 q 679 -93 679 -61 q 726 -144 678 -144 q 752 -140 740 -144 q 772 -134 763 -136 l 799 -249 q 751 -269 780 -259 q 684 -279 723 -279 z "},"Ě":{"ha":857,"x_min":76,"x_max":781,"o":"m 76 0 l 76 1010 l 781 1010 l 781 812 l 321 812 l 321 605 l 745 605 l 745 406 l 321 406 l 321 198 l 781 198 l 781 0 l 76 0 m 333 1328 l 431 1214 l 529 1328 l 730 1328 l 730 1322 l 517 1101 l 344 1101 l 131 1322 l 131 1328 l 333 1328 z "},"Ȅ":{"ha":857,"x_min":76,"x_max":781,"o":"m 76 0 l 76 1010 l 781 1010 l 781 812 l 321 812 l 321 605 l 745 605 l 745 406 l 321 406 l 321 198 l 781 198 l 781 0 l 76 0 m 373 1106 l 197 1152 l 108 1329 l 318 1283 l 373 1106 m 624 1106 l 461 1152 l 414 1329 l 605 1283 l 624 1106 z "},"Ȇ":{"ha":857,"x_min":76,"x_max":781,"o":"m 76 0 l 76 1010 l 781 1010 l 781 812 l 321 812 l 321 605 l 745 605 l 745 406 l 321 406 l 321 198 l 781 198 l 781 0 l 76 0 m 172 1130 q 241 1283 172 1223 q 430 1342 311 1342 q 618 1283 547 1342 q 688 1130 688 1223 l 529 1130 q 506 1189 528 1163 q 430 1215 483 1215 q 353 1189 376 1215 q 331 1130 330 1163 l 172 1130 z "},"Ȩ":{"ha":857,"x_min":76,"x_max":781,"o":"m 76 0 l 76 1010 l 781 1010 l 781 812 l 321 812 l 321 605 l 745 605 l 745 406 l 321 406 l 321 198 l 781 198 l 781 0 l 76 0 m 383 4 l 479 4 l 472 -40 q 558 -80 526 -48 q 591 -161 591 -111 q 518 -283 592 -238 q 313 -327 444 -327 l 312 -228 q 417 -213 380 -228 q 455 -167 454 -198 q 360 -98 458 -111 l 383 4 z "},"Ḕ":{"ha":857,"x_min":76,"x_max":781,"o":"m 76 0 l 76 1010 l 781 1010 l 781 812 l 321 812 l 321 605 l 745 605 l 745 406 l 321 406 l 321 198 l 781 198 l 781 0 l 76 0 m 674 1241 l 674 1122 l 187 1122 l 187 1241 l 674 1241 m 355 1331 l 184 1513 l 391 1513 l 526 1331 l 355 1331 z "},"Ḗ":{"ha":857,"x_min":76,"x_max":781,"o":"m 76 0 l 76 1010 l 781 1010 l 781 812 l 321 812 l 321 605 l 745 605 l 745 406 l 321 406 l 321 198 l 781 198 l 781 0 l 76 0 m 674 1241 l 674 1122 l 187 1122 l 187 1241 l 674 1241 m 337 1331 l 472 1513 l 678 1513 l 508 1331 l 337 1331 z "},"Ḙ":{"ha":857,"x_min":76,"x_max":781,"o":"m 76 0 l 76 1010 l 781 1010 l 781 812 l 321 812 l 321 605 l 745 605 l 745 406 l 321 406 l 321 198 l 781 198 l 781 0 l 76 0 m 331 -291 l 129 -291 l 129 -285 l 342 -64 l 515 -64 l 728 -285 l 728 -291 l 527 -291 l 429 -177 l 331 -291 z "},"Ḛ":{"ha":857,"x_min":76,"x_max":781,"o":"m 76 0 l 76 1010 l 781 1010 l 781 812 l 321 812 l 321 605 l 745 605 l 745 406 l 321 406 l 321 198 l 781 198 l 781 0 l 76 0 m 313 -278 l 187 -277 q 235 -125 187 -177 q 352 -73 283 -74 q 422 -89 394 -73 q 472 -121 450 -105 q 503 -142 488 -133 q 535 -151 518 -151 q 576 -130 563 -150 q 590 -74 590 -109 l 714 -76 q 665 -227 713 -175 q 550 -280 618 -279 q 479 -265 507 -280 q 430 -233 451 -249 q 399 -212 414 -221 q 367 -203 385 -203 q 328 -222 343 -203 q 313 -278 313 -242 z "},"Ḝ":{"ha":857,"x_min":76,"x_max":781,"o":"m 76 0 l 76 1010 l 781 1010 l 781 812 l 321 812 l 321 605 l 745 605 l 745 406 l 321 406 l 321 198 l 781 198 l 781 0 l 76 0 m 383 4 l 479 4 l 472 -40 q 558 -80 526 -48 q 591 -161 591 -111 q 518 -283 592 -238 q 313 -327 444 -327 l 312 -228 q 417 -213 380 -228 q 455 -167 454 -198 q 360 -98 458 -111 l 383 4 m 529 1278 l 688 1278 q 618 1129 688 1186 q 431 1073 549 1073 q 243 1129 312 1073 q 174 1278 174 1186 l 331 1278 q 354 1219 331 1246 q 431 1193 376 1193 q 506 1219 483 1193 q 529 1278 529 1245 z "},"Ẹ":{"ha":857,"x_min":76,"x_max":781,"o":"m 76 0 l 76 1010 l 781 1010 l 781 812 l 321 812 l 321 605 l 745 605 l 745 406 l 321 406 l 321 198 l 781 198 l 781 0 l 76 0 m 429 -295 q 342 -261 378 -295 q 305 -180 305 -227 q 342 -98 305 -132 q 429 -65 378 -65 q 517 -98 480 -65 q 553 -180 553 -132 q 517 -261 553 -227 q 429 -295 480 -295 z "},"Ẻ":{"ha":857,"x_min":76,"x_max":781,"o":"m 76 0 l 76 1010 l 781 1010 l 781 812 l 321 812 l 321 605 l 745 605 l 745 406 l 321 406 l 321 198 l 781 198 l 781 0 l 76 0 m 517 1121 l 341 1121 l 327 1203 q 402 1217 380 1205 q 424 1246 424 1229 q 397 1281 424 1273 q 328 1290 369 1290 l 333 1392 q 549 1356 475 1392 q 623 1257 623 1321 q 590 1191 623 1213 q 517 1162 557 1168 l 517 1121 z "},"Ẽ":{"ha":857,"x_min":76,"x_max":781,"o":"m 76 0 l 76 1010 l 781 1010 l 781 812 l 321 812 l 321 605 l 745 605 l 745 406 l 321 406 l 321 198 l 781 198 l 781 0 l 76 0 m 293 1104 l 168 1105 q 216 1256 168 1205 q 332 1308 263 1308 q 402 1292 374 1308 q 452 1260 430 1277 q 484 1239 469 1248 q 515 1231 499 1231 q 557 1252 543 1231 q 571 1307 570 1272 l 694 1306 q 646 1154 693 1206 q 530 1102 598 1102 q 459 1117 487 1101 q 410 1149 432 1132 q 380 1170 394 1161 q 347 1179 365 1179 q 308 1159 323 1179 q 293 1104 293 1140 z "},"Ế":{"ha":857,"x_min":76,"x_max":925,"o":"m 76 0 l 76 1010 l 781 1010 l 781 812 l 321 812 l 321 605 l 745 605 l 745 406 l 321 406 l 321 198 l 781 198 l 781 0 l 76 0 m 173 1089 l 371 1234 l 486 1234 l 686 1089 l 531 1089 l 430 1165 l 327 1089 l 173 1089 m 634 1165 l 756 1352 l 925 1352 l 759 1165 l 634 1165 z "},"Ề":{"ha":857,"x_min":-64,"x_max":781,"o":"m 76 0 l 76 1010 l 781 1010 l 781 812 l 321 812 l 321 605 l 745 605 l 745 406 l 321 406 l 321 198 l 781 198 l 781 0 l 76 0 m 487 1230 l 687 1086 l 532 1086 l 431 1162 l 327 1086 l 175 1086 l 372 1230 l 487 1230 m 103 1347 l 226 1162 l 103 1162 l -64 1347 l 103 1347 z "},"Ể":{"ha":857,"x_min":76,"x_max":825,"o":"m 76 0 l 76 1010 l 781 1010 l 781 812 l 321 812 l 321 605 l 745 605 l 745 406 l 321 406 l 321 198 l 781 198 l 781 0 l 76 0 m 487 1231 l 684 1087 l 531 1087 l 431 1160 l 327 1087 l 174 1087 l 371 1231 l 487 1231 m 736 1170 l 619 1170 l 606 1239 q 668 1250 649 1240 q 687 1274 687 1259 q 664 1304 687 1297 q 606 1311 641 1311 l 611 1395 q 770 1366 716 1395 q 825 1283 825 1337 q 797 1229 825 1248 q 736 1203 769 1209 l 736 1170 z "},"Ễ":{"ha":857,"x_min":76,"x_max":781,"o":"m 76 0 l 76 1010 l 781 1010 l 781 812 l 321 812 l 321 605 l 745 605 l 745 406 l 321 406 l 321 198 l 781 198 l 781 0 l 76 0 m 491 1235 l 687 1089 l 535 1089 l 431 1164 l 330 1089 l 175 1089 l 372 1235 l 491 1235 m 534 1401 l 613 1373 q 590 1299 613 1333 q 526 1266 567 1266 q 470 1277 495 1266 q 421 1298 444 1287 q 374 1308 398 1308 q 352 1295 359 1308 q 345 1263 345 1281 l 268 1284 q 291 1355 268 1322 q 355 1388 313 1388 q 405 1378 379 1388 q 457 1358 432 1368 q 507 1347 483 1347 q 527 1365 520 1347 q 534 1401 534 1382 z "},"Ệ":{"ha":857,"x_min":76,"x_max":781,"o":"m 76 0 l 76 1010 l 781 1010 l 781 812 l 321 812 l 321 605 l 745 605 l 745 406 l 321 406 l 321 198 l 781 198 l 781 0 l 76 0 m 333 1100 l 131 1100 l 131 1106 l 344 1327 l 517 1327 l 730 1106 l 730 1100 l 529 1100 l 431 1214 l 333 1100 m 429 -295 q 342 -261 378 -295 q 305 -180 305 -227 q 342 -98 305 -132 q 429 -65 378 -65 q 517 -98 480 -65 q 553 -180 553 -132 q 517 -261 553 -227 q 429 -295 480 -295 z "},"Ɇ":{"ha":857,"x_min":76,"x_max":781,"o":"m 696 1138 l 659 1010 l 781 1010 l 781 812 l 602 812 l 543 605 l 745 605 l 745 406 l 485 406 l 426 198 l 781 198 l 781 0 l 368 0 l 331 -128 l 219 -128 l 256 0 l 76 0 l 76 1010 l 547 1010 l 584 1138 l 696 1138 m 490 812 l 321 812 l 321 605 l 430 605 l 490 812 m 373 406 l 321 406 l 321 224 l 373 406 z "},"Ǝ":{"ha":861,"x_min":54,"x_max":758,"o":"m 758 1010 l 758 0 l 54 0 l 54 198 l 514 198 l 514 405 l 90 405 l 90 604 l 514 604 l 514 812 l 54 812 l 54 1010 l 758 1010 z "},"Ε":{"ha":857,"x_min":76,"x_max":781,"o":"m 76 0 l 76 1010 l 781 1010 l 781 812 l 321 812 l 321 605 l 745 605 l 745 406 l 321 406 l 321 198 l 781 198 l 781 0 l 76 0 z "},"Έ":{"ha":1134,"x_min":72,"x_max":1057,"o":"m 353 0 l 353 1010 l 1057 1010 l 1057 812 l 597 812 l 597 605 l 1021 605 l 1021 406 l 597 406 l 597 198 l 1057 198 l 1057 0 l 353 0 m 72 850 l 130 1086 l 339 1086 l 209 850 l 72 850 z "},"Ἐ":{"ha":1068,"x_min":36,"x_max":991,"o":"m 287 0 l 287 1010 l 991 1010 l 991 812 l 531 812 l 531 605 l 955 605 l 955 406 l 531 406 l 531 198 l 991 198 l 991 0 l 287 0 m 207 1010 l 207 942 q 174 832 207 877 q 95 765 142 786 l 36 834 q 78 880 67 852 q 89 946 89 909 l 89 1010 l 207 1010 z "},"Ἑ":{"ha":1074,"x_min":68,"x_max":997,"o":"m 292 0 l 292 1010 l 997 1010 l 997 812 l 537 812 l 537 605 l 961 605 l 961 406 l 537 406 l 537 198 l 997 198 l 997 0 l 292 0 m 68 942 l 68 1010 l 187 1010 l 187 946 q 198 884 188 915 q 239 834 207 853 l 180 765 q 102 832 134 786 q 68 942 69 877 z "},"Ἒ":{"ha":1334,"x_min":67,"x_max":1257,"o":"m 553 0 l 553 1010 l 1257 1010 l 1257 812 l 797 812 l 797 605 l 1221 605 l 1221 406 l 797 406 l 797 198 l 1257 198 l 1257 0 l 553 0 m 252 1010 l 252 955 q 218 847 252 896 q 121 765 183 798 l 67 807 q 109 874 95 838 q 123 959 124 911 l 123 1010 l 252 1010 m 512 791 l 512 781 l 445 781 l 284 996 l 284 1010 l 432 1010 l 512 791 z "},"Ἓ":{"ha":1297,"x_min":63,"x_max":1220,"o":"m 515 0 l 515 1010 l 1220 1010 l 1220 812 l 760 812 l 760 605 l 1184 605 l 1184 406 l 760 406 l 760 198 l 1220 198 l 1220 0 l 515 0 m 64 942 l 64 1010 l 184 1010 l 184 946 q 193 884 184 915 q 238 834 202 853 l 179 765 q 96 832 129 786 q 64 942 63 877 m 471 798 l 471 780 l 404 780 l 242 996 l 242 1010 l 393 1010 l 471 798 z "},"Ἔ":{"ha":1318,"x_min":70,"x_max":1241,"o":"m 537 0 l 537 1010 l 1241 1010 l 1241 812 l 781 812 l 781 605 l 1205 605 l 1205 406 l 781 406 l 781 198 l 1241 198 l 1241 0 l 537 0 m 244 1010 l 244 942 q 211 832 244 878 q 129 765 178 786 l 70 834 q 113 884 104 853 q 123 946 123 915 l 123 1010 l 244 1010 m 268 780 l 268 798 l 348 1010 l 497 1010 l 497 996 l 334 780 l 268 780 z "},"Ἕ":{"ha":1336,"x_min":68,"x_max":1259,"o":"m 555 0 l 555 1010 l 1259 1010 l 1259 812 l 799 812 l 799 605 l 1223 605 l 1223 406 l 799 406 l 799 198 l 1259 198 l 1259 0 l 555 0 m 180 765 q 103 830 137 785 q 68 942 69 875 l 68 1010 l 187 1010 l 187 946 q 198 880 188 909 q 240 834 209 852 l 180 765 m 283 780 l 283 798 l 359 1010 l 509 1010 l 509 996 l 346 780 l 283 780 z "},"Ὲ":{"ha":1123,"x_min":67,"x_max":1046,"o":"m 342 0 l 342 1010 l 1046 1010 l 1046 812 l 586 812 l 586 605 l 1010 605 l 1010 406 l 586 406 l 586 198 l 1046 198 l 1046 0 l 342 0 m 229 779 l 67 996 l 67 1010 l 215 1010 l 292 800 l 292 779 l 229 779 z "},"Έ":{"ha":1115,"x_min":57,"x_max":1038,"o":"m 334 0 l 334 1010 l 1038 1010 l 1038 812 l 578 812 l 578 605 l 1002 605 l 1002 406 l 578 406 l 578 198 l 1038 198 l 1038 0 l 334 0 m 57 852 l 57 873 l 135 1083 l 338 1083 l 338 1069 l 176 852 l 57 852 z "},"Е":{"ha":857,"x_min":76,"x_max":781,"o":"m 76 0 l 76 1010 l 781 1010 l 781 812 l 321 812 l 321 605 l 745 605 l 745 406 l 321 406 l 321 198 l 781 198 l 781 0 l 76 0 z "},"Ѐ":{"ha":857,"x_min":76,"x_max":781,"o":"m 76 0 l 76 1010 l 781 1010 l 781 812 l 321 812 l 321 605 l 745 605 l 745 406 l 321 406 l 321 198 l 781 198 l 781 0 l 76 0 m 350 1106 l 201 1329 l 414 1329 l 514 1106 l 350 1106 z "},"Ё":{"ha":857,"x_min":76,"x_max":781,"o":"m 76 0 l 76 1010 l 781 1010 l 781 812 l 321 812 l 321 605 l 745 605 l 745 406 l 321 406 l 321 198 l 781 198 l 781 0 l 76 0 m 278 1106 q 199 1138 231 1106 q 166 1214 166 1170 q 199 1290 166 1259 q 278 1321 231 1321 q 356 1290 324 1321 q 388 1214 388 1259 q 356 1138 388 1170 q 278 1106 324 1106 m 585 1106 q 506 1138 539 1106 q 473 1214 473 1170 q 506 1290 473 1259 q 585 1321 539 1321 q 664 1290 631 1321 q 696 1214 696 1259 q 664 1138 696 1170 q 585 1106 631 1106 z "},"Ӗ":{"ha":857,"x_min":76,"x_max":781,"o":"m 76 0 l 76 1010 l 781 1010 l 781 812 l 321 812 l 321 605 l 745 605 l 745 406 l 321 406 l 321 198 l 781 198 l 781 0 l 76 0 m 529 1278 l 688 1278 q 618 1129 688 1186 q 431 1073 549 1073 q 243 1129 312 1073 q 174 1278 174 1186 l 331 1278 q 354 1219 331 1246 q 431 1193 376 1193 q 506 1219 483 1193 q 529 1278 529 1245 z "},"F":{"ha":812,"x_min":76,"x_max":766,"o":"m 76 0 l 76 1010 l 766 1010 l 766 812 l 321 812 l 321 605 l 722 605 l 722 406 l 321 406 l 321 0 l 76 0 z "},"Ƒ":{"ha":853,"x_min":-30,"x_max":807,"o":"m 117 -35 l 117 1010 l 807 1010 l 807 812 l 362 812 l 362 605 l 763 605 l 763 406 l 362 406 l 362 -35 q 337 -166 362 -116 q 271 -241 313 -216 q 178 -275 230 -266 q 72 -284 126 -284 q 23 -284 55 -284 q -30 -280 -8 -283 l -30 -99 q -13 -100 -22 -100 q 5 -100 -3 -100 q 14 -100 11 -100 q 85 -87 53 -100 q 117 -35 117 -73 z "},"Ḟ":{"ha":812,"x_min":76,"x_max":766,"o":"m 76 0 l 76 1010 l 766 1010 l 766 812 l 321 812 l 321 605 l 722 605 l 722 406 l 321 406 l 321 0 l 76 0 m 425 1098 q 338 1132 374 1098 q 301 1214 301 1166 q 338 1295 301 1262 q 425 1329 374 1329 q 513 1295 476 1329 q 549 1214 549 1262 q 513 1132 549 1166 q 425 1098 476 1098 z "},"Ⅎ":{"ha":812,"x_min":46,"x_max":735,"o":"m 735 1010 l 735 0 l 46 0 l 46 198 l 491 198 l 491 405 l 90 405 l 90 604 l 491 604 l 491 1010 l 735 1010 z "},"G":{"ha":1065,"x_min":66,"x_max":997,"o":"m 739 680 q 675 776 723 742 q 553 810 627 810 q 379 730 443 810 q 315 507 315 651 q 377 281 315 361 q 553 200 440 200 q 706 247 653 200 q 762 374 760 294 l 562 374 l 562 552 l 997 552 l 997 419 q 940 186 997 283 q 782 38 883 89 q 551 -14 682 -14 q 297 49 407 -14 q 127 228 188 112 q 66 504 66 344 q 130 785 66 669 q 304 963 195 902 q 548 1024 414 1024 q 760 980 665 1024 q 914 858 855 936 q 986 680 974 781 l 739 680 z "},"Ǥ":{"ha":1065,"x_min":66,"x_max":1036,"o":"m 1036 333 l 1036 264 l 974 264 q 818 59 931 132 q 551 -14 706 -14 q 297 49 407 -14 q 127 228 188 112 q 66 504 66 344 q 130 785 66 669 q 304 963 195 902 q 548 1024 414 1024 q 760 980 665 1024 q 914 858 855 936 q 986 680 974 781 l 739 680 q 675 776 723 742 q 553 810 627 810 q 379 730 443 810 q 315 507 315 651 q 377 281 315 361 q 553 200 440 200 q 724 264 669 200 l 562 264 l 562 333 l 757 333 q 762 374 762 353 l 562 374 l 562 552 l 997 552 l 997 419 q 990 333 997 374 l 1036 333 z "},"Ɠ":{"ha":1187,"x_min":66,"x_max":1189,"o":"m 986 680 l 737 680 l 737 689 q 672 778 719 746 q 553 810 624 810 q 379 730 443 810 q 315 507 315 651 q 377 281 315 361 q 553 200 440 200 q 706 247 653 200 q 762 374 760 294 l 562 374 l 562 552 l 997 552 l 997 419 q 940 186 997 283 q 782 38 883 89 q 551 -14 682 -14 q 297 49 407 -14 q 127 228 188 112 q 66 504 66 344 q 130 785 66 669 q 304 963 195 902 q 548 1024 414 1024 q 663 1012 609 1024 q 765 977 718 1000 q 893 1103 806 1060 q 1080 1146 979 1146 q 1133 1143 1107 1146 q 1189 1132 1159 1139 l 1189 942 q 1156 946 1172 944 q 1124 948 1140 948 q 1056 941 1088 948 q 1005 913 1025 934 q 986 850 986 892 l 986 684 q 986 680 986 682 z "},"Ĝ":{"ha":1065,"x_min":66,"x_max":997,"o":"m 739 680 q 675 776 723 742 q 553 810 627 810 q 379 730 443 810 q 315 507 315 651 q 377 281 315 361 q 553 200 440 200 q 706 247 653 200 q 762 374 760 294 l 562 374 l 562 552 l 997 552 l 997 419 q 940 186 997 283 q 782 38 883 89 q 551 -14 682 -14 q 297 49 407 -14 q 127 228 188 112 q 66 504 66 344 q 130 785 66 669 q 304 963 195 902 q 548 1024 414 1024 q 760 980 665 1024 q 914 858 855 936 q 986 680 974 781 l 739 680 m 444 1100 l 242 1100 l 242 1106 l 456 1327 l 629 1327 l 842 1106 l 842 1100 l 640 1100 l 542 1214 l 444 1100 z "},"Ğ":{"ha":1065,"x_min":66,"x_max":997,"o":"m 739 680 q 675 776 723 742 q 553 810 627 810 q 379 730 443 810 q 315 507 315 651 q 377 281 315 361 q 553 200 440 200 q 706 247 653 200 q 762 374 760 294 l 562 374 l 562 552 l 997 552 l 997 419 q 940 186 997 283 q 782 38 883 89 q 551 -14 682 -14 q 297 49 407 -14 q 127 228 188 112 q 66 504 66 344 q 130 785 66 669 q 304 963 195 902 q 548 1024 414 1024 q 760 980 665 1024 q 914 858 855 936 q 986 680 974 781 l 739 680 m 641 1278 l 799 1278 q 730 1129 799 1186 q 542 1073 660 1073 q 354 1129 424 1073 q 286 1278 285 1186 l 443 1278 q 465 1219 442 1246 q 542 1193 488 1193 q 618 1219 595 1193 q 641 1278 640 1245 z "},"Ġ":{"ha":1065,"x_min":66,"x_max":997,"o":"m 739 680 q 675 776 723 742 q 553 810 627 810 q 379 730 443 810 q 315 507 315 651 q 377 281 315 361 q 553 200 440 200 q 706 247 653 200 q 762 374 760 294 l 562 374 l 562 552 l 997 552 l 997 419 q 940 186 997 283 q 782 38 883 89 q 551 -14 682 -14 q 297 49 407 -14 q 127 228 188 112 q 66 504 66 344 q 130 785 66 669 q 304 963 195 902 q 548 1024 414 1024 q 760 980 665 1024 q 914 858 855 936 q 986 680 974 781 l 739 680 m 542 1098 q 455 1132 491 1098 q 418 1214 418 1166 q 455 1295 418 1262 q 542 1329 491 1329 q 630 1295 593 1329 q 666 1214 666 1262 q 630 1132 666 1166 q 542 1098 593 1098 z "},"Ģ":{"ha":1065,"x_min":66,"x_max":997,"o":"m 739 680 q 675 776 723 742 q 553 810 627 810 q 379 730 443 810 q 315 507 315 651 q 377 281 315 361 q 553 200 440 200 q 706 247 653 200 q 762 374 760 294 l 562 374 l 562 552 l 997 552 l 997 419 q 940 186 997 283 q 782 38 883 89 q 551 -14 682 -14 q 297 49 407 -14 q 127 228 188 112 q 66 504 66 344 q 130 785 66 669 q 304 963 195 902 q 548 1024 414 1024 q 760 980 665 1024 q 914 858 855 936 q 986 680 974 781 l 739 680 m 369 -317 l 433 -77 l 652 -77 l 536 -317 l 369 -317 z "},"Ǧ":{"ha":1065,"x_min":66,"x_max":997,"o":"m 739 680 q 675 776 723 742 q 553 810 627 810 q 379 730 443 810 q 315 507 315 651 q 377 281 315 361 q 553 200 440 200 q 706 247 653 200 q 762 374 760 294 l 562 374 l 562 552 l 997 552 l 997 419 q 940 186 997 283 q 782 38 883 89 q 551 -14 682 -14 q 297 49 407 -14 q 127 228 188 112 q 66 504 66 344 q 130 785 66 669 q 304 963 195 902 q 548 1024 414 1024 q 760 980 665 1024 q 914 858 855 936 q 986 680 974 781 l 739 680 m 444 1328 l 542 1214 l 640 1328 l 842 1328 l 842 1322 l 629 1101 l 456 1101 l 242 1322 l 242 1328 l 444 1328 z "},"Ǵ":{"ha":1065,"x_min":66,"x_max":997,"o":"m 739 680 q 675 776 723 742 q 553 810 627 810 q 379 730 443 810 q 315 507 315 651 q 377 281 315 361 q 553 200 440 200 q 706 247 653 200 q 762 374 760 294 l 562 374 l 562 552 l 997 552 l 997 419 q 940 186 997 283 q 782 38 883 89 q 551 -14 682 -14 q 297 49 407 -14 q 127 228 188 112 q 66 504 66 344 q 130 785 66 669 q 304 963 195 902 q 548 1024 414 1024 q 760 980 665 1024 q 914 858 855 936 q 986 680 974 781 l 739 680 m 459 1106 l 559 1329 l 772 1329 l 623 1106 l 459 1106 z "},"Ḡ":{"ha":1065,"x_min":66,"x_max":997,"o":"m 739 680 q 675 776 723 742 q 553 810 627 810 q 379 730 443 810 q 315 507 315 651 q 377 281 315 361 q 553 200 440 200 q 706 247 653 200 q 762 374 760 294 l 562 374 l 562 552 l 997 552 l 997 419 q 940 186 997 283 q 782 38 883 89 q 551 -14 682 -14 q 297 49 407 -14 q 127 228 188 112 q 66 504 66 344 q 130 785 66 669 q 304 963 195 902 q 548 1024 414 1024 q 760 980 665 1024 q 914 858 855 936 q 986 680 974 781 l 739 680 m 786 1263 l 786 1143 l 299 1143 l 299 1263 l 786 1263 z "},"":{"ha":1073,"x_min":66,"x_max":1005,"o":"m 551 -14 q 298 49 407 -14 q 127 228 188 112 q 66 504 66 344 q 131 785 66 669 q 308 963 197 902 q 553 1024 419 1024 q 766 980 670 1024 q 923 859 862 937 q 996 680 984 782 l 750 680 q 683 776 734 742 q 558 810 631 810 q 381 730 448 810 q 315 507 315 651 q 378 281 315 361 q 553 200 441 200 q 708 248 654 200 q 764 374 762 295 l 562 374 l 562 552 l 1005 552 l 1005 0 l 845 0 l 834 113 l 828 113 q 711 19 779 52 q 551 -14 643 -14 z "},"":{"ha":1075,"x_min":66,"x_max":1046,"o":"m 1046 333 l 1046 264 l 1005 264 l 1005 0 l 845 0 l 834 113 l 828 113 q 711 19 779 52 q 551 -14 643 -14 q 298 49 407 -14 q 127 228 188 112 q 66 504 66 344 q 131 785 66 669 q 308 963 197 902 q 553 1024 419 1024 q 766 980 670 1024 q 923 859 862 937 q 996 680 984 782 l 750 680 q 683 776 734 742 q 558 810 631 810 q 381 730 448 810 q 315 507 315 651 q 378 281 315 361 q 553 200 441 200 q 655 217 612 200 q 724 264 698 234 l 562 264 l 562 333 l 759 333 q 764 374 763 353 l 562 374 l 562 552 l 1005 552 l 1005 333 l 1046 333 z "},"":{"ha":1187,"x_min":66,"x_max":1199,"o":"m 996 680 l 747 680 l 747 690 q 678 779 728 748 q 558 810 628 810 q 381 730 448 810 q 315 507 315 651 q 378 281 315 361 q 553 200 441 200 q 708 248 654 200 q 764 374 762 295 l 562 374 l 562 552 l 1005 552 l 1005 0 l 845 0 l 834 113 l 828 113 q 711 19 779 52 q 551 -14 643 -14 q 298 49 407 -14 q 127 228 188 112 q 66 504 66 344 q 131 785 66 669 q 308 963 197 902 q 553 1024 419 1024 q 775 976 674 1024 q 903 1103 816 1059 q 1090 1146 989 1146 q 1143 1143 1117 1146 q 1199 1132 1169 1139 l 1199 942 q 1166 946 1183 944 q 1133 948 1150 948 q 1067 941 1098 948 q 1016 913 1035 934 q 996 850 996 892 l 996 680 z "},"":{"ha":1073,"x_min":66,"x_max":1005,"o":"m 551 -14 q 298 49 407 -14 q 127 228 188 112 q 66 504 66 344 q 131 785 66 669 q 308 963 197 902 q 553 1024 419 1024 q 766 980 670 1024 q 923 859 862 937 q 996 680 984 782 l 750 680 q 683 776 734 742 q 558 810 631 810 q 381 730 448 810 q 315 507 315 651 q 378 281 315 361 q 553 200 441 200 q 708 248 654 200 q 764 374 762 295 l 562 374 l 562 552 l 1005 552 l 1005 0 l 845 0 l 834 113 l 828 113 q 711 19 779 52 q 551 -14 643 -14 m 444 1100 l 242 1100 l 242 1106 l 456 1327 l 629 1327 l 842 1106 l 842 1100 l 640 1100 l 542 1214 l 444 1100 z "},"":{"ha":1073,"x_min":66,"x_max":1005,"o":"m 551 -14 q 298 49 407 -14 q 127 228 188 112 q 66 504 66 344 q 131 785 66 669 q 308 963 197 902 q 553 1024 419 1024 q 766 980 670 1024 q 923 859 862 937 q 996 680 984 782 l 750 680 q 683 776 734 742 q 558 810 631 810 q 381 730 448 810 q 315 507 315 651 q 378 281 315 361 q 553 200 441 200 q 708 248 654 200 q 764 374 762 295 l 562 374 l 562 552 l 1005 552 l 1005 0 l 845 0 l 834 113 l 828 113 q 711 19 779 52 q 551 -14 643 -14 m 641 1278 l 799 1278 q 730 1129 799 1186 q 542 1073 660 1073 q 354 1129 424 1073 q 286 1278 285 1186 l 443 1278 q 465 1219 442 1246 q 542 1193 488 1193 q 618 1219 595 1193 q 641 1278 640 1245 z "},"":{"ha":1073,"x_min":66,"x_max":1005,"o":"m 551 -14 q 298 49 407 -14 q 127 228 188 112 q 66 504 66 344 q 131 785 66 669 q 308 963 197 902 q 553 1024 419 1024 q 766 980 670 1024 q 923 859 862 937 q 996 680 984 782 l 750 680 q 683 776 734 742 q 558 810 631 810 q 381 730 448 810 q 315 507 315 651 q 378 281 315 361 q 553 200 441 200 q 708 248 654 200 q 764 374 762 295 l 562 374 l 562 552 l 1005 552 l 1005 0 l 845 0 l 834 113 l 828 113 q 711 19 779 52 q 551 -14 643 -14 m 542 1098 q 455 1132 491 1098 q 418 1214 418 1166 q 455 1295 418 1262 q 542 1329 491 1329 q 630 1295 593 1329 q 666 1214 666 1262 q 630 1132 666 1166 q 542 1098 593 1098 z "},"":{"ha":1073,"x_min":66,"x_max":1005,"o":"m 551 -14 q 298 49 407 -14 q 127 228 188 112 q 66 504 66 344 q 131 785 66 669 q 308 963 197 902 q 553 1024 419 1024 q 766 980 670 1024 q 923 859 862 937 q 996 680 984 782 l 750 680 q 683 776 734 742 q 558 810 631 810 q 381 730 448 810 q 315 507 315 651 q 378 281 315 361 q 553 200 441 200 q 708 248 654 200 q 764 374 762 295 l 562 374 l 562 552 l 1005 552 l 1005 0 l 845 0 l 834 113 l 828 113 q 711 19 779 52 q 551 -14 643 -14 m 369 -317 l 433 -77 l 652 -77 l 536 -317 l 369 -317 z "},"":{"ha":1073,"x_min":66,"x_max":1005,"o":"m 551 -14 q 298 49 407 -14 q 127 228 188 112 q 66 504 66 344 q 131 785 66 669 q 308 963 197 902 q 553 1024 419 1024 q 766 980 670 1024 q 923 859 862 937 q 996 680 984 782 l 750 680 q 683 776 734 742 q 558 810 631 810 q 381 730 448 810 q 315 507 315 651 q 378 281 315 361 q 553 200 441 200 q 708 248 654 200 q 764 374 762 295 l 562 374 l 562 552 l 1005 552 l 1005 0 l 845 0 l 834 113 l 828 113 q 711 19 779 52 q 551 -14 643 -14 m 444 1328 l 542 1214 l 640 1328 l 842 1328 l 842 1322 l 629 1101 l 456 1101 l 242 1322 l 242 1328 l 444 1328 z "},"":{"ha":1073,"x_min":66,"x_max":1005,"o":"m 551 -14 q 298 49 407 -14 q 127 228 188 112 q 66 504 66 344 q 131 785 66 669 q 308 963 197 902 q 553 1024 419 1024 q 766 980 670 1024 q 923 859 862 937 q 996 680 984 782 l 750 680 q 683 776 734 742 q 558 810 631 810 q 381 730 448 810 q 315 507 315 651 q 378 281 315 361 q 553 200 441 200 q 708 248 654 200 q 764 374 762 295 l 562 374 l 562 552 l 1005 552 l 1005 0 l 845 0 l 834 113 l 828 113 q 711 19 779 52 q 551 -14 643 -14 m 459 1106 l 559 1329 l 772 1329 l 623 1106 l 459 1106 z "},"":{"ha":1073,"x_min":66,"x_max":1005,"o":"m 551 -14 q 298 49 407 -14 q 127 228 188 112 q 66 504 66 344 q 131 785 66 669 q 308 963 197 902 q 553 1024 419 1024 q 766 980 670 1024 q 923 859 862 937 q 996 680 984 782 l 750 680 q 683 776 734 742 q 558 810 631 810 q 381 730 448 810 q 315 507 315 651 q 378 281 315 361 q 553 200 441 200 q 708 248 654 200 q 764 374 762 295 l 562 374 l 562 552 l 1005 552 l 1005 0 l 845 0 l 834 113 l 828 113 q 711 19 779 52 q 551 -14 643 -14 m 786 1263 l 786 1143 l 299 1143 l 299 1263 l 786 1263 z "},"H":{"ha":1039,"x_min":76,"x_max":962,"o":"m 76 0 l 76 1010 l 321 1010 l 321 605 l 719 605 l 719 1010 l 962 1010 l 962 0 l 719 0 l 719 406 l 321 406 l 321 0 l 76 0 z "},"Ḩ":{"ha":1039,"x_min":76,"x_max":962,"o":"m 76 0 l 76 1010 l 321 1010 l 321 605 l 719 605 l 719 1010 l 962 1010 l 962 0 l 719 0 l 719 406 l 321 406 l 321 0 l 76 0 m 148 3 l 245 3 l 237 -41 q 324 -80 291 -49 q 357 -162 356 -112 q 283 -283 357 -238 q 78 -328 210 -328 l 77 -229 q 182 -214 145 -229 q 220 -167 219 -198 q 125 -98 223 -111 l 148 3 z "},"Ĥ":{"ha":1039,"x_min":76,"x_max":962,"o":"m 76 0 l 76 1010 l 321 1010 l 321 605 l 719 605 l 719 1010 l 962 1010 l 962 0 l 719 0 l 719 406 l 321 406 l 321 0 l 76 0 m 423 1100 l 220 1100 l 220 1107 l 434 1328 l 607 1328 l 820 1107 l 820 1100 l 618 1100 l 520 1215 l 423 1100 z "},"Ȟ":{"ha":1039,"x_min":76,"x_max":962,"o":"m 76 0 l 76 1010 l 321 1010 l 321 605 l 719 605 l 719 1010 l 962 1010 l 962 0 l 719 0 l 719 406 l 321 406 l 321 0 l 76 0 m 423 1329 l 520 1214 l 618 1329 l 820 1329 l 820 1322 l 607 1101 l 434 1101 l 220 1322 l 220 1329 l 423 1329 z "},"Ḣ":{"ha":1039,"x_min":76,"x_max":962,"o":"m 76 0 l 76 1010 l 321 1010 l 321 605 l 719 605 l 719 1010 l 962 1010 l 962 0 l 719 0 l 719 406 l 321 406 l 321 0 l 76 0 m 520 1099 q 433 1133 470 1099 q 397 1214 397 1166 q 433 1296 397 1262 q 520 1329 470 1329 q 608 1296 572 1329 q 644 1214 644 1262 q 608 1133 644 1166 q 520 1099 572 1099 z "},"Ḥ":{"ha":1039,"x_min":76,"x_max":962,"o":"m 76 0 l 76 1010 l 321 1010 l 321 605 l 719 605 l 719 1010 l 962 1010 l 962 0 l 719 0 l 719 406 l 321 406 l 321 0 l 76 0 m 519 -295 q 432 -261 469 -295 q 396 -180 396 -227 q 432 -98 396 -132 q 519 -65 469 -65 q 607 -98 571 -65 q 643 -180 643 -132 q 607 -261 643 -227 q 519 -295 571 -295 z "},"Ḧ":{"ha":1039,"x_min":76,"x_max":962,"o":"m 76 0 l 76 1010 l 321 1010 l 321 605 l 719 605 l 719 1010 l 962 1010 l 962 0 l 719 0 l 719 406 l 321 406 l 321 0 l 76 0 m 367 1107 q 288 1139 321 1107 q 255 1214 255 1170 q 288 1290 255 1259 q 367 1321 321 1321 q 446 1290 413 1321 q 478 1214 478 1259 q 446 1139 478 1170 q 367 1107 413 1107 m 675 1107 q 596 1139 629 1107 q 563 1214 563 1170 q 596 1290 563 1259 q 675 1321 629 1321 q 753 1290 721 1321 q 786 1214 786 1259 q 753 1139 786 1170 q 675 1107 721 1107 z "},"Ḫ":{"ha":1039,"x_min":76,"x_max":962,"o":"m 76 0 l 76 1010 l 321 1010 l 321 605 l 719 605 l 719 1010 l 962 1010 l 962 0 l 719 0 l 719 406 l 321 406 l 321 0 l 76 0 m 620 -53 l 778 -53 q 708 -204 777 -144 q 519 -264 639 -264 q 334 -206 404 -264 q 264 -53 263 -147 l 421 -53 q 443 -112 421 -85 q 520 -139 466 -139 q 597 -111 573 -139 q 620 -53 620 -84 z "},"Ħ":{"ha":1141,"x_min":43,"x_max":1097,"o":"m 1097 847 l 1097 723 l 1013 723 l 1013 0 l 769 0 l 769 406 l 371 406 l 371 0 l 127 0 l 127 723 l 43 723 l 43 847 l 127 847 l 127 1010 l 371 1010 l 371 847 l 769 847 l 769 1010 l 1013 1010 l 1013 847 l 1097 847 m 769 723 l 371 723 l 371 605 l 769 605 l 769 723 z "},"Ӈ":{"ha":1039,"x_min":76,"x_max":962,"o":"m 76 0 l 76 1010 l 321 1010 l 321 605 l 719 605 l 719 1010 l 962 1010 l 962 -38 q 957 -97 962 -63 q 934 -168 952 -132 q 877 -235 916 -204 q 772 -286 838 -266 q 603 -305 706 -305 q 552 -302 578 -305 q 522 -299 527 -299 l 522 -105 q 555 -107 535 -106 q 589 -109 576 -109 q 650 -102 620 -109 q 699 -77 680 -96 q 719 -22 719 -58 l 719 406 l 321 406 l 321 0 l 76 0 z "},"Ң":{"ha":1226,"x_min":76,"x_max":1193,"o":"m 76 0 l 76 1010 l 321 1010 l 321 605 l 719 605 l 719 1010 l 962 1010 l 962 0 l 719 0 l 719 406 l 321 406 l 321 0 l 76 0 m 1193 157 l 1193 -243 l 960 -243 l 960 157 l 1193 157 z "},"Ӊ":{"ha":1180,"x_min":76,"x_max":1148,"o":"m 76 0 l 76 1010 l 321 1010 l 321 605 l 719 605 l 719 1010 l 962 1010 l 962 0 l 719 0 l 719 406 l 321 406 l 321 0 l 76 0 m 1147 127 l 1147 1 q 1107 -167 1148 -85 q 1003 -298 1066 -249 l 887 -239 q 895 -225 891 -232 q 904 -210 899 -218 q 944 -128 925 -173 q 962 -15 963 -83 l 962 127 l 1147 127 z "},"Ҥ":{"ha":1407,"x_min":76,"x_max":1364,"o":"m 1364 1010 l 1364 812 l 962 812 l 962 0 l 719 0 l 719 406 l 321 406 l 321 0 l 76 0 l 76 1010 l 321 1010 l 321 605 l 719 605 l 719 1010 l 1364 1010 z "},"Ƕ":{"ha":1564,"x_min":76,"x_max":1488,"o":"m 1104 -14 q 899 29 985 -14 q 766 153 813 73 q 719 346 719 234 l 719 406 l 321 406 l 321 0 l 76 0 l 76 1010 l 321 1010 l 321 605 l 719 605 l 719 1010 l 962 1010 l 962 346 q 1000 229 962 270 q 1104 188 1038 188 q 1207 229 1170 188 q 1244 346 1244 270 l 1244 731 l 1488 731 l 1488 346 q 1384 82 1488 177 q 1104 -14 1281 -14 z "},"Η":{"ha":1039,"x_min":76,"x_max":962,"o":"m 76 0 l 76 1010 l 321 1010 l 321 605 l 719 605 l 719 1010 l 962 1010 l 962 0 l 719 0 l 719 406 l 321 406 l 321 0 l 76 0 z "},"Ή":{"ha":1321,"x_min":81,"x_max":1244,"o":"m 358 0 l 358 1010 l 602 1010 l 602 605 l 1000 605 l 1000 1010 l 1244 1010 l 1244 0 l 1000 0 l 1000 406 l 602 406 l 602 0 l 358 0 m 81 850 l 140 1086 l 349 1086 l 219 850 l 81 850 z "},"Ἠ":{"ha":1281,"x_min":72,"x_max":1204,"o":"m 319 0 l 319 1010 l 563 1010 l 563 605 l 961 605 l 961 1010 l 1204 1010 l 1204 0 l 961 0 l 961 406 l 563 406 l 563 0 l 319 0 m 243 1010 l 243 942 q 211 832 243 877 q 131 765 178 786 l 72 834 q 114 880 104 852 q 125 946 125 909 l 125 1010 l 243 1010 z "},"Ἡ":{"ha":1260,"x_min":78,"x_max":1184,"o":"m 298 0 l 298 1010 l 542 1010 l 542 605 l 940 605 l 940 1010 l 1184 1010 l 1184 0 l 940 0 l 940 406 l 542 406 l 542 0 l 298 0 m 78 942 l 78 1010 l 197 1010 l 197 946 q 207 884 198 915 q 249 834 217 853 l 190 765 q 111 832 144 786 q 78 942 79 877 z "},"Ἢ":{"ha":1520,"x_min":76,"x_max":1444,"o":"m 558 0 l 558 1010 l 802 1010 l 802 605 l 1200 605 l 1200 1010 l 1444 1010 l 1444 0 l 1200 0 l 1200 406 l 802 406 l 802 0 l 558 0 m 262 1010 l 262 955 q 227 847 262 896 q 131 765 193 798 l 76 807 q 119 874 105 838 q 133 959 134 911 l 133 1010 l 262 1010 m 522 791 l 522 781 l 455 781 l 293 996 l 293 1010 l 441 1010 l 522 791 z "},"Ἣ":{"ha":1483,"x_min":73,"x_max":1407,"o":"m 521 0 l 521 1010 l 765 1010 l 765 605 l 1163 605 l 1163 1010 l 1407 1010 l 1407 0 l 1163 0 l 1163 406 l 765 406 l 765 0 l 521 0 m 73 942 l 73 1010 l 194 1010 l 194 946 q 203 884 194 915 q 248 834 212 853 l 188 765 q 106 832 139 786 q 73 942 73 877 m 480 798 l 480 780 l 414 780 l 252 996 l 252 1010 l 402 1010 l 480 798 z "},"Ἤ":{"ha":1505,"x_min":79,"x_max":1428,"o":"m 543 0 l 543 1010 l 787 1010 l 787 605 l 1185 605 l 1185 1010 l 1428 1010 l 1428 0 l 1185 0 l 1185 406 l 787 406 l 787 0 l 543 0 m 254 1010 l 254 942 q 220 832 254 878 q 139 765 187 786 l 79 834 q 123 884 114 853 q 133 946 133 915 l 133 1010 l 254 1010 m 278 780 l 278 798 l 358 1010 l 507 1010 l 507 996 l 344 780 l 278 780 z "},"Ἥ":{"ha":1522,"x_min":78,"x_max":1446,"o":"m 560 0 l 560 1010 l 804 1010 l 804 605 l 1202 605 l 1202 1010 l 1446 1010 l 1446 0 l 1202 0 l 1202 406 l 804 406 l 804 0 l 560 0 m 190 765 q 112 830 146 785 q 78 942 78 875 l 78 1010 l 197 1010 l 197 946 q 208 880 198 909 q 250 834 218 852 l 190 765 m 292 780 l 292 798 l 369 1010 l 519 1010 l 519 996 l 356 780 l 292 780 z "},"Ἦ":{"ha":1404,"x_min":74,"x_max":1327,"o":"m 441 0 l 441 1010 l 686 1010 l 686 605 l 1084 605 l 1084 1010 l 1327 1010 l 1327 0 l 1084 0 l 1084 406 l 686 406 l 686 0 l 441 0 m 400 1181 l 493 1152 q 461 1067 493 1103 q 379 1030 429 1030 q 316 1041 342 1030 q 266 1063 290 1052 q 212 1074 242 1074 q 180 1057 192 1074 q 168 1015 168 1039 l 74 1042 q 106 1129 74 1091 q 188 1167 138 1167 q 245 1156 218 1167 q 300 1134 273 1145 q 355 1124 327 1124 q 387 1140 374 1124 q 400 1181 400 1157 m 352 995 l 352 938 q 320 846 352 883 q 244 793 289 810 l 189 849 q 230 890 221 863 q 238 942 238 916 l 238 995 l 352 995 z "},"Ἧ":{"ha":1427,"x_min":74,"x_max":1350,"o":"m 465 0 l 465 1010 l 709 1010 l 709 605 l 1107 605 l 1107 1010 l 1350 1010 l 1350 0 l 1107 0 l 1107 406 l 709 406 l 709 0 l 465 0 m 400 1181 l 493 1152 q 461 1067 493 1103 q 379 1030 429 1030 q 316 1041 342 1030 q 266 1063 290 1052 q 212 1074 242 1074 q 180 1057 192 1074 q 168 1015 168 1039 l 74 1042 q 106 1129 74 1091 q 188 1167 138 1167 q 245 1156 218 1167 q 300 1134 273 1145 q 355 1124 327 1124 q 387 1140 374 1124 q 400 1181 400 1157 m 238 938 l 238 995 l 352 995 l 352 942 q 360 890 352 916 q 401 849 368 863 l 344 793 q 271 845 304 809 q 238 938 238 880 z "},"Ὴ":{"ha":1309,"x_min":76,"x_max":1233,"o":"m 347 0 l 347 1010 l 591 1010 l 591 605 l 989 605 l 989 1010 l 1233 1010 l 1233 0 l 989 0 l 989 406 l 591 406 l 591 0 l 347 0 m 239 779 l 76 996 l 76 1010 l 225 1010 l 302 800 l 302 779 l 239 779 z "},"Ή":{"ha":1301,"x_min":67,"x_max":1225,"o":"m 339 0 l 339 1010 l 583 1010 l 583 605 l 981 605 l 981 1010 l 1225 1010 l 1225 0 l 981 0 l 981 406 l 583 406 l 583 0 l 339 0 m 67 852 l 67 873 l 145 1083 l 348 1083 l 348 1069 l 185 852 l 67 852 z "},"Н":{"ha":1039,"x_min":76,"x_max":962,"o":"m 76 0 l 76 1010 l 321 1010 l 321 605 l 719 605 l 719 1010 l 962 1010 l 962 0 l 719 0 l 719 406 l 321 406 l 321 0 l 76 0 z "},"ᾘ":{"ha":1256,"x_min":46,"x_max":1179,"o":"m 293 0 l 293 1010 l 537 1010 l 537 605 l 935 605 l 935 1010 l 1179 1010 l 1179 0 l 935 0 l 935 406 l 537 406 l 537 0 l 293 0 m 805 -335 q 711 -305 751 -335 q 672 -208 672 -275 l 672 -67 l 804 -67 l 804 -207 q 812 -234 804 -225 q 843 -243 820 -243 q 861 -242 854 -243 q 874 -241 869 -241 l 874 -326 q 842 -333 859 -330 q 805 -335 826 -335 m 218 1010 l 218 942 q 185 832 218 877 q 106 765 152 786 l 46 834 q 89 880 78 852 q 100 946 100 909 l 100 1010 l 218 1010 z "},"ᾙ":{"ha":1260,"x_min":78,"x_max":1184,"o":"m 298 0 l 298 1010 l 542 1010 l 542 605 l 940 605 l 940 1010 l 1184 1010 l 1184 0 l 940 0 l 940 406 l 542 406 l 542 0 l 298 0 m 810 -335 q 716 -305 756 -335 q 677 -208 677 -275 l 677 -67 l 809 -67 l 809 -207 q 817 -234 809 -225 q 848 -243 825 -243 q 866 -242 859 -243 q 879 -241 873 -241 l 879 -326 q 847 -333 864 -330 q 810 -335 831 -335 m 78 942 l 78 1010 l 197 1010 l 197 946 q 207 884 198 915 q 249 834 217 853 l 190 765 q 111 832 144 786 q 78 942 79 877 z "},"ᾚ":{"ha":1520,"x_min":76,"x_max":1444,"o":"m 558 0 l 558 1010 l 802 1010 l 802 605 l 1200 605 l 1200 1010 l 1444 1010 l 1444 0 l 1200 0 l 1200 406 l 802 406 l 802 0 l 558 0 m 1070 -335 q 976 -305 1016 -335 q 937 -208 937 -275 l 937 -67 l 1069 -67 l 1069 -207 q 1077 -234 1069 -225 q 1108 -243 1085 -243 q 1126 -242 1119 -243 q 1139 -241 1133 -241 l 1139 -326 q 1107 -333 1124 -330 q 1070 -335 1091 -335 m 262 1010 l 262 955 q 227 847 262 896 q 131 765 193 798 l 76 807 q 119 874 105 838 q 133 959 134 911 l 133 1010 l 262 1010 m 522 791 l 522 781 l 455 781 l 293 996 l 293 1010 l 441 1010 l 522 791 z "},"ᾛ":{"ha":1483,"x_min":73,"x_max":1407,"o":"m 521 0 l 521 1010 l 765 1010 l 765 605 l 1163 605 l 1163 1010 l 1407 1010 l 1407 0 l 1163 0 l 1163 406 l 765 406 l 765 0 l 521 0 m 1033 -335 q 939 -305 979 -335 q 900 -208 900 -275 l 900 -67 l 1032 -67 l 1032 -207 q 1040 -234 1032 -225 q 1071 -243 1048 -243 q 1089 -242 1082 -243 q 1102 -241 1096 -241 l 1102 -326 q 1070 -333 1087 -330 q 1033 -335 1054 -335 m 73 942 l 73 1010 l 194 1010 l 194 946 q 203 884 194 915 q 248 834 212 853 l 188 765 q 106 832 139 786 q 73 942 73 877 m 480 798 l 480 780 l 414 780 l 252 996 l 252 1010 l 402 1010 l 480 798 z "},"ᾜ":{"ha":1505,"x_min":79,"x_max":1428,"o":"m 543 0 l 543 1010 l 787 1010 l 787 605 l 1185 605 l 1185 1010 l 1428 1010 l 1428 0 l 1185 0 l 1185 406 l 787 406 l 787 0 l 543 0 m 1055 -335 q 961 -305 1000 -335 q 921 -208 921 -275 l 921 -67 l 1054 -67 l 1054 -207 q 1062 -234 1054 -225 q 1092 -243 1070 -243 q 1111 -242 1104 -243 q 1124 -241 1118 -241 l 1124 -326 q 1092 -333 1108 -330 q 1055 -335 1076 -335 m 254 1010 l 254 942 q 220 832 254 878 q 139 765 187 786 l 79 834 q 123 884 114 853 q 133 946 133 915 l 133 1010 l 254 1010 m 278 780 l 278 798 l 358 1010 l 507 1010 l 507 996 l 344 780 l 278 780 z "},"ᾝ":{"ha":1522,"x_min":78,"x_max":1446,"o":"m 560 0 l 560 1010 l 804 1010 l 804 605 l 1202 605 l 1202 1010 l 1446 1010 l 1446 0 l 1202 0 l 1202 406 l 804 406 l 804 0 l 560 0 m 1072 -335 q 978 -305 1017 -335 q 939 -208 939 -275 l 939 -67 l 1071 -67 l 1071 -207 q 1079 -234 1071 -225 q 1110 -243 1087 -243 q 1128 -242 1121 -243 q 1141 -241 1135 -241 l 1141 -326 q 1109 -333 1126 -330 q 1072 -335 1093 -335 m 190 765 q 112 830 146 785 q 78 942 78 875 l 78 1010 l 197 1010 l 197 946 q 208 880 198 909 q 250 834 218 852 l 190 765 m 292 780 l 292 798 l 369 1010 l 519 1010 l 519 996 l 356 780 l 292 780 z "},"ᾞ":{"ha":1404,"x_min":74,"x_max":1327,"o":"m 441 0 l 441 1010 l 686 1010 l 686 605 l 1084 605 l 1084 1010 l 1327 1010 l 1327 0 l 1084 0 l 1084 406 l 686 406 l 686 0 l 441 0 m 954 -335 q 860 -305 899 -335 q 820 -208 820 -275 l 820 -67 l 953 -67 l 953 -207 q 961 -234 953 -225 q 991 -243 969 -243 q 1010 -242 1003 -243 q 1022 -241 1017 -241 l 1022 -326 q 991 -333 1007 -330 q 954 -335 975 -335 m 400 1181 l 493 1152 q 461 1067 493 1103 q 379 1030 429 1030 q 316 1041 342 1030 q 266 1063 290 1052 q 212 1074 242 1074 q 180 1057 192 1074 q 168 1015 168 1039 l 74 1042 q 106 1129 74 1091 q 188 1167 138 1167 q 245 1156 218 1167 q 300 1134 273 1145 q 355 1124 327 1124 q 387 1140 374 1124 q 400 1181 400 1157 m 352 995 l 352 938 q 320 846 352 883 q 244 793 289 810 l 189 849 q 230 890 221 863 q 238 942 238 916 l 238 995 l 352 995 z "},"ᾟ":{"ha":1427,"x_min":74,"x_max":1350,"o":"m 465 0 l 465 1010 l 709 1010 l 709 605 l 1107 605 l 1107 1010 l 1350 1010 l 1350 0 l 1107 0 l 1107 406 l 709 406 l 709 0 l 465 0 m 977 -335 q 883 -305 922 -335 q 843 -208 843 -275 l 843 -67 l 976 -67 l 976 -207 q 984 -234 976 -225 q 1015 -243 992 -243 q 1033 -242 1026 -243 q 1046 -241 1040 -241 l 1046 -326 q 1014 -333 1030 -330 q 977 -335 998 -335 m 400 1181 l 493 1152 q 461 1067 493 1103 q 379 1030 429 1030 q 316 1041 342 1030 q 266 1063 290 1052 q 212 1074 242 1074 q 180 1057 192 1074 q 168 1015 168 1039 l 74 1042 q 106 1129 74 1091 q 188 1167 138 1167 q 245 1156 218 1167 q 300 1134 273 1145 q 355 1124 327 1124 q 387 1140 374 1124 q 400 1181 400 1157 m 238 938 l 238 995 l 352 995 l 352 942 q 360 890 352 916 q 401 849 368 863 l 344 793 q 271 845 304 809 q 238 938 238 880 z "},"ῌ":{"ha":1039,"x_min":76,"x_max":962,"o":"m 76 0 l 76 1010 l 321 1010 l 321 605 l 719 605 l 719 1010 l 962 1010 l 962 0 l 719 0 l 719 406 l 321 406 l 321 0 l 76 0 m 589 -335 q 495 -305 534 -335 q 455 -208 455 -275 l 455 -67 l 588 -67 l 588 -207 q 596 -234 588 -225 q 626 -243 604 -243 q 645 -242 638 -243 q 657 -241 652 -241 l 657 -326 q 626 -333 642 -330 q 589 -335 610 -335 z "},"I":{"ha":397,"x_min":76,"x_max":321,"o":"m 321 1010 l 321 0 l 76 0 l 76 1010 l 321 1010 z "},"Ï":{"ha":397,"x_min":-66,"x_max":465,"o":"m 321 1010 l 321 0 l 76 0 l 76 1010 l 321 1010 m 46 1106 q -33 1138 0 1106 q -66 1214 -66 1170 q -33 1290 -66 1259 q 46 1321 0 1321 q 125 1290 92 1321 q 157 1214 157 1259 q 125 1138 157 1170 q 46 1106 92 1106 m 354 1106 q 275 1138 308 1106 q 242 1214 242 1170 q 275 1290 242 1259 q 354 1321 308 1321 q 432 1290 400 1321 q 465 1214 465 1259 q 432 1138 465 1170 q 354 1106 400 1106 z "},"Ḯ":{"ha":397,"x_min":-53,"x_max":450,"o":"m 321 1010 l 321 0 l 76 0 l 76 1010 l 321 1010 m 109 1334 l 242 1516 l 448 1516 l 276 1334 l 109 1334 m 345 1076 q 270 1105 301 1076 q 239 1175 239 1134 q 270 1245 239 1216 q 345 1273 301 1273 q 419 1245 389 1273 q 450 1175 450 1216 q 419 1105 450 1134 q 345 1076 389 1076 m 53 1076 q -22 1105 9 1076 q -53 1175 -53 1134 q -22 1245 -53 1216 q 53 1273 9 1273 q 127 1245 97 1273 q 158 1175 158 1216 q 127 1105 158 1134 q 53 1076 97 1076 z "},"Ɨ":{"ha":397,"x_min":-59,"x_max":453,"o":"m 321 1010 l 321 0 l 76 0 l 76 1010 l 321 1010 m -59 470 l -59 604 l 453 604 l 453 470 l -59 470 z "},"Ḭ":{"ha":397,"x_min":-43,"x_max":483,"o":"m 321 1010 l 321 0 l 76 0 l 76 1010 l 321 1010 m 82 -278 l -43 -277 q 4 -125 -43 -177 q 121 -73 52 -74 q 191 -89 163 -73 q 241 -121 219 -105 q 273 -142 257 -133 q 304 -151 288 -151 q 345 -130 332 -150 q 360 -74 359 -109 l 483 -76 q 435 -227 482 -175 q 319 -280 387 -279 q 248 -265 276 -280 q 199 -233 220 -249 q 168 -212 183 -221 q 136 -203 154 -203 q 97 -222 112 -203 q 82 -278 82 -242 z "},"Ì":{"ha":397,"x_min":-31,"x_max":321,"o":"m 321 1010 l 321 0 l 76 0 l 76 1010 l 321 1010 m 118 1106 l -31 1329 l 182 1329 l 283 1106 l 118 1106 z "},"Í":{"ha":397,"x_min":76,"x_max":429,"o":"m 321 1010 l 321 0 l 76 0 l 76 1010 l 321 1010 m 116 1106 l 216 1329 l 429 1329 l 280 1106 l 116 1106 z "},"Î":{"ha":397,"x_min":-101,"x_max":499,"o":"m 321 1010 l 321 0 l 76 0 l 76 1010 l 321 1010 m 102 1100 l -101 1100 l -101 1106 l 113 1327 l 286 1327 l 499 1106 l 499 1100 l 297 1100 l 199 1214 l 102 1100 z "},"Ĩ":{"ha":630,"x_min":51,"x_max":578,"o":"m 436 1010 l 436 0 l 191 0 l 191 1010 l 436 1010 m 177 1104 l 51 1105 q 99 1256 51 1205 q 215 1308 146 1308 q 285 1292 257 1308 q 335 1260 313 1277 q 367 1239 352 1248 q 398 1231 382 1231 q 440 1252 426 1231 q 454 1307 453 1272 l 578 1306 q 529 1154 576 1206 q 413 1102 481 1102 q 342 1117 370 1101 q 293 1149 315 1132 q 263 1170 277 1161 q 230 1179 248 1179 q 191 1159 206 1179 q 177 1104 177 1140 z "},"Ī":{"ha":397,"x_min":-44,"x_max":442,"o":"m 321 1010 l 321 0 l 76 0 l 76 1010 l 321 1010 m 442 1263 l 442 1143 l -44 1143 l -44 1263 l 442 1263 z "},"Ĭ":{"ha":397,"x_min":-58,"x_max":457,"o":"m 321 1010 l 321 0 l 76 0 l 76 1010 l 321 1010 m 298 1278 l 457 1278 q 387 1129 456 1186 q 199 1073 318 1073 q 12 1129 81 1073 q -57 1278 -58 1186 l 100 1278 q 122 1219 100 1246 q 199 1193 145 1193 q 275 1219 252 1193 q 298 1278 297 1245 z "},"Į":{"ha":397,"x_min":39,"x_max":338,"o":"m 321 1010 l 321 0 l 76 0 l 76 1010 l 321 1010 m 223 -279 q 110 -245 156 -279 q 50 -148 65 -211 q 45 -65 39 -107 q 72 12 51 -22 q 130 62 94 46 l 320 0 q 246 -39 273 -18 q 218 -93 218 -61 q 265 -144 218 -144 q 291 -140 280 -144 q 312 -134 302 -136 l 338 -249 q 291 -269 320 -259 q 223 -279 262 -279 z "},"İ":{"ha":397,"x_min":75,"x_max":323,"o":"m 321 1010 l 321 0 l 76 0 l 76 1010 l 321 1010 m 199 1098 q 112 1132 148 1098 q 75 1214 75 1166 q 112 1295 75 1262 q 199 1329 148 1329 q 287 1295 251 1329 q 323 1214 323 1262 q 287 1132 323 1166 q 199 1098 251 1098 z "},"Ǐ":{"ha":397,"x_min":-101,"x_max":499,"o":"m 321 1010 l 321 0 l 76 0 l 76 1010 l 321 1010 m 102 1328 l 199 1214 l 297 1328 l 499 1328 l 499 1322 l 286 1101 l 113 1101 l -101 1322 l -101 1328 l 102 1328 z "},"Ȉ":{"ha":397,"x_min":-124,"x_max":393,"o":"m 321 1010 l 321 0 l 76 0 l 76 1010 l 321 1010 m 141 1106 l -35 1152 l -124 1329 l 86 1283 l 141 1106 m 393 1106 l 229 1152 l 182 1329 l 373 1283 l 393 1106 z "},"Ȋ":{"ha":397,"x_min":-60,"x_max":456,"o":"m 321 1010 l 321 0 l 76 0 l 76 1010 l 321 1010 m -60 1130 q 9 1283 -60 1223 q 198 1342 79 1342 q 386 1283 316 1342 q 456 1130 456 1223 l 297 1130 q 274 1189 296 1163 q 198 1215 251 1215 q 121 1189 144 1215 q 99 1130 99 1163 l -60 1130 z "},"Ỉ":{"ha":397,"x_min":76,"x_max":392,"o":"m 321 1010 l 321 0 l 76 0 l 76 1010 l 321 1010 m 285 1121 l 109 1121 l 96 1203 q 170 1217 148 1205 q 192 1246 192 1229 q 165 1281 192 1273 q 96 1290 138 1290 l 102 1392 q 318 1356 244 1392 q 391 1257 392 1321 q 359 1191 392 1213 q 285 1162 326 1168 l 285 1121 z "},"Ị":{"ha":397,"x_min":74,"x_max":322,"o":"m 321 1010 l 321 0 l 76 0 l 76 1010 l 321 1010 m 198 -295 q 110 -261 147 -295 q 74 -180 74 -227 q 110 -98 74 -132 q 198 -65 147 -65 q 285 -98 249 -65 q 322 -180 322 -132 q 285 -261 322 -227 q 198 -295 249 -295 z "},"Ι":{"ha":397,"x_min":76,"x_max":321,"o":"m 321 1010 l 321 0 l 76 0 l 76 1010 l 321 1010 z "},"Ί":{"ha":575,"x_min":1,"x_max":499,"o":"m 499 1010 l 499 0 l 255 0 l 255 1010 l 499 1010 m 1 850 l 60 1086 l 269 1086 l 139 850 l 1 850 z "},"Ϊ":{"ha":397,"x_min":-66,"x_max":465,"o":"m 321 1010 l 321 0 l 76 0 l 76 1010 l 321 1010 m 46 1106 q -33 1138 0 1106 q -66 1214 -66 1170 q -33 1290 -66 1259 q 46 1321 0 1321 q 125 1290 92 1321 q 157 1214 157 1259 q 125 1138 157 1170 q 46 1106 92 1106 m 354 1106 q 275 1138 308 1106 q 242 1214 242 1170 q 275 1290 242 1259 q 354 1321 308 1321 q 432 1290 400 1321 q 465 1214 465 1259 q 432 1138 465 1170 q 354 1106 400 1106 z "},"Ἰ":{"ha":611,"x_min":72,"x_max":539,"o":"m 539 1010 l 539 0 l 295 0 l 295 1010 l 539 1010 m 243 1010 l 243 942 q 211 832 243 877 q 131 765 178 786 l 72 834 q 114 880 104 852 q 125 946 125 909 l 125 1010 l 243 1010 z "},"Ἱ":{"ha":590,"x_min":78,"x_max":518,"o":"m 518 1010 l 518 0 l 274 0 l 274 1010 l 518 1010 m 78 942 l 78 1010 l 197 1010 l 197 946 q 207 884 198 915 q 249 834 217 853 l 190 765 q 111 832 144 786 q 78 942 79 877 z "},"Ἲ":{"ha":850,"x_min":76,"x_max":778,"o":"m 778 1010 l 778 0 l 534 0 l 534 1010 l 778 1010 m 262 1010 l 262 955 q 227 847 262 896 q 131 765 193 798 l 76 807 q 119 874 105 838 q 133 959 134 911 l 133 1010 l 262 1010 m 522 791 l 522 781 l 455 781 l 293 996 l 293 1010 l 441 1010 l 522 791 z "},"Ἳ":{"ha":813,"x_min":73,"x_max":741,"o":"m 741 1010 l 741 0 l 497 0 l 497 1010 l 741 1010 m 73 942 l 73 1010 l 194 1010 l 194 946 q 203 884 194 915 q 248 834 212 853 l 188 765 q 106 832 139 786 q 73 942 73 877 m 480 798 l 480 780 l 414 780 l 252 996 l 252 1010 l 402 1010 l 480 798 z "},"Ἴ":{"ha":835,"x_min":79,"x_max":763,"o":"m 763 1010 l 763 0 l 519 0 l 519 1010 l 763 1010 m 254 1010 l 254 942 q 220 832 254 878 q 139 765 187 786 l 79 834 q 123 884 114 853 q 133 946 133 915 l 133 1010 l 254 1010 m 278 780 l 278 798 l 358 1010 l 507 1010 l 507 996 l 344 780 l 278 780 z "},"Ἵ":{"ha":852,"x_min":78,"x_max":780,"o":"m 780 1010 l 780 0 l 536 0 l 536 1010 l 780 1010 m 190 765 q 112 830 146 785 q 78 942 78 875 l 78 1010 l 197 1010 l 197 946 q 208 880 198 909 q 250 834 218 852 l 190 765 m 292 780 l 292 798 l 369 1010 l 519 1010 l 519 996 l 356 780 l 292 780 z "},"Ἶ":{"ha":733,"x_min":74,"x_max":662,"o":"m 662 1010 l 662 0 l 418 0 l 418 1010 l 662 1010 m 400 1181 l 493 1152 q 461 1067 493 1103 q 379 1030 429 1030 q 316 1041 342 1030 q 266 1063 290 1052 q 212 1074 242 1074 q 180 1057 192 1074 q 168 1015 168 1039 l 74 1042 q 106 1129 74 1091 q 188 1167 138 1167 q 245 1156 218 1167 q 300 1134 273 1145 q 355 1124 327 1124 q 387 1140 374 1124 q 400 1181 400 1157 m 352 995 l 352 938 q 320 846 352 883 q 244 793 289 810 l 189 849 q 230 890 221 863 q 238 942 238 916 l 238 995 l 352 995 z "},"Ἷ":{"ha":757,"x_min":74,"x_max":685,"o":"m 685 1010 l 685 0 l 441 0 l 441 1010 l 685 1010 m 400 1181 l 493 1152 q 461 1067 493 1103 q 379 1030 429 1030 q 316 1041 342 1030 q 266 1063 290 1052 q 212 1074 242 1074 q 180 1057 192 1074 q 168 1015 168 1039 l 74 1042 q 106 1129 74 1091 q 188 1167 138 1167 q 245 1156 218 1167 q 300 1134 273 1145 q 355 1124 327 1124 q 387 1140 374 1124 q 400 1181 400 1157 m 238 938 l 238 995 l 352 995 l 352 942 q 360 890 352 916 q 401 849 368 863 l 344 793 q 271 845 304 809 q 238 938 238 880 z "},"Ῐ":{"ha":397,"x_min":-58,"x_max":457,"o":"m 321 1010 l 321 0 l 76 0 l 76 1010 l 321 1010 m 298 1278 l 457 1278 q 387 1129 456 1186 q 199 1073 318 1073 q 12 1129 81 1073 q -57 1278 -58 1186 l 100 1278 q 122 1219 100 1246 q 199 1193 145 1193 q 275 1219 252 1193 q 298 1278 297 1245 z "},"Ῑ":{"ha":397,"x_min":-44,"x_max":442,"o":"m 321 1010 l 321 0 l 76 0 l 76 1010 l 321 1010 m 442 1263 l 442 1143 l -44 1143 l -44 1263 l 442 1263 z "},"Ὶ":{"ha":639,"x_min":76,"x_max":567,"o":"m 567 1010 l 567 0 l 323 0 l 323 1010 l 567 1010 m 239 779 l 76 996 l 76 1010 l 225 1010 l 302 800 l 302 779 l 239 779 z "},"Ί":{"ha":631,"x_min":67,"x_max":559,"o":"m 559 1010 l 559 0 l 315 0 l 315 1010 l 559 1010 m 67 852 l 67 873 l 145 1083 l 348 1083 l 348 1069 l 185 852 l 67 852 z "},"І":{"ha":397,"x_min":76,"x_max":321,"o":"m 321 1010 l 321 0 l 76 0 l 76 1010 l 321 1010 z "},"Ї":{"ha":397,"x_min":-66,"x_max":465,"o":"m 321 1010 l 321 0 l 76 0 l 76 1010 l 321 1010 m 46 1106 q -33 1138 0 1106 q -66 1214 -66 1170 q -33 1290 -66 1259 q 46 1321 0 1321 q 125 1290 92 1321 q 157 1214 157 1259 q 125 1138 157 1170 q 46 1106 92 1106 m 354 1106 q 275 1138 308 1106 q 242 1214 242 1170 q 275 1290 242 1259 q 354 1321 308 1321 q 432 1290 400 1321 q 465 1214 465 1259 q 432 1138 465 1170 q 354 1106 400 1106 z "},"":{"ha":684,"x_min":43,"x_max":640,"o":"m 43 812 l 43 1010 l 640 1010 l 640 812 l 464 812 l 464 198 l 640 198 l 640 0 l 43 0 l 43 198 l 219 198 l 219 812 l 43 812 z "},"":{"ha":684,"x_min":43,"x_max":640,"o":"m 43 812 l 43 1010 l 640 1010 l 640 812 l 464 812 l 464 198 l 640 198 l 640 0 l 43 0 l 43 198 l 219 198 l 219 812 l 43 812 m 189 1106 q 110 1138 143 1106 q 77 1214 77 1170 q 110 1290 77 1259 q 189 1321 143 1321 q 268 1290 235 1321 q 300 1214 300 1259 q 268 1138 300 1170 q 189 1106 235 1106 m 497 1106 q 418 1138 451 1106 q 385 1214 385 1170 q 418 1290 385 1259 q 497 1321 451 1321 q 575 1290 543 1321 q 608 1214 608 1259 q 575 1138 608 1170 q 497 1106 543 1106 z "},"":{"ha":684,"x_min":43,"x_max":640,"o":"m 43 812 l 43 1010 l 640 1010 l 640 812 l 464 812 l 464 198 l 640 198 l 640 0 l 43 0 l 43 198 l 219 198 l 219 812 l 43 812 m 252 1334 l 385 1516 l 591 1516 l 419 1334 l 252 1334 m 488 1076 q 413 1105 444 1076 q 382 1175 382 1134 q 413 1245 382 1216 q 488 1273 444 1273 q 562 1245 532 1273 q 593 1175 593 1216 q 562 1105 593 1134 q 488 1076 532 1076 m 196 1076 q 121 1105 152 1076 q 90 1175 90 1134 q 121 1245 90 1216 q 196 1273 152 1273 q 271 1245 240 1273 q 301 1175 301 1216 q 271 1105 301 1134 q 196 1076 240 1076 z "},"":{"ha":684,"x_min":43,"x_max":640,"o":"m 43 812 l 43 1010 l 640 1010 l 640 812 l 464 812 l 464 198 l 640 198 l 640 0 l 43 0 l 43 198 l 219 198 l 219 812 l 43 812 m 84 470 l 84 604 l 596 604 l 596 470 l 84 470 z "},"":{"ha":684,"x_min":43,"x_max":640,"o":"m 43 812 l 43 1010 l 640 1010 l 640 812 l 464 812 l 464 198 l 640 198 l 640 0 l 43 0 l 43 198 l 219 198 l 219 812 l 43 812 m 225 -278 l 100 -277 q 147 -125 100 -177 q 264 -73 195 -74 q 334 -89 306 -73 q 384 -121 362 -105 q 416 -142 400 -133 q 447 -151 431 -151 q 489 -130 475 -150 q 503 -74 502 -109 l 626 -76 q 578 -227 625 -175 q 462 -280 530 -279 q 391 -265 419 -280 q 342 -233 363 -249 q 311 -212 326 -221 q 279 -203 297 -203 q 240 -222 255 -203 q 225 -278 225 -242 z "},"":{"ha":684,"x_min":43,"x_max":640,"o":"m 43 812 l 43 1010 l 640 1010 l 640 812 l 464 812 l 464 198 l 640 198 l 640 0 l 43 0 l 43 198 l 219 198 l 219 812 l 43 812 m 262 1106 l 112 1329 l 326 1329 l 426 1106 l 262 1106 z "},"":{"ha":684,"x_min":43,"x_max":640,"o":"m 43 812 l 43 1010 l 640 1010 l 640 812 l 464 812 l 464 198 l 640 198 l 640 0 l 43 0 l 43 198 l 219 198 l 219 812 l 43 812 m 259 1106 l 359 1329 l 573 1329 l 424 1106 l 259 1106 z "},"":{"ha":684,"x_min":42,"x_max":642,"o":"m 43 812 l 43 1010 l 640 1010 l 640 812 l 464 812 l 464 198 l 640 198 l 640 0 l 43 0 l 43 198 l 219 198 l 219 812 l 43 812 m 245 1100 l 42 1100 l 42 1106 l 256 1327 l 429 1327 l 642 1106 l 642 1100 l 440 1100 l 342 1214 l 245 1100 z "},"":{"ha":684,"x_min":43,"x_max":640,"o":"m 43 812 l 43 1010 l 640 1010 l 640 812 l 464 812 l 464 198 l 640 198 l 640 0 l 43 0 l 43 198 l 219 198 l 219 812 l 43 812 m 205 1104 l 79 1105 q 127 1256 79 1205 q 243 1308 175 1308 q 313 1292 285 1308 q 363 1260 341 1277 q 395 1239 380 1248 q 426 1231 410 1231 q 468 1252 454 1231 q 482 1307 481 1272 l 606 1306 q 557 1154 604 1206 q 441 1102 509 1102 q 370 1117 398 1101 q 321 1149 343 1132 q 291 1170 305 1161 q 258 1179 276 1179 q 219 1159 234 1179 q 205 1104 205 1140 z "},"":{"ha":684,"x_min":43,"x_max":640,"o":"m 43 812 l 43 1010 l 640 1010 l 640 812 l 464 812 l 464 198 l 640 198 l 640 0 l 43 0 l 43 198 l 219 198 l 219 812 l 43 812 m 586 1263 l 586 1143 l 99 1143 l 99 1263 l 586 1263 z "},"":{"ha":684,"x_min":43,"x_max":640,"o":"m 43 812 l 43 1010 l 640 1010 l 640 812 l 464 812 l 464 198 l 640 198 l 640 0 l 43 0 l 43 198 l 219 198 l 219 812 l 43 812 m 441 1278 l 600 1278 q 530 1129 599 1186 q 342 1073 461 1073 q 155 1129 224 1073 q 86 1278 85 1186 l 243 1278 q 265 1219 243 1246 q 342 1193 288 1193 q 418 1219 395 1193 q 441 1278 440 1245 z "},"":{"ha":684,"x_min":43,"x_max":658,"o":"m 43 812 l 43 1010 l 640 1010 l 640 812 l 464 812 l 464 198 l 640 198 l 640 0 l 43 0 l 43 198 l 219 198 l 219 812 l 43 812 m 543 -279 q 430 -245 475 -279 q 369 -148 384 -211 q 365 -65 359 -107 q 392 12 370 -22 q 449 62 413 46 l 640 0 q 565 -39 593 -18 q 538 -93 538 -61 q 584 -144 537 -144 q 611 -140 599 -144 q 631 -134 622 -136 l 658 -249 q 610 -269 639 -259 q 543 -279 581 -279 z "},"":{"ha":684,"x_min":43,"x_max":640,"o":"m 43 812 l 43 1010 l 640 1010 l 640 812 l 464 812 l 464 198 l 640 198 l 640 0 l 43 0 l 43 198 l 219 198 l 219 812 l 43 812 m 342 1098 q 255 1132 291 1098 q 218 1214 218 1166 q 255 1295 218 1262 q 342 1329 291 1329 q 430 1295 394 1329 q 466 1214 466 1262 q 430 1132 466 1166 q 342 1098 394 1098 z "},"":{"ha":684,"x_min":42,"x_max":642,"o":"m 43 812 l 43 1010 l 640 1010 l 640 812 l 464 812 l 464 198 l 640 198 l 640 0 l 43 0 l 43 198 l 219 198 l 219 812 l 43 812 m 245 1328 l 342 1214 l 440 1328 l 642 1328 l 642 1322 l 429 1101 l 256 1101 l 42 1322 l 42 1328 l 245 1328 z "},"":{"ha":684,"x_min":19,"x_max":640,"o":"m 43 812 l 43 1010 l 640 1010 l 640 812 l 464 812 l 464 198 l 640 198 l 640 0 l 43 0 l 43 198 l 219 198 l 219 812 l 43 812 m 284 1106 l 108 1152 l 19 1329 l 229 1283 l 284 1106 m 536 1106 l 372 1152 l 325 1329 l 516 1283 l 536 1106 z "},"":{"ha":684,"x_min":43,"x_max":640,"o":"m 43 812 l 43 1010 l 640 1010 l 640 812 l 464 812 l 464 198 l 640 198 l 640 0 l 43 0 l 43 198 l 219 198 l 219 812 l 43 812 m 84 1130 q 153 1283 83 1223 q 341 1342 222 1342 q 529 1283 459 1342 q 600 1130 599 1223 l 440 1130 q 417 1189 440 1163 q 341 1215 395 1215 q 265 1189 288 1215 q 243 1130 242 1163 l 84 1130 z "},"":{"ha":684,"x_min":43,"x_max":640,"o":"m 43 812 l 43 1010 l 640 1010 l 640 812 l 464 812 l 464 198 l 640 198 l 640 0 l 43 0 l 43 198 l 219 198 l 219 812 l 43 812 m 428 1121 l 253 1121 l 239 1203 q 313 1217 291 1205 q 335 1246 335 1229 q 308 1281 335 1273 q 239 1290 281 1290 l 245 1392 q 461 1356 387 1392 q 534 1257 535 1321 q 502 1191 535 1213 q 428 1162 469 1168 l 428 1121 z "},"":{"ha":684,"x_min":43,"x_max":640,"o":"m 43 812 l 43 1010 l 640 1010 l 640 812 l 464 812 l 464 198 l 640 198 l 640 0 l 43 0 l 43 198 l 219 198 l 219 812 l 43 812 m 341 -295 q 254 -261 290 -295 q 217 -180 217 -227 q 254 -98 217 -132 q 341 -65 290 -65 q 428 -98 392 -65 q 465 -180 465 -132 q 428 -261 465 -227 q 341 -295 392 -295 z "},"":{"ha":907,"x_min":43,"x_max":864,"o":"m 267 812 l 267 1010 l 864 1010 l 864 812 l 687 812 l 687 198 l 864 198 l 864 0 l 267 0 l 267 198 l 443 198 l 443 812 l 267 812 m 215 1010 l 215 942 q 182 832 215 877 q 103 765 149 786 l 43 834 q 86 880 75 852 q 97 946 97 909 l 97 1010 l 215 1010 z "},"":{"ha":879,"x_min":43,"x_max":836,"o":"m 240 812 l 240 1010 l 836 1010 l 836 812 l 660 812 l 660 198 l 836 198 l 836 0 l 240 0 l 240 198 l 416 198 l 416 812 l 240 812 m 43 942 l 43 1010 l 162 1010 l 162 946 q 172 884 163 915 q 214 834 182 853 l 155 765 q 76 832 109 786 q 43 942 44 877 z "},"":{"ha":1141,"x_min":43,"x_max":1098,"o":"m 501 812 l 501 1010 l 1098 1010 l 1098 812 l 921 812 l 921 198 l 1098 198 l 1098 0 l 501 0 l 501 198 l 677 198 l 677 812 l 501 812 m 229 1010 l 229 955 q 194 847 229 896 q 98 765 160 798 l 43 807 q 86 874 72 838 q 100 959 101 911 l 100 1010 l 229 1010 m 489 791 l 489 781 l 422 781 l 260 996 l 260 1010 l 408 1010 l 489 791 z "},"":{"ha":1107,"x_min":43,"x_max":1064,"o":"m 467 812 l 467 1010 l 1064 1010 l 1064 812 l 887 812 l 887 198 l 1064 198 l 1064 0 l 467 0 l 467 198 l 643 198 l 643 812 l 467 812 m 44 942 l 44 1010 l 165 1010 l 165 946 q 173 884 164 915 q 218 834 182 853 l 159 765 q 76 832 109 786 q 44 942 43 877 m 451 798 l 451 780 l 385 780 l 222 996 l 222 1010 l 373 1010 l 451 798 z "},"":{"ha":1123,"x_min":43,"x_max":1079,"o":"m 482 812 l 482 1010 l 1079 1010 l 1079 812 l 903 812 l 903 198 l 1079 198 l 1079 0 l 482 0 l 482 198 l 658 198 l 658 812 l 482 812 m 218 1010 l 218 942 q 184 832 217 878 q 103 765 151 786 l 43 834 q 87 884 77 853 q 97 946 96 915 l 97 1010 l 218 1010 m 242 780 l 242 798 l 322 1010 l 470 1010 l 470 996 l 308 780 l 242 780 z "},"":{"ha":1141,"x_min":43,"x_max":1098,"o":"m 502 812 l 502 1010 l 1098 1010 l 1098 812 l 922 812 l 922 198 l 1098 198 l 1098 0 l 502 0 l 502 198 l 678 198 l 678 812 l 502 812 m 155 765 q 77 830 111 785 q 43 942 43 875 l 43 1010 l 162 1010 l 162 946 q 173 880 163 909 q 215 834 183 852 l 155 765 m 257 780 l 257 798 l 334 1010 l 484 1010 l 484 996 l 321 780 l 257 780 z "},"":{"ha":1028,"x_min":44,"x_max":984,"o":"m 388 812 l 388 1010 l 984 1010 l 984 812 l 808 812 l 808 198 l 984 198 l 984 0 l 388 0 l 388 198 l 564 198 l 564 812 l 388 812 m 369 1181 l 463 1152 q 431 1067 463 1103 q 349 1030 399 1030 q 286 1041 312 1030 q 236 1063 260 1052 q 182 1074 212 1074 q 150 1057 162 1074 q 138 1015 138 1039 l 44 1042 q 76 1129 44 1091 q 158 1167 108 1167 q 215 1156 188 1167 q 270 1134 243 1145 q 325 1124 296 1124 q 357 1140 344 1124 q 369 1181 369 1157 m 322 995 l 322 938 q 290 846 322 883 q 214 793 258 810 l 159 849 q 200 890 191 863 q 208 942 208 916 l 208 995 l 322 995 z "},"":{"ha":1051,"x_min":44,"x_max":1008,"o":"m 411 812 l 411 1010 l 1008 1010 l 1008 812 l 832 812 l 832 198 l 1008 198 l 1008 0 l 411 0 l 411 198 l 587 198 l 587 812 l 411 812 m 369 1181 l 463 1152 q 431 1067 463 1103 q 349 1030 399 1030 q 286 1041 312 1030 q 236 1063 260 1052 q 182 1074 212 1074 q 150 1057 162 1074 q 138 1015 138 1039 l 44 1042 q 76 1129 44 1091 q 158 1167 108 1167 q 215 1156 188 1167 q 270 1134 243 1145 q 325 1124 296 1124 q 357 1140 344 1124 q 369 1181 369 1157 m 208 938 l 208 995 l 322 995 l 322 942 q 330 890 322 916 q 371 849 338 863 l 314 793 q 241 845 274 809 q 208 938 208 880 z "},"":{"ha":684,"x_min":43,"x_max":640,"o":"m 43 812 l 43 1010 l 640 1010 l 640 812 l 464 812 l 464 198 l 640 198 l 640 0 l 43 0 l 43 198 l 219 198 l 219 812 l 43 812 m 441 1278 l 600 1278 q 530 1129 599 1186 q 342 1073 461 1073 q 155 1129 224 1073 q 86 1278 85 1186 l 243 1278 q 265 1219 243 1246 q 342 1193 288 1193 q 418 1219 395 1193 q 441 1278 440 1245 z "},"":{"ha":684,"x_min":43,"x_max":640,"o":"m 43 812 l 43 1010 l 640 1010 l 640 812 l 464 812 l 464 198 l 640 198 l 640 0 l 43 0 l 43 198 l 219 198 l 219 812 l 43 812 m 586 1263 l 586 1143 l 99 1143 l 99 1263 l 586 1263 z "},"":{"ha":930,"x_min":43,"x_max":887,"o":"m 290 812 l 290 1010 l 887 1010 l 887 812 l 710 812 l 710 198 l 887 198 l 887 0 l 290 0 l 290 198 l 466 198 l 466 812 l 290 812 m 206 779 l 43 996 l 43 1010 l 192 1010 l 269 800 l 269 779 l 206 779 z "},"":{"ha":922,"x_min":34,"x_max":879,"o":"m 282 812 l 282 1010 l 879 1010 l 879 812 l 702 812 l 702 198 l 879 198 l 879 0 l 282 0 l 282 198 l 458 198 l 458 812 l 282 812 m 34 852 l 34 873 l 112 1083 l 315 1083 l 315 1069 l 152 852 l 34 852 z "},"":{"ha":684,"x_min":43,"x_max":640,"o":"m 43 812 l 43 1010 l 640 1010 l 640 812 l 464 812 l 464 198 l 640 198 l 640 0 l 43 0 l 43 198 l 219 198 l 219 812 l 43 812 z "},"":{"ha":684,"x_min":43,"x_max":640,"o":"m 43 812 l 43 1010 l 640 1010 l 640 812 l 464 812 l 464 198 l 640 198 l 640 0 l 43 0 l 43 198 l 219 198 l 219 812 l 43 812 m 189 1106 q 110 1138 143 1106 q 77 1214 77 1170 q 110 1290 77 1259 q 189 1321 143 1321 q 268 1290 235 1321 q 300 1214 300 1259 q 268 1138 300 1170 q 189 1106 235 1106 m 497 1106 q 418 1138 451 1106 q 385 1214 385 1170 q 418 1290 385 1259 q 497 1321 451 1321 q 575 1290 543 1321 q 608 1214 608 1259 q 575 1138 608 1170 q 497 1106 543 1106 z "},"J":{"ha":804,"x_min":24,"x_max":727,"o":"m 487 1010 l 727 1010 l 727 312 q 681 140 727 214 q 553 27 635 67 q 364 -14 471 -14 q 192 19 270 -14 q 69 122 115 52 q 24 300 24 191 l 267 300 q 298 210 269 241 q 378 179 327 179 q 487 312 486 179 l 487 1010 z "},"Ĵ":{"ha":804,"x_min":24,"x_max":906,"o":"m 487 1010 l 727 1010 l 727 312 q 681 140 727 214 q 553 27 635 67 q 364 -14 471 -14 q 192 19 270 -14 q 69 122 115 52 q 24 300 24 191 l 267 300 q 298 210 269 241 q 378 179 327 179 q 487 312 486 179 l 487 1010 m 509 1100 l 306 1100 l 306 1106 l 520 1327 l 693 1327 l 906 1106 l 906 1100 l 704 1100 l 606 1214 l 509 1100 z "},"Ɉ":{"ha":804,"x_min":24,"x_max":860,"o":"m 487 1010 l 727 1010 l 727 312 q 681 140 727 214 q 553 27 635 67 q 364 -14 471 -14 q 192 19 270 -14 q 69 122 115 52 q 24 300 24 191 l 267 300 q 298 210 269 241 q 378 179 327 179 q 487 312 486 179 l 487 1010 m 348 537 l 348 672 l 860 672 l 860 537 l 348 537 z "},"Ϳ":{"ha":804,"x_min":24,"x_max":727,"o":"m 487 1010 l 727 1010 l 727 312 q 681 140 727 214 q 553 27 635 67 q 364 -14 471 -14 q 192 19 270 -14 q 69 122 115 52 q 24 300 24 191 l 267 300 q 298 210 269 241 q 378 179 327 179 q 487 312 486 179 l 487 1010 z "},"Ј":{"ha":804,"x_min":24,"x_max":727,"o":"m 487 1010 l 727 1010 l 727 312 q 681 140 727 214 q 553 27 635 67 q 364 -14 471 -14 q 192 19 270 -14 q 69 122 115 52 q 24 300 24 191 l 267 300 q 298 210 269 241 q 378 179 327 179 q 487 312 486 179 l 487 1010 z "},"K":{"ha":975,"x_min":76,"x_max":962,"o":"m 76 0 l 76 1010 l 321 1010 l 321 583 l 334 583 l 668 1010 l 955 1010 l 597 559 l 962 0 l 670 0 l 418 397 l 321 274 l 321 0 l 76 0 z "},"Ķ":{"ha":975,"x_min":76,"x_max":962,"o":"m 76 0 l 76 1010 l 321 1010 l 321 583 l 334 583 l 668 1010 l 955 1010 l 597 559 l 962 0 l 670 0 l 418 397 l 321 274 l 321 0 l 76 0 m 312 -318 l 375 -78 l 594 -78 l 478 -318 l 312 -318 z "},"Ǩ":{"ha":975,"x_min":76,"x_max":962,"o":"m 76 0 l 76 1010 l 321 1010 l 321 583 l 334 583 l 668 1010 l 955 1010 l 597 559 l 962 0 l 670 0 l 418 397 l 321 274 l 321 0 l 76 0 m 387 1328 l 484 1214 l 582 1328 l 784 1328 l 784 1322 l 571 1101 l 398 1101 l 184 1322 l 184 1328 l 387 1328 z "},"Ḱ":{"ha":975,"x_min":76,"x_max":962,"o":"m 76 0 l 76 1010 l 321 1010 l 321 583 l 334 583 l 668 1010 l 955 1010 l 597 559 l 962 0 l 670 0 l 418 397 l 321 274 l 321 0 l 76 0 m 401 1106 l 501 1329 l 715 1329 l 566 1106 l 401 1106 z "},"Ḳ":{"ha":975,"x_min":76,"x_max":962,"o":"m 76 0 l 76 1010 l 321 1010 l 321 583 l 334 583 l 668 1010 l 955 1010 l 597 559 l 962 0 l 670 0 l 418 397 l 321 274 l 321 0 l 76 0 m 482 -293 q 395 -260 432 -293 q 359 -178 359 -226 q 395 -97 359 -130 q 482 -63 432 -63 q 570 -97 534 -63 q 606 -178 606 -130 q 570 -260 606 -226 q 482 -293 534 -293 z "},"Ḵ":{"ha":975,"x_min":76,"x_max":962,"o":"m 76 0 l 76 1010 l 321 1010 l 321 583 l 334 583 l 668 1010 l 955 1010 l 597 559 l 962 0 l 670 0 l 418 397 l 321 274 l 321 0 l 76 0 m 726 -125 l 726 -245 l 239 -245 l 239 -125 l 726 -125 z "},"Ҡ":{"ha":1227,"x_min":26,"x_max":1169,"o":"m 865 0 l 547 419 l 492 419 l 492 0 l 248 0 l 248 824 l 26 824 l 26 1010 l 492 1010 l 492 618 l 531 618 l 843 1010 l 1149 1010 l 760 533 l 1169 0 l 865 0 z "},"Қ":{"ha":1053,"x_min":76,"x_max":1015,"o":"m 693 0 l 376 419 l 321 419 l 321 0 l 76 0 l 76 1010 l 321 1010 l 321 618 l 360 618 l 672 1010 l 978 1010 l 588 533 l 998 0 l 693 0 m 1015 167 l 1015 -234 l 782 -234 l 782 167 l 1015 167 z "},"Ƙ":{"ha":1039,"x_min":76,"x_max":1030,"o":"m 76 0 l 76 1010 l 321 1010 l 321 597 l 334 597 l 643 918 q 825 1020 727 1004 q 1030 975 923 1036 l 956 804 q 883 814 911 826 q 821 768 854 801 l 599 540 l 1014 0 l 722 0 l 443 367 l 321 238 l 321 0 l 76 0 z "},"Κ":{"ha":975,"x_min":76,"x_max":962,"o":"m 76 0 l 76 1010 l 321 1010 l 321 583 l 334 583 l 668 1010 l 955 1010 l 597 559 l 962 0 l 670 0 l 418 397 l 321 274 l 321 0 l 76 0 z "},"L":{"ha":791,"x_min":76,"x_max":741,"o":"m 76 0 l 76 1010 l 321 1010 l 321 198 l 741 198 l 741 0 l 76 0 z "},"Ĺ":{"ha":791,"x_min":76,"x_max":741,"o":"m 76 0 l 76 1010 l 321 1010 l 321 198 l 741 198 l 741 0 l 76 0 m 113 1106 l 213 1329 l 426 1329 l 277 1106 l 113 1106 z "},"Ļ":{"ha":791,"x_min":76,"x_max":741,"o":"m 76 0 l 76 1010 l 321 1010 l 321 198 l 741 198 l 741 0 l 76 0 m 238 -320 l 301 -80 l 521 -80 l 405 -320 l 238 -320 z "},"Ľ":{"ha":791,"x_min":76,"x_max":741,"o":"m 76 0 l 76 1010 l 321 1010 l 321 198 l 741 198 l 741 0 l 76 0 m 466 802 l 466 1064 l 636 1064 l 600 802 l 466 802 z "},"Ḷ":{"ha":791,"x_min":76,"x_max":741,"o":"m 76 0 l 76 1010 l 321 1010 l 321 198 l 741 198 l 741 0 l 76 0 m 409 -295 q 322 -261 358 -295 q 285 -180 285 -227 q 322 -98 285 -132 q 409 -65 358 -65 q 496 -98 460 -65 q 533 -180 533 -132 q 496 -261 533 -227 q 409 -295 460 -295 z "},"Ḹ":{"ha":791,"x_min":-47,"x_max":741,"o":"m 76 0 l 76 1010 l 321 1010 l 321 198 l 741 198 l 741 0 l 76 0 m 409 -295 q 322 -261 358 -295 q 285 -180 285 -227 q 322 -98 285 -132 q 409 -65 358 -65 q 496 -98 460 -65 q 533 -180 533 -132 q 496 -261 533 -227 q 409 -295 460 -295 m 439 1263 l 439 1143 l -47 1143 l -47 1263 l 439 1263 z "},"Ḻ":{"ha":791,"x_min":76,"x_max":741,"o":"m 76 0 l 76 1010 l 321 1010 l 321 198 l 741 198 l 741 0 l 76 0 m 652 -127 l 652 -246 l 165 -246 l 165 -127 l 652 -127 z "},"Ḽ":{"ha":791,"x_min":76,"x_max":741,"o":"m 76 0 l 76 1010 l 321 1010 l 321 198 l 741 198 l 741 0 l 76 0 m 311 -291 l 109 -291 l 109 -285 l 322 -64 l 495 -64 l 708 -285 l 708 -291 l 507 -291 l 408 -177 l 311 -291 z "},"Ł":{"ha":824,"x_min":17,"x_max":798,"o":"m 493 660 l 493 533 l 377 503 l 377 198 l 798 198 l 798 0 l 133 0 l 133 438 l 17 407 l 17 532 l 133 563 l 133 1010 l 377 1010 l 377 629 l 493 660 z "},"Ƚ":{"ha":791,"x_min":-59,"x_max":741,"o":"m 76 0 l 76 1010 l 321 1010 l 321 198 l 741 198 l 741 0 l 76 0 m -59 470 l -59 604 l 453 604 l 453 470 l -59 470 z "},"ǈ":{"ha":1185,"x_min":76,"x_max":1111,"o":"m 76 0 l 76 1010 l 321 1010 l 321 198 l 741 198 l 741 0 l 76 0 m 867 758 l 1108 758 l 1108 -32 q 1070 -181 1108 -125 q 962 -260 1032 -236 q 798 -284 893 -284 q 749 -283 776 -284 l 749 -100 q 779 -102 765 -102 q 848 -83 829 -102 q 867 -27 867 -65 l 867 758 m 987 846 q 900 880 937 846 q 864 961 864 913 q 900 1043 864 1009 q 987 1076 937 1076 q 1075 1043 1039 1076 q 1111 961 1111 1009 q 1075 880 1111 913 q 987 846 1039 846 z "},"M":{"ha":1282,"x_min":76,"x_max":1206,"o":"m 76 1010 l 379 1010 l 635 385 l 647 385 l 904 1010 l 1206 1010 l 1206 0 l 968 0 l 968 620 l 960 620 l 717 6 l 565 6 l 323 624 l 314 624 l 314 0 l 76 0 l 76 1010 z "},"Ḿ":{"ha":1282,"x_min":76,"x_max":1206,"o":"m 76 1010 l 379 1010 l 635 385 l 647 385 l 904 1010 l 1206 1010 l 1206 0 l 968 0 l 968 620 l 960 620 l 717 6 l 565 6 l 323 624 l 314 624 l 314 0 l 76 0 l 76 1010 m 558 1106 l 657 1329 l 871 1329 l 722 1106 l 558 1106 z "},"Ṁ":{"ha":1282,"x_min":76,"x_max":1206,"o":"m 76 1010 l 379 1010 l 635 385 l 647 385 l 904 1010 l 1206 1010 l 1206 0 l 968 0 l 968 620 l 960 620 l 717 6 l 565 6 l 323 624 l 314 624 l 314 0 l 76 0 l 76 1010 m 641 1098 q 554 1132 590 1098 q 517 1214 517 1166 q 554 1295 517 1262 q 641 1329 590 1329 q 729 1295 692 1329 q 765 1214 765 1262 q 729 1132 765 1166 q 641 1098 692 1098 z "},"Ṃ":{"ha":1282,"x_min":76,"x_max":1206,"o":"m 76 1010 l 379 1010 l 635 385 l 647 385 l 904 1010 l 1206 1010 l 1206 0 l 968 0 l 968 620 l 960 620 l 717 6 l 565 6 l 323 624 l 314 624 l 314 0 l 76 0 l 76 1010 m 641 -295 q 554 -261 590 -295 q 517 -180 517 -227 q 554 -98 517 -132 q 641 -65 590 -65 q 729 -98 692 -65 q 765 -180 765 -132 q 729 -261 765 -227 q 641 -295 692 -295 z "},"Ӎ":{"ha":1404,"x_min":76,"x_max":1391,"o":"m 76 1010 l 379 1010 l 635 385 l 647 385 l 904 1010 l 1206 1010 l 1206 0 l 968 0 l 968 620 l 960 620 l 717 6 l 565 6 l 323 624 l 314 624 l 314 0 l 76 0 l 76 1010 m 1390 127 l 1390 1 q 1350 -167 1391 -85 q 1247 -298 1309 -249 l 1131 -239 q 1139 -225 1135 -232 q 1147 -210 1143 -218 q 1187 -128 1168 -173 q 1206 -15 1206 -83 l 1206 127 l 1390 127 z "},"Μ":{"ha":1282,"x_min":76,"x_max":1206,"o":"m 76 1010 l 379 1010 l 635 385 l 647 385 l 904 1010 l 1206 1010 l 1206 0 l 968 0 l 968 620 l 960 620 l 717 6 l 565 6 l 323 624 l 314 624 l 314 0 l 76 0 l 76 1010 z "},"Ϻ":{"ha":1282,"x_min":76,"x_max":1206,"o":"m 76 1010 l 379 1010 l 635 385 l 647 385 l 904 1010 l 1206 1010 l 1206 0 l 968 0 l 968 620 l 960 620 l 717 6 l 565 6 l 323 624 l 314 624 l 314 0 l 76 0 l 76 1010 z "},"М":{"ha":1282,"x_min":76,"x_max":1206,"o":"m 76 1010 l 379 1010 l 635 385 l 647 385 l 904 1010 l 1206 1010 l 1206 0 l 968 0 l 968 620 l 960 620 l 717 6 l 565 6 l 323 624 l 314 624 l 314 0 l 76 0 l 76 1010 z "},"N":{"ha":1013,"x_min":76,"x_max":936,"o":"m 936 1010 l 936 0 l 729 0 l 327 583 l 321 583 l 321 0 l 76 0 l 76 1010 l 287 1010 l 684 428 l 692 428 l 692 1010 l 936 1010 z "},"Ñ":{"ha":1013,"x_min":76,"x_max":936,"o":"m 936 1010 l 936 0 l 729 0 l 327 583 l 321 583 l 321 0 l 76 0 l 76 1010 l 287 1010 l 684 428 l 692 428 l 692 1010 l 936 1010 m 369 1104 l 244 1105 q 291 1256 244 1205 q 408 1308 339 1308 q 478 1292 450 1308 q 528 1260 506 1277 q 560 1239 545 1248 q 591 1231 575 1231 q 633 1252 619 1231 q 647 1307 646 1272 l 770 1306 q 722 1154 769 1206 q 606 1102 674 1102 q 535 1117 563 1101 q 486 1149 508 1132 q 455 1170 470 1161 q 423 1179 441 1179 q 384 1159 399 1179 q 369 1104 369 1140 z "},"Ń":{"ha":1013,"x_min":76,"x_max":936,"o":"m 936 1010 l 936 0 l 729 0 l 327 583 l 321 583 l 321 0 l 76 0 l 76 1010 l 287 1010 l 684 428 l 692 428 l 692 1010 l 936 1010 m 424 1106 l 523 1329 l 737 1329 l 588 1106 l 424 1106 z "},"Ņ":{"ha":1013,"x_min":76,"x_max":936,"o":"m 936 1010 l 936 0 l 729 0 l 327 583 l 321 583 l 321 0 l 76 0 l 76 1010 l 287 1010 l 684 428 l 692 428 l 692 1010 l 936 1010 m 336 -320 l 400 -80 l 619 -80 l 503 -320 l 336 -320 z "},"Ň":{"ha":1013,"x_min":76,"x_max":936,"o":"m 936 1010 l 936 0 l 729 0 l 327 583 l 321 583 l 321 0 l 76 0 l 76 1010 l 287 1010 l 684 428 l 692 428 l 692 1010 l 936 1010 m 409 1328 l 507 1214 l 605 1328 l 807 1328 l 807 1322 l 594 1101 l 421 1101 l 207 1322 l 207 1328 l 409 1328 z "},"Ǹ":{"ha":1013,"x_min":76,"x_max":936,"o":"m 936 1010 l 936 0 l 729 0 l 327 583 l 321 583 l 321 0 l 76 0 l 76 1010 l 287 1010 l 684 428 l 692 428 l 692 1010 l 936 1010 m 426 1106 l 277 1329 l 490 1329 l 590 1106 l 426 1106 z "},"Ṅ":{"ha":1013,"x_min":76,"x_max":936,"o":"m 936 1010 l 936 0 l 729 0 l 327 583 l 321 583 l 321 0 l 76 0 l 76 1010 l 287 1010 l 684 428 l 692 428 l 692 1010 l 936 1010 m 507 1098 q 420 1132 456 1098 q 383 1214 383 1166 q 420 1295 383 1262 q 507 1329 456 1329 q 595 1295 558 1329 q 631 1214 631 1262 q 595 1132 631 1166 q 507 1098 558 1098 z "},"Ṇ":{"ha":1013,"x_min":76,"x_max":936,"o":"m 936 1010 l 936 0 l 729 0 l 327 583 l 321 583 l 321 0 l 76 0 l 76 1010 l 287 1010 l 684 428 l 692 428 l 692 1010 l 936 1010 m 507 -295 q 420 -261 456 -295 q 383 -180 383 -227 q 420 -98 383 -132 q 507 -65 456 -65 q 595 -98 558 -65 q 631 -180 631 -132 q 595 -261 631 -227 q 507 -295 558 -295 z "},"Ṉ":{"ha":1013,"x_min":76,"x_max":936,"o":"m 936 1010 l 936 0 l 729 0 l 327 583 l 321 583 l 321 0 l 76 0 l 76 1010 l 287 1010 l 684 428 l 692 428 l 692 1010 l 936 1010 m 751 -127 l 751 -246 l 264 -246 l 264 -127 l 751 -127 z "},"Ṋ":{"ha":1013,"x_min":76,"x_max":936,"o":"m 936 1010 l 936 0 l 729 0 l 327 583 l 321 583 l 321 0 l 76 0 l 76 1010 l 287 1010 l 684 428 l 692 428 l 692 1010 l 936 1010 m 409 -291 l 207 -291 l 207 -285 l 420 -64 l 593 -64 l 806 -285 l 806 -291 l 605 -291 l 507 -177 l 409 -291 z "},"Ɲ":{"ha":1042,"x_min":-41,"x_max":966,"o":"m 966 1010 l 966 0 l 759 0 l 357 583 l 350 583 l 350 -35 q 326 -166 350 -116 q 260 -241 301 -216 q 168 -275 218 -266 q 67 -284 118 -284 q 13 -284 47 -284 q -41 -280 -21 -283 l -41 -99 q -24 -100 -34 -100 q -6 -100 -14 -100 q 2 -100 0 -100 q 74 -87 42 -100 q 106 -35 106 -73 l 106 1010 l 316 1010 l 714 428 l 722 428 l 722 1010 l 966 1010 z "},"Ŋ":{"ha":1013,"x_min":76,"x_max":936,"o":"m 729 0 l 327 583 l 321 583 l 321 0 l 76 0 l 76 1010 l 287 1010 l 684 428 l 692 428 l 692 1010 l 936 1010 l 936 -27 q 896 -194 936 -133 q 781 -280 855 -254 q 607 -305 708 -305 q 527 -292 566 -305 l 527 -114 q 567 -121 545 -118 q 612 -123 589 -123 q 697 -100 666 -123 q 729 -32 729 -76 l 729 0 z "},"И":{"ha":1013,"x_min":76,"x_max":936,"o":"m 76 1010 l 320 1010 l 320 428 l 328 428 l 726 1010 l 936 1010 l 936 0 l 692 0 l 692 583 l 686 583 l 284 0 l 76 0 l 76 1010 z "},"Ѝ":{"ha":1013,"x_min":76,"x_max":936,"o":"m 76 1010 l 320 1010 l 320 428 l 328 428 l 726 1010 l 936 1010 l 936 0 l 692 0 l 692 583 l 686 583 l 284 0 l 76 0 l 76 1010 m 425 1106 l 275 1329 l 489 1329 l 589 1106 l 425 1106 z "},"Й":{"ha":1013,"x_min":76,"x_max":936,"o":"m 76 1010 l 320 1010 l 320 428 l 328 428 l 726 1010 l 936 1010 l 936 0 l 692 0 l 692 583 l 686 583 l 284 0 l 76 0 l 76 1010 m 604 1278 l 763 1278 q 693 1129 762 1186 q 505 1073 623 1073 q 317 1129 387 1073 q 249 1278 248 1186 l 406 1278 q 428 1219 405 1246 q 505 1193 451 1193 q 581 1219 558 1193 q 604 1278 603 1245 z "},"Ӣ":{"ha":1013,"x_min":76,"x_max":936,"o":"m 76 1010 l 320 1010 l 320 428 l 328 428 l 726 1010 l 936 1010 l 936 0 l 692 0 l 692 583 l 686 583 l 284 0 l 76 0 l 76 1010 m 749 1263 l 749 1143 l 262 1143 l 262 1263 l 749 1263 z "},"Ӥ":{"ha":1013,"x_min":76,"x_max":936,"o":"m 76 1010 l 320 1010 l 320 428 l 328 428 l 726 1010 l 936 1010 l 936 0 l 692 0 l 692 583 l 686 583 l 284 0 l 76 0 l 76 1010 m 352 1106 q 273 1138 306 1106 q 240 1214 240 1170 q 273 1290 240 1259 q 352 1321 306 1321 q 430 1290 398 1321 q 463 1214 463 1259 q 430 1138 463 1170 q 352 1106 398 1106 m 660 1106 q 581 1138 614 1106 q 548 1214 548 1170 q 581 1290 548 1259 q 660 1321 614 1321 q 738 1290 706 1321 q 770 1214 770 1259 q 738 1138 770 1170 q 660 1106 706 1106 z "},"Ҋ":{"ha":1013,"x_min":76,"x_max":1117,"o":"m 76 1010 l 320 1010 l 320 428 l 328 428 l 726 1010 l 936 1010 l 936 0 l 692 0 l 692 583 l 686 583 l 284 0 l 76 0 l 76 1010 m 604 1278 l 763 1278 q 693 1129 762 1186 q 505 1073 623 1073 q 317 1129 387 1073 q 249 1278 248 1186 l 406 1278 q 428 1219 405 1246 q 505 1193 451 1193 q 581 1219 558 1193 q 604 1278 603 1245 m 1116 127 l 1116 1 q 1076 -167 1117 -85 q 972 -298 1035 -249 l 856 -239 q 864 -225 860 -232 q 872 -210 868 -218 q 913 -128 894 -173 q 931 -15 932 -83 l 931 127 l 1116 127 z "},"Ͷ":{"ha":1087,"x_min":113,"x_max":973,"o":"m 113 1010 l 357 1010 l 357 428 l 365 428 l 763 1010 l 973 1010 l 973 0 l 728 0 l 728 583 l 722 583 l 320 0 l 113 0 l 113 1010 z "},"Ν":{"ha":1013,"x_min":76,"x_max":936,"o":"m 936 1010 l 936 0 l 729 0 l 327 583 l 321 583 l 321 0 l 76 0 l 76 1010 l 287 1010 l 684 428 l 692 428 l 692 1010 l 936 1010 z "},"ǋ":{"ha":1365,"x_min":76,"x_max":1291,"o":"m 936 1010 l 936 0 l 729 0 l 327 583 l 321 583 l 321 0 l 76 0 l 76 1010 l 287 1010 l 684 428 l 692 428 l 692 1010 l 936 1010 m 1047 758 l 1288 758 l 1288 -32 q 1250 -181 1288 -125 q 1142 -260 1212 -236 q 978 -284 1073 -284 q 929 -283 956 -284 l 929 -100 q 959 -102 945 -102 q 1028 -83 1009 -102 q 1047 -27 1047 -65 l 1047 758 m 1167 846 q 1080 880 1117 846 q 1044 961 1044 913 q 1080 1043 1044 1009 q 1167 1076 1117 1076 q 1255 1043 1219 1076 q 1291 961 1291 1009 q 1255 880 1291 913 q 1167 846 1219 846 z "},"O":{"ha":1095,"x_min":66,"x_max":1030,"o":"m 1030 505 q 966 222 1030 338 q 792 46 902 107 q 547 -14 683 -14 q 302 47 411 -14 q 129 223 193 107 q 66 505 66 339 q 129 788 66 672 q 302 964 193 904 q 547 1024 411 1024 q 792 964 683 1024 q 966 788 902 904 q 1030 505 1030 672 m 780 505 q 719 732 780 654 q 547 810 657 810 q 377 732 438 810 q 315 505 315 654 q 377 278 315 357 q 547 200 438 200 q 719 278 657 200 q 780 505 780 357 z "},"Ö":{"ha":1095,"x_min":66,"x_max":1030,"o":"m 1030 505 q 966 222 1030 338 q 792 46 902 107 q 547 -14 683 -14 q 302 47 411 -14 q 129 223 193 107 q 66 505 66 339 q 129 788 66 672 q 302 964 193 904 q 547 1024 411 1024 q 792 964 683 1024 q 966 788 902 904 q 1030 505 1030 672 m 780 505 q 719 732 780 654 q 547 810 657 810 q 377 732 438 810 q 315 505 315 654 q 377 278 315 357 q 547 200 438 200 q 719 278 657 200 q 780 505 780 357 m 395 1106 q 315 1138 348 1106 q 283 1214 283 1170 q 315 1290 283 1259 q 395 1321 348 1321 q 473 1290 440 1321 q 505 1214 505 1259 q 473 1138 505 1170 q 395 1106 440 1106 m 702 1106 q 623 1138 656 1106 q 590 1214 590 1170 q 623 1290 590 1259 q 702 1321 656 1321 q 781 1290 748 1321 q 813 1214 813 1259 q 781 1138 813 1170 q 702 1106 748 1106 z "},"Õ":{"ha":1095,"x_min":66,"x_max":1030,"o":"m 1030 505 q 966 222 1030 338 q 792 46 902 107 q 547 -14 683 -14 q 302 47 411 -14 q 129 223 193 107 q 66 505 66 339 q 129 788 66 672 q 302 964 193 904 q 547 1024 411 1024 q 792 964 683 1024 q 966 788 902 904 q 1030 505 1030 672 m 780 505 q 719 732 780 654 q 547 810 657 810 q 377 732 438 810 q 315 505 315 654 q 377 278 315 357 q 547 200 438 200 q 719 278 657 200 q 780 505 780 357 m 410 1109 l 284 1110 q 332 1261 284 1210 q 448 1313 380 1312 q 518 1297 490 1313 q 569 1265 546 1282 q 600 1244 585 1253 q 631 1235 615 1235 q 673 1257 659 1236 q 687 1312 687 1277 l 811 1310 q 762 1159 809 1211 q 647 1107 715 1107 q 576 1122 603 1106 q 526 1154 548 1137 q 496 1175 510 1165 q 464 1184 481 1184 q 425 1164 439 1184 q 410 1109 410 1145 z "},"Ø":{"ha":1095,"x_min":66,"x_max":1030,"o":"m 234 -51 l 130 19 l 203 123 q 102 285 139 189 q 66 505 66 381 q 129 788 66 672 q 302 964 193 904 q 547 1024 411 1024 q 794 963 685 1024 l 861 1059 l 964 989 l 893 887 q 993 725 957 821 q 1030 505 1030 629 q 966 222 1030 338 q 792 46 902 107 q 547 -14 683 -14 q 302 46 410 -14 l 234 -51 m 347 328 l 665 780 q 547 810 615 810 q 377 732 438 810 q 315 505 315 654 q 347 328 315 400 m 780 505 q 748 682 780 610 l 431 230 q 547 200 480 200 q 719 278 657 200 q 780 505 780 357 z "},"Ơ":{"ha":1148,"x_min":66,"x_max":1131,"o":"m 989 1052 l 1131 1052 q 1095 862 1131 938 q 980 758 1059 787 q 1017 641 1004 704 q 1030 505 1030 578 q 966 222 1030 338 q 792 46 902 107 q 547 -14 683 -14 q 302 47 411 -14 q 129 223 193 107 q 66 505 66 339 q 129 788 66 672 q 302 964 193 904 q 547 1024 411 1024 q 755 982 660 1024 q 917 860 851 941 q 974 926 959 876 q 989 1052 989 975 m 780 505 q 719 732 780 654 q 547 810 657 810 q 377 732 438 810 q 315 505 315 654 q 377 278 315 357 q 547 200 438 200 q 719 278 657 200 q 780 505 780 357 z "},"Ò":{"ha":1095,"x_min":66,"x_max":1030,"o":"m 1030 505 q 966 222 1030 338 q 792 46 902 107 q 547 -14 683 -14 q 302 47 411 -14 q 129 223 193 107 q 66 505 66 339 q 129 788 66 672 q 302 964 193 904 q 547 1024 411 1024 q 792 964 683 1024 q 966 788 902 904 q 1030 505 1030 672 m 780 505 q 719 732 780 654 q 547 810 657 810 q 377 732 438 810 q 315 505 315 654 q 377 278 315 357 q 547 200 438 200 q 719 278 657 200 q 780 505 780 357 m 467 1106 l 318 1329 l 531 1329 l 631 1106 l 467 1106 z "},"Ó":{"ha":1095,"x_min":66,"x_max":1030,"o":"m 1030 505 q 966 222 1030 338 q 792 46 902 107 q 547 -14 683 -14 q 302 47 411 -14 q 129 223 193 107 q 66 505 66 339 q 129 788 66 672 q 302 964 193 904 q 547 1024 411 1024 q 792 964 683 1024 q 966 788 902 904 q 1030 505 1030 672 m 780 505 q 719 732 780 654 q 547 810 657 810 q 377 732 438 810 q 315 505 315 654 q 377 278 315 357 q 547 200 438 200 q 719 278 657 200 q 780 505 780 357 m 465 1106 l 564 1329 l 778 1329 l 629 1106 l 465 1106 z "},"Ô":{"ha":1095,"x_min":66,"x_max":1030,"o":"m 1030 505 q 966 222 1030 338 q 792 46 902 107 q 547 -14 683 -14 q 302 47 411 -14 q 129 223 193 107 q 66 505 66 339 q 129 788 66 672 q 302 964 193 904 q 547 1024 411 1024 q 792 964 683 1024 q 966 788 902 904 q 1030 505 1030 672 m 780 505 q 719 732 780 654 q 547 810 657 810 q 377 732 438 810 q 315 505 315 654 q 377 278 315 357 q 547 200 438 200 q 719 278 657 200 q 780 505 780 357 m 450 1100 l 248 1100 l 248 1106 l 461 1327 l 634 1327 l 847 1106 l 847 1100 l 646 1100 l 547 1214 l 450 1100 z "},"Ō":{"ha":1095,"x_min":66,"x_max":1030,"o":"m 1030 505 q 966 222 1030 338 q 792 46 902 107 q 547 -14 683 -14 q 302 47 411 -14 q 129 223 193 107 q 66 505 66 339 q 129 788 66 672 q 302 964 193 904 q 547 1024 411 1024 q 792 964 683 1024 q 966 788 902 904 q 1030 505 1030 672 m 780 505 q 719 732 780 654 q 547 810 657 810 q 377 732 438 810 q 315 505 315 654 q 377 278 315 357 q 547 200 438 200 q 719 278 657 200 q 780 505 780 357 m 791 1263 l 791 1143 l 304 1143 l 304 1263 l 791 1263 z "},"Ŏ":{"ha":1095,"x_min":66,"x_max":1030,"o":"m 1030 505 q 966 222 1030 338 q 792 46 902 107 q 547 -14 683 -14 q 302 47 411 -14 q 129 223 193 107 q 66 505 66 339 q 129 788 66 672 q 302 964 193 904 q 547 1024 411 1024 q 792 964 683 1024 q 966 788 902 904 q 1030 505 1030 672 m 780 505 q 719 732 780 654 q 547 810 657 810 q 377 732 438 810 q 315 505 315 654 q 377 278 315 357 q 547 200 438 200 q 719 278 657 200 q 780 505 780 357 m 646 1278 l 805 1278 q 735 1129 804 1186 q 547 1073 666 1073 q 360 1129 429 1073 q 291 1278 291 1186 l 448 1278 q 471 1219 448 1246 q 547 1193 493 1193 q 623 1219 600 1193 q 646 1278 646 1245 z "},"Ő":{"ha":1095,"x_min":66,"x_max":1030,"o":"m 1030 505 q 966 222 1030 338 q 792 46 902 107 q 547 -14 683 -14 q 302 47 411 -14 q 129 223 193 107 q 66 505 66 339 q 129 788 66 672 q 302 964 193 904 q 547 1024 411 1024 q 792 964 683 1024 q 966 788 902 904 q 1030 505 1030 672 m 780 505 q 719 732 780 654 q 547 810 657 810 q 377 732 438 810 q 315 505 315 654 q 377 278 315 357 q 547 200 438 200 q 719 278 657 200 q 780 505 780 357 m 317 1099 l 456 1302 l 649 1302 l 483 1099 l 317 1099 m 587 1099 l 745 1302 l 939 1302 l 751 1099 l 587 1099 z "},"Ǒ":{"ha":1095,"x_min":66,"x_max":1030,"o":"m 1030 505 q 966 222 1030 338 q 792 46 902 107 q 547 -14 683 -14 q 302 47 411 -14 q 129 223 193 107 q 66 505 66 339 q 129 788 66 672 q 302 964 193 904 q 547 1024 411 1024 q 792 964 683 1024 q 966 788 902 904 q 1030 505 1030 672 m 780 505 q 719 732 780 654 q 547 810 657 810 q 377 732 438 810 q 315 505 315 654 q 377 278 315 357 q 547 200 438 200 q 719 278 657 200 q 780 505 780 357 m 450 1328 l 547 1214 l 646 1328 l 847 1328 l 847 1322 l 634 1101 l 461 1101 l 248 1322 l 248 1328 l 450 1328 z "},"Ǫ":{"ha":1095,"x_min":66,"x_max":1030,"o":"m 1030 505 q 966 222 1030 338 q 792 46 902 107 q 547 -14 683 -14 q 302 47 411 -14 q 129 223 193 107 q 66 505 66 339 q 129 788 66 672 q 302 964 193 904 q 547 1024 411 1024 q 792 964 683 1024 q 966 788 902 904 q 1030 505 1030 672 m 780 505 q 719 732 780 654 q 547 810 657 810 q 377 732 438 810 q 315 505 315 654 q 377 278 315 357 q 547 200 438 200 q 719 278 657 200 q 780 505 780 357 m 581 -276 q 469 -242 514 -276 q 408 -146 423 -209 q 404 -62 398 -105 q 431 14 409 -20 q 488 65 452 48 l 679 2 q 604 -37 632 -16 q 577 -91 577 -58 q 623 -141 576 -141 q 650 -137 638 -141 q 670 -131 661 -134 l 697 -247 q 649 -267 678 -257 q 581 -276 620 -276 z "},"Ǭ":{"ha":1095,"x_min":66,"x_max":1030,"o":"m 1030 505 q 966 222 1030 338 q 792 46 902 107 q 547 -14 683 -14 q 302 47 411 -14 q 129 223 193 107 q 66 505 66 339 q 129 788 66 672 q 302 964 193 904 q 547 1024 411 1024 q 792 964 683 1024 q 966 788 902 904 q 1030 505 1030 672 m 780 505 q 719 732 780 654 q 547 810 657 810 q 377 732 438 810 q 315 505 315 654 q 377 278 315 357 q 547 200 438 200 q 719 278 657 200 q 780 505 780 357 m 581 -276 q 469 -242 514 -276 q 408 -146 423 -209 q 404 -62 398 -105 q 431 14 409 -20 q 488 65 452 48 l 679 2 q 604 -37 632 -16 q 577 -91 577 -58 q 623 -141 576 -141 q 650 -137 638 -141 q 670 -131 661 -134 l 697 -247 q 649 -267 678 -257 q 581 -276 620 -276 m 791 1263 l 791 1143 l 304 1143 l 304 1263 l 791 1263 z "},"Ȍ":{"ha":1095,"x_min":66,"x_max":1030,"o":"m 1030 505 q 966 222 1030 338 q 792 46 902 107 q 547 -14 683 -14 q 302 47 411 -14 q 129 223 193 107 q 66 505 66 339 q 129 788 66 672 q 302 964 193 904 q 547 1024 411 1024 q 792 964 683 1024 q 966 788 902 904 q 1030 505 1030 672 m 780 505 q 719 732 780 654 q 547 810 657 810 q 377 732 438 810 q 315 505 315 654 q 377 278 315 357 q 547 200 438 200 q 719 278 657 200 q 780 505 780 357 m 489 1106 l 313 1152 l 224 1329 l 434 1283 l 489 1106 m 741 1106 l 577 1152 l 530 1329 l 721 1283 l 741 1106 z "},"Ȏ":{"ha":1095,"x_min":66,"x_max":1030,"o":"m 1030 505 q 966 222 1030 338 q 792 46 902 107 q 547 -14 683 -14 q 302 47 411 -14 q 129 223 193 107 q 66 505 66 339 q 129 788 66 672 q 302 964 193 904 q 547 1024 411 1024 q 792 964 683 1024 q 966 788 902 904 q 1030 505 1030 672 m 780 505 q 719 732 780 654 q 547 810 657 810 q 377 732 438 810 q 315 505 315 654 q 377 278 315 357 q 547 200 438 200 q 719 278 657 200 q 780 505 780 357 m 289 1130 q 358 1283 289 1223 q 546 1342 428 1342 q 734 1283 664 1342 q 805 1130 804 1223 l 646 1130 q 622 1189 645 1163 q 546 1215 600 1215 q 470 1189 493 1215 q 448 1130 447 1163 l 289 1130 z "},"Ȫ":{"ha":1095,"x_min":66,"x_max":1030,"o":"m 1030 505 q 966 222 1030 338 q 792 46 902 107 q 547 -14 683 -14 q 302 47 411 -14 q 129 223 193 107 q 66 505 66 339 q 129 788 66 672 q 302 964 193 904 q 547 1024 411 1024 q 792 964 683 1024 q 966 788 902 904 q 1030 505 1030 672 m 780 505 q 719 732 780 654 q 547 810 657 810 q 377 732 438 810 q 315 505 315 654 q 377 278 315 357 q 547 200 438 200 q 719 278 657 200 q 780 505 780 357 m 395 1106 q 315 1138 348 1106 q 283 1214 283 1170 q 315 1290 283 1259 q 395 1321 348 1321 q 473 1290 440 1321 q 505 1214 505 1259 q 473 1138 505 1170 q 395 1106 440 1106 m 702 1106 q 623 1138 656 1106 q 590 1214 590 1170 q 623 1290 590 1259 q 702 1321 656 1321 q 781 1290 748 1321 q 813 1214 813 1259 q 781 1138 813 1170 q 702 1106 748 1106 m 791 1515 l 791 1396 l 304 1396 l 304 1515 l 791 1515 z "},"Ȭ":{"ha":1095,"x_min":66,"x_max":1030,"o":"m 1030 505 q 966 222 1030 338 q 792 46 902 107 q 547 -14 683 -14 q 302 47 411 -14 q 129 223 193 107 q 66 505 66 339 q 129 788 66 672 q 302 964 193 904 q 547 1024 411 1024 q 792 964 683 1024 q 966 788 902 904 q 1030 505 1030 672 m 780 505 q 719 732 780 654 q 547 810 657 810 q 377 732 438 810 q 315 505 315 654 q 377 278 315 357 q 547 200 438 200 q 719 278 657 200 q 780 505 780 357 m 792 1457 l 792 1338 l 303 1338 l 303 1457 l 792 1457 m 664 1273 l 759 1246 q 726 1161 759 1199 q 643 1124 693 1124 q 579 1134 606 1124 q 529 1156 553 1145 q 474 1167 505 1167 q 444 1150 457 1167 q 432 1109 432 1133 l 338 1136 q 369 1221 338 1184 q 451 1259 400 1259 q 509 1248 481 1259 q 564 1227 537 1237 q 619 1216 591 1216 q 650 1233 637 1216 q 664 1273 663 1249 z "},"Ȯ":{"ha":1095,"x_min":66,"x_max":1030,"o":"m 1030 505 q 966 222 1030 338 q 792 46 902 107 q 547 -14 683 -14 q 302 47 411 -14 q 129 223 193 107 q 66 505 66 339 q 129 788 66 672 q 302 964 193 904 q 547 1024 411 1024 q 792 964 683 1024 q 966 788 902 904 q 1030 505 1030 672 m 780 505 q 719 732 780 654 q 547 810 657 810 q 377 732 438 810 q 315 505 315 654 q 377 278 315 357 q 547 200 438 200 q 719 278 657 200 q 780 505 780 357 m 547 1098 q 460 1132 497 1098 q 424 1214 424 1166 q 460 1295 424 1262 q 547 1329 497 1329 q 635 1295 599 1329 q 671 1214 671 1262 q 635 1132 671 1166 q 547 1098 599 1098 z "},"Ȱ":{"ha":1095,"x_min":66,"x_max":1030,"o":"m 1030 505 q 966 222 1030 338 q 792 46 902 107 q 547 -14 683 -14 q 302 47 411 -14 q 129 223 193 107 q 66 505 66 339 q 129 788 66 672 q 302 964 193 904 q 547 1024 411 1024 q 792 964 683 1024 q 966 788 902 904 q 1030 505 1030 672 m 780 505 q 719 732 780 654 q 547 810 657 810 q 377 732 438 810 q 315 505 315 654 q 377 278 315 357 q 547 200 438 200 q 719 278 657 200 q 780 505 780 357 m 791 1515 l 791 1396 l 304 1396 l 304 1515 l 791 1515 m 548 1106 q 468 1138 502 1106 q 435 1213 435 1169 q 468 1290 435 1258 q 548 1321 502 1321 q 628 1290 595 1321 q 661 1213 661 1258 q 628 1138 661 1169 q 548 1106 595 1106 z "},"Ṍ":{"ha":1095,"x_min":66,"x_max":1030,"o":"m 1030 505 q 966 222 1030 338 q 792 46 902 107 q 547 -14 683 -14 q 302 47 411 -14 q 129 223 193 107 q 66 505 66 339 q 129 788 66 672 q 302 964 193 904 q 547 1024 411 1024 q 792 964 683 1024 q 966 788 902 904 q 1030 505 1030 672 m 780 505 q 719 732 780 654 q 547 810 657 810 q 377 732 438 810 q 315 505 315 654 q 377 278 315 357 q 547 200 438 200 q 719 278 657 200 q 780 505 780 357 m 417 1093 l 298 1094 q 343 1232 298 1185 q 454 1278 389 1278 q 520 1265 493 1279 q 568 1235 546 1250 q 598 1216 583 1224 q 627 1208 612 1208 q 667 1227 654 1208 q 680 1278 680 1246 l 797 1276 q 751 1139 796 1186 q 642 1091 706 1091 q 574 1105 600 1090 q 528 1134 548 1119 q 499 1153 512 1145 q 468 1161 485 1161 q 431 1143 445 1161 q 417 1093 417 1126 m 448 1334 l 581 1516 l 787 1516 l 615 1334 l 448 1334 z "},"Ṏ":{"ha":1095,"x_min":66,"x_max":1030,"o":"m 1030 505 q 966 222 1030 338 q 792 46 902 107 q 547 -14 683 -14 q 302 47 411 -14 q 129 223 193 107 q 66 505 66 339 q 129 788 66 672 q 302 964 193 904 q 547 1024 411 1024 q 792 964 683 1024 q 966 788 902 904 q 1030 505 1030 672 m 780 505 q 719 732 780 654 q 547 810 657 810 q 377 732 438 810 q 315 505 315 654 q 377 278 315 357 q 547 200 438 200 q 719 278 657 200 q 780 505 780 357 m 662 1258 l 758 1231 q 724 1145 757 1181 q 643 1108 691 1108 q 579 1119 606 1108 q 528 1140 552 1129 q 474 1151 504 1151 q 444 1134 456 1151 q 432 1093 432 1118 l 338 1120 q 369 1206 338 1168 q 451 1243 400 1243 q 509 1233 481 1243 q 563 1211 536 1222 q 619 1200 591 1200 q 649 1217 637 1200 q 662 1258 662 1234 m 594 1380 q 622 1439 593 1415 q 695 1463 650 1463 q 767 1439 739 1463 q 796 1380 795 1415 q 767 1322 795 1345 q 695 1299 739 1299 q 622 1322 650 1299 q 594 1380 593 1345 m 298 1380 q 326 1439 298 1415 q 398 1463 354 1463 q 471 1439 441 1463 q 500 1380 500 1415 q 471 1322 500 1345 q 398 1299 442 1299 q 326 1322 354 1299 q 298 1380 298 1345 z "},"Ṑ":{"ha":1095,"x_min":66,"x_max":1030,"o":"m 1030 505 q 966 222 1030 338 q 792 46 902 107 q 547 -14 683 -14 q 302 47 411 -14 q 129 223 193 107 q 66 505 66 339 q 129 788 66 672 q 302 964 193 904 q 547 1024 411 1024 q 792 964 683 1024 q 966 788 902 904 q 1030 505 1030 672 m 780 505 q 719 732 780 654 q 547 810 657 810 q 377 732 438 810 q 315 505 315 654 q 377 278 315 357 q 547 200 438 200 q 719 278 657 200 q 780 505 780 357 m 791 1241 l 791 1122 l 304 1122 l 304 1241 l 791 1241 m 471 1331 l 301 1513 l 508 1513 l 642 1331 l 471 1331 z "},"Ṓ":{"ha":1095,"x_min":66,"x_max":1030,"o":"m 1030 505 q 966 222 1030 338 q 792 46 902 107 q 547 -14 683 -14 q 302 47 411 -14 q 129 223 193 107 q 66 505 66 339 q 129 788 66 672 q 302 964 193 904 q 547 1024 411 1024 q 792 964 683 1024 q 966 788 902 904 q 1030 505 1030 672 m 780 505 q 719 732 780 654 q 547 810 657 810 q 377 732 438 810 q 315 505 315 654 q 377 278 315 357 q 547 200 438 200 q 719 278 657 200 q 780 505 780 357 m 791 1241 l 791 1122 l 304 1122 l 304 1241 l 791 1241 m 453 1331 l 588 1513 l 794 1513 l 624 1331 l 453 1331 z "},"Ọ":{"ha":1095,"x_min":66,"x_max":1030,"o":"m 1030 505 q 966 222 1030 338 q 792 46 902 107 q 547 -14 683 -14 q 302 47 411 -14 q 129 223 193 107 q 66 505 66 339 q 129 788 66 672 q 302 964 193 904 q 547 1024 411 1024 q 792 964 683 1024 q 966 788 902 904 q 1030 505 1030 672 m 780 505 q 719 732 780 654 q 547 810 657 810 q 377 732 438 810 q 315 505 315 654 q 377 278 315 357 q 547 200 438 200 q 719 278 657 200 q 780 505 780 357 m 548 -295 q 461 -261 497 -295 q 424 -180 424 -227 q 461 -98 424 -132 q 548 -65 497 -65 q 636 -98 599 -65 q 672 -180 672 -132 q 636 -261 672 -227 q 548 -295 599 -295 z "},"Ỏ":{"ha":1095,"x_min":66,"x_max":1030,"o":"m 1030 505 q 966 222 1030 338 q 792 46 902 107 q 547 -14 683 -14 q 302 47 411 -14 q 129 223 193 107 q 66 505 66 339 q 129 788 66 672 q 302 964 193 904 q 547 1024 411 1024 q 792 964 683 1024 q 966 788 902 904 q 1030 505 1030 672 m 780 505 q 719 732 780 654 q 547 810 657 810 q 377 732 438 810 q 315 505 315 654 q 377 278 315 357 q 547 200 438 200 q 719 278 657 200 q 780 505 780 357 m 633 1121 l 458 1121 l 444 1203 q 518 1217 496 1205 q 540 1246 541 1229 q 513 1281 541 1273 q 444 1290 486 1290 l 450 1392 q 666 1356 592 1392 q 739 1257 740 1321 q 707 1191 740 1213 q 633 1162 674 1168 l 633 1121 z "},"Ố":{"ha":1095,"x_min":66,"x_max":1042,"o":"m 1030 505 q 966 222 1030 338 q 792 46 902 107 q 547 -14 683 -14 q 302 47 411 -14 q 129 223 193 107 q 66 505 66 339 q 129 788 66 672 q 302 964 193 904 q 547 1024 411 1024 q 792 964 683 1024 q 966 788 902 904 q 1030 505 1030 672 m 780 505 q 719 732 780 654 q 547 810 657 810 q 377 732 438 810 q 315 505 315 654 q 377 278 315 357 q 547 200 438 200 q 719 278 657 200 q 780 505 780 357 m 290 1089 l 488 1234 l 603 1234 l 803 1089 l 648 1089 l 546 1165 l 444 1089 l 290 1089 m 751 1165 l 873 1352 l 1042 1352 l 876 1165 l 751 1165 z "},"Ồ":{"ha":1095,"x_min":53,"x_max":1030,"o":"m 1030 505 q 966 222 1030 338 q 792 46 902 107 q 547 -14 683 -14 q 302 47 411 -14 q 129 223 193 107 q 66 505 66 339 q 129 788 66 672 q 302 964 193 904 q 547 1024 411 1024 q 792 964 683 1024 q 966 788 902 904 q 1030 505 1030 672 m 780 505 q 719 732 780 654 q 547 810 657 810 q 377 732 438 810 q 315 505 315 654 q 377 278 315 357 q 547 200 438 200 q 719 278 657 200 q 780 505 780 357 m 604 1230 l 803 1086 l 649 1086 l 547 1162 l 444 1086 l 291 1086 l 489 1230 l 604 1230 m 219 1347 l 343 1162 l 220 1162 l 53 1347 l 219 1347 z "},"Ổ":{"ha":1095,"x_min":66,"x_max":1030,"o":"m 1030 505 q 966 222 1030 338 q 792 46 902 107 q 547 -14 683 -14 q 302 47 411 -14 q 129 223 193 107 q 66 505 66 339 q 129 788 66 672 q 302 964 193 904 q 547 1024 411 1024 q 792 964 683 1024 q 966 788 902 904 q 1030 505 1030 672 m 780 505 q 719 732 780 654 q 547 810 657 810 q 377 732 438 810 q 315 505 315 654 q 377 278 315 357 q 547 200 438 200 q 719 278 657 200 q 780 505 780 357 m 604 1231 l 800 1087 l 648 1087 l 547 1160 l 443 1087 l 291 1087 l 488 1231 l 604 1231 m 853 1170 l 736 1170 l 723 1239 q 785 1250 766 1240 q 804 1274 804 1259 q 781 1304 804 1297 q 723 1311 758 1311 l 728 1395 q 887 1366 833 1395 q 942 1283 942 1337 q 914 1229 942 1248 q 853 1203 886 1209 l 853 1170 z "},"Ỗ":{"ha":1095,"x_min":66,"x_max":1030,"o":"m 1030 505 q 966 222 1030 338 q 792 46 902 107 q 547 -14 683 -14 q 302 47 411 -14 q 129 223 193 107 q 66 505 66 339 q 129 788 66 672 q 302 964 193 904 q 547 1024 411 1024 q 792 964 683 1024 q 966 788 902 904 q 1030 505 1030 672 m 780 505 q 719 732 780 654 q 547 810 657 810 q 377 732 438 810 q 315 505 315 654 q 377 278 315 357 q 547 200 438 200 q 719 278 657 200 q 780 505 780 357 m 607 1235 l 803 1089 l 651 1089 l 547 1164 l 446 1089 l 291 1089 l 489 1235 l 607 1235 m 651 1401 l 729 1373 q 706 1299 729 1333 q 642 1266 683 1266 q 586 1277 612 1266 q 538 1298 561 1287 q 490 1308 514 1308 q 468 1295 475 1308 q 462 1263 461 1281 l 385 1284 q 407 1355 384 1322 q 472 1388 430 1388 q 522 1378 496 1388 q 574 1358 548 1368 q 623 1347 600 1347 q 643 1365 637 1347 q 651 1401 650 1382 z "},"Ộ":{"ha":1095,"x_min":66,"x_max":1030,"o":"m 1030 505 q 966 222 1030 338 q 792 46 902 107 q 547 -14 683 -14 q 302 47 411 -14 q 129 223 193 107 q 66 505 66 339 q 129 788 66 672 q 302 964 193 904 q 547 1024 411 1024 q 792 964 683 1024 q 966 788 902 904 q 1030 505 1030 672 m 780 505 q 719 732 780 654 q 547 810 657 810 q 377 732 438 810 q 315 505 315 654 q 377 278 315 357 q 547 200 438 200 q 719 278 657 200 q 780 505 780 357 m 450 1100 l 248 1100 l 248 1106 l 461 1327 l 634 1327 l 847 1106 l 847 1100 l 646 1100 l 547 1214 l 450 1100 m 548 -295 q 461 -261 497 -295 q 424 -180 424 -227 q 461 -98 424 -132 q 548 -65 497 -65 q 636 -98 599 -65 q 672 -180 672 -132 q 636 -261 672 -227 q 548 -295 599 -295 z "},"Ớ":{"ha":1148,"x_min":66,"x_max":1131,"o":"m 989 1052 l 1131 1052 q 1095 862 1131 938 q 980 758 1059 787 q 1017 641 1004 704 q 1030 505 1030 578 q 966 222 1030 338 q 792 46 902 107 q 547 -14 683 -14 q 302 47 411 -14 q 129 223 193 107 q 66 505 66 339 q 129 788 66 672 q 302 964 193 904 q 547 1024 411 1024 q 755 982 660 1024 q 917 860 851 941 q 974 926 959 876 q 989 1052 989 975 m 780 505 q 719 732 780 654 q 547 810 657 810 q 377 732 438 810 q 315 505 315 654 q 377 278 315 357 q 547 200 438 200 q 719 278 657 200 q 780 505 780 357 m 465 1106 l 564 1329 l 778 1329 l 629 1106 l 465 1106 z "},"Ờ":{"ha":1148,"x_min":66,"x_max":1131,"o":"m 989 1052 l 1131 1052 q 1095 862 1131 938 q 980 758 1059 787 q 1017 641 1004 704 q 1030 505 1030 578 q 966 222 1030 338 q 792 46 902 107 q 547 -14 683 -14 q 302 47 411 -14 q 129 223 193 107 q 66 505 66 339 q 129 788 66 672 q 302 964 193 904 q 547 1024 411 1024 q 755 982 660 1024 q 917 860 851 941 q 974 926 959 876 q 989 1052 989 975 m 780 505 q 719 732 780 654 q 547 810 657 810 q 377 732 438 810 q 315 505 315 654 q 377 278 315 357 q 547 200 438 200 q 719 278 657 200 q 780 505 780 357 m 467 1106 l 318 1329 l 531 1329 l 631 1106 l 467 1106 z "},"Ở":{"ha":1148,"x_min":66,"x_max":1131,"o":"m 989 1052 l 1131 1052 q 1095 862 1131 938 q 980 758 1059 787 q 1017 641 1004 704 q 1030 505 1030 578 q 966 222 1030 338 q 792 46 902 107 q 547 -14 683 -14 q 302 47 411 -14 q 129 223 193 107 q 66 505 66 339 q 129 788 66 672 q 302 964 193 904 q 547 1024 411 1024 q 755 982 660 1024 q 917 860 851 941 q 974 926 959 876 q 989 1052 989 975 m 780 505 q 719 732 780 654 q 547 810 657 810 q 377 732 438 810 q 315 505 315 654 q 377 278 315 357 q 547 200 438 200 q 719 278 657 200 q 780 505 780 357 m 633 1121 l 458 1121 l 444 1203 q 518 1217 496 1205 q 540 1246 541 1229 q 513 1281 541 1273 q 444 1290 486 1290 l 450 1392 q 666 1356 592 1392 q 739 1257 740 1321 q 707 1191 740 1213 q 633 1162 674 1168 l 633 1121 z "},"Ỡ":{"ha":1148,"x_min":66,"x_max":1131,"o":"m 989 1052 l 1131 1052 q 1095 862 1131 938 q 980 758 1059 787 q 1017 641 1004 704 q 1030 505 1030 578 q 966 222 1030 338 q 792 46 902 107 q 547 -14 683 -14 q 302 47 411 -14 q 129 223 193 107 q 66 505 66 339 q 129 788 66 672 q 302 964 193 904 q 547 1024 411 1024 q 755 982 660 1024 q 917 860 851 941 q 974 926 959 876 q 989 1052 989 975 m 780 505 q 719 732 780 654 q 547 810 657 810 q 377 732 438 810 q 315 505 315 654 q 377 278 315 357 q 547 200 438 200 q 719 278 657 200 q 780 505 780 357 m 410 1104 l 284 1105 q 332 1256 284 1205 q 448 1308 380 1308 q 518 1292 490 1308 q 569 1260 546 1277 q 600 1239 585 1248 q 631 1231 615 1231 q 673 1252 659 1231 q 687 1307 687 1272 l 811 1306 q 762 1154 809 1206 q 647 1102 715 1102 q 576 1117 603 1101 q 526 1149 548 1132 q 496 1170 510 1161 q 464 1179 481 1179 q 425 1159 439 1179 q 410 1104 410 1140 z "},"Ợ":{"ha":1148,"x_min":66,"x_max":1131,"o":"m 989 1052 l 1131 1052 q 1095 862 1131 938 q 980 758 1059 787 q 1017 641 1004 704 q 1030 505 1030 578 q 966 222 1030 338 q 792 46 902 107 q 547 -14 683 -14 q 302 47 411 -14 q 129 223 193 107 q 66 505 66 339 q 129 788 66 672 q 302 964 193 904 q 547 1024 411 1024 q 755 982 660 1024 q 917 860 851 941 q 974 926 959 876 q 989 1052 989 975 m 780 505 q 719 732 780 654 q 547 810 657 810 q 377 732 438 810 q 315 505 315 654 q 377 278 315 357 q 547 200 438 200 q 719 278 657 200 q 780 505 780 357 m 548 -295 q 461 -261 497 -295 q 424 -180 424 -227 q 461 -98 424 -132 q 548 -65 497 -65 q 636 -98 599 -65 q 672 -180 672 -132 q 636 -261 672 -227 q 548 -295 599 -295 z "},"Ǿ":{"ha":1095,"x_min":66,"x_max":1030,"o":"m 234 -51 l 130 19 l 203 123 q 102 285 139 189 q 66 505 66 381 q 129 788 66 672 q 302 964 193 904 q 547 1024 411 1024 q 794 963 685 1024 l 861 1059 l 964 989 l 893 887 q 993 725 957 821 q 1030 505 1030 629 q 966 222 1030 338 q 792 46 902 107 q 547 -14 683 -14 q 302 46 410 -14 l 234 -51 m 347 328 l 665 780 q 547 810 615 810 q 377 732 438 810 q 315 505 315 654 q 347 328 315 400 m 780 505 q 748 682 780 610 l 431 230 q 547 200 480 200 q 719 278 657 200 q 780 505 780 357 m 465 1106 l 564 1329 l 778 1329 l 629 1106 l 465 1106 z "},"Ο":{"ha":1095,"x_min":66,"x_max":1030,"o":"m 1030 505 q 966 222 1030 338 q 792 46 902 107 q 547 -14 683 -14 q 302 47 411 -14 q 129 223 193 107 q 66 505 66 339 q 129 788 66 672 q 302 964 193 904 q 547 1024 411 1024 q 792 964 683 1024 q 966 788 902 904 q 1030 505 1030 672 m 780 505 q 719 732 780 654 q 547 810 657 810 q 377 732 438 810 q 315 505 315 654 q 377 278 315 357 q 547 200 438 200 q 719 278 657 200 q 780 505 780 357 z "},"Ό":{"ha":1127,"x_min":-17,"x_max":1108,"o":"m 1108 505 q 1044 222 1108 338 q 870 46 980 107 q 625 -14 761 -14 q 380 47 489 -14 q 207 223 271 107 q 144 505 144 339 q 207 788 144 672 q 380 964 271 904 q 625 1024 489 1024 q 870 964 761 1024 q 1044 788 980 904 q 1108 505 1108 672 m 858 505 q 797 732 858 654 q 625 810 735 810 q 454 732 516 810 q 393 505 393 654 q 454 278 393 357 q 625 200 516 200 q 797 278 735 200 q 858 505 858 357 m -17 850 l 41 1086 l 250 1086 l 120 850 l -17 850 z "},"Ὀ":{"ha":1137,"x_min":-16,"x_max":1118,"o":"m 1118 505 q 1054 222 1118 338 q 880 46 989 107 q 635 -14 771 -14 q 390 47 499 -14 q 217 223 281 107 q 153 505 153 339 q 217 788 153 672 q 390 964 281 904 q 635 1024 499 1024 q 880 964 771 1024 q 1054 788 989 904 q 1118 505 1118 672 m 868 505 q 806 732 868 654 q 635 810 745 810 q 464 732 526 810 q 402 505 402 654 q 464 278 402 357 q 635 200 526 200 q 806 278 745 200 q 868 505 868 357 m 155 1010 l 155 942 q 123 832 155 877 q 43 765 90 786 l -16 834 q 27 880 16 852 q 37 946 37 909 l 37 1010 l 155 1010 z "},"Ὁ":{"ha":1183,"x_min":57,"x_max":1163,"o":"m 1163 505 q 1099 222 1163 338 q 926 46 1035 107 q 681 -14 816 -14 q 435 47 545 -14 q 262 223 326 107 q 199 505 199 339 q 262 788 199 672 q 435 964 326 904 q 681 1024 545 1024 q 926 964 816 1024 q 1099 788 1035 904 q 1163 505 1163 672 m 913 505 q 852 732 913 654 q 681 810 790 810 q 510 732 572 810 q 448 505 448 654 q 510 278 448 357 q 681 200 572 200 q 852 278 790 200 q 913 505 913 357 m 57 942 l 57 1010 l 176 1010 l 176 946 q 186 884 177 915 q 228 834 196 853 l 169 765 q 90 832 123 786 q 57 942 58 877 z "},"Ὂ":{"ha":1376,"x_min":-11,"x_max":1356,"o":"m 1356 505 q 1292 222 1356 338 q 1119 46 1228 107 q 874 -14 1010 -14 q 629 47 738 -14 q 456 223 519 107 q 392 505 392 339 q 456 788 392 672 q 629 964 519 904 q 874 1024 738 1024 q 1119 964 1010 1024 q 1292 788 1228 904 q 1356 505 1356 672 m 1107 505 q 1045 732 1107 654 q 874 810 983 810 q 703 732 765 810 q 641 505 641 654 q 703 278 641 357 q 874 200 765 200 q 1045 278 983 200 q 1107 505 1107 357 m 175 1010 l 175 955 q 140 847 175 896 q 44 765 106 798 l -11 807 q 32 874 17 838 q 46 959 46 911 l 46 1010 l 175 1010 m 435 791 l 435 781 l 368 781 l 206 996 l 206 1010 l 354 1010 l 435 791 z "},"Ὃ":{"ha":1335,"x_min":-18,"x_max":1315,"o":"m 1315 505 q 1251 222 1315 338 q 1078 46 1187 107 q 833 -14 969 -14 q 588 47 697 -14 q 415 223 478 107 q 351 505 351 339 q 415 788 351 672 q 588 964 478 904 q 833 1024 697 1024 q 1078 964 969 1024 q 1251 788 1187 904 q 1315 505 1315 672 m 1066 505 q 1004 732 1066 654 q 833 810 943 810 q 662 732 724 810 q 600 505 600 654 q 662 278 600 357 q 833 200 724 200 q 1004 278 943 200 q 1066 505 1066 357 m -18 942 l -18 1010 l 103 1010 l 103 946 q 112 884 103 915 q 156 834 121 853 l 97 765 q 15 832 48 786 q -18 942 -18 877 m 389 798 l 389 780 l 323 780 l 161 996 l 161 1010 l 311 1010 l 389 798 z "},"Ὄ":{"ha":1284,"x_min":-8,"x_max":1265,"o":"m 1265 505 q 1200 222 1265 338 q 1027 46 1136 107 q 782 -14 918 -14 q 537 47 646 -14 q 364 223 428 107 q 300 505 300 339 q 364 788 300 672 q 537 964 428 904 q 782 1024 646 1024 q 1027 964 918 1024 q 1200 788 1136 904 q 1265 505 1265 672 m 1015 505 q 953 732 1015 654 q 782 810 892 810 q 611 732 673 810 q 549 505 549 654 q 611 278 549 357 q 782 200 673 200 q 953 278 892 200 q 1015 505 1015 357 m 166 1010 l 166 942 q 133 832 166 878 q 51 765 100 786 l -8 834 q 36 884 26 853 q 45 946 45 915 l 45 1010 l 166 1010 m 190 780 l 190 798 l 270 1010 l 419 1010 l 419 996 l 256 780 l 190 780 z "},"Ὅ":{"ha":1300,"x_min":-10,"x_max":1280,"o":"m 1280 505 q 1216 222 1280 338 q 1043 46 1152 107 q 798 -14 934 -14 q 553 47 662 -14 q 380 223 443 107 q 316 505 316 339 q 380 788 316 672 q 553 964 443 904 q 798 1024 662 1024 q 1043 964 934 1024 q 1216 788 1152 904 q 1280 505 1280 672 m 1031 505 q 969 732 1031 654 q 798 810 908 810 q 627 732 689 810 q 565 505 565 654 q 627 278 565 357 q 798 200 689 200 q 969 278 908 200 q 1031 505 1031 357 m 102 765 q 25 830 59 785 q -10 942 -9 875 l -10 1010 l 109 1010 l 109 946 q 120 880 110 909 q 162 834 131 852 l 102 765 m 205 780 l 205 798 l 281 1010 l 432 1010 l 432 996 l 268 780 l 205 780 z "},"Ὸ":{"ha":1165,"x_min":-11,"x_max":1145,"o":"m 1145 505 q 1081 222 1145 338 q 908 46 1017 107 q 663 -14 799 -14 q 418 47 527 -14 q 245 223 308 107 q 181 505 181 339 q 245 788 181 672 q 418 964 308 904 q 663 1024 527 1024 q 908 964 799 1024 q 1081 788 1017 904 q 1145 505 1145 672 m 896 505 q 834 732 896 654 q 663 810 772 810 q 492 732 554 810 q 430 505 430 654 q 492 278 430 357 q 663 200 554 200 q 834 278 772 200 q 896 505 896 357 m 151 779 l -11 996 l -11 1010 l 138 1010 l 215 800 l 215 779 l 151 779 z "},"ϴ":{"ha":1095,"x_min":66,"x_max":1030,"o":"m 1030 505 q 966 222 1030 338 q 792 46 902 107 q 547 -14 683 -14 q 302 47 411 -14 q 129 223 193 107 q 66 505 66 339 q 129 788 66 672 q 302 964 193 904 q 547 1024 411 1024 q 792 964 683 1024 q 966 788 902 904 q 1030 505 1030 672 m 547 200 q 702 259 643 200 q 776 431 761 318 l 319 431 q 393 259 334 318 q 547 200 453 200 m 776 579 q 702 751 761 692 q 547 810 643 810 q 393 751 453 810 q 319 579 334 692 l 776 579 z "},"Ό":{"ha":1081,"x_min":24,"x_max":1061,"o":"m 1061 505 q 997 222 1061 338 q 823 46 933 107 q 579 -14 714 -14 q 333 47 442 -14 q 160 223 224 107 q 97 505 97 339 q 160 788 97 672 q 333 964 224 904 q 579 1024 442 1024 q 823 964 714 1024 q 997 788 933 904 q 1061 505 1061 672 m 811 505 q 750 732 811 654 q 579 810 688 810 q 408 732 470 810 q 346 505 346 654 q 408 278 346 357 q 579 200 470 200 q 750 278 688 200 q 811 505 811 357 m 24 852 l 24 873 l 102 1083 l 304 1083 l 304 1069 l 142 852 l 24 852 z "},"О":{"ha":1095,"x_min":66,"x_max":1030,"o":"m 1030 505 q 966 222 1030 338 q 792 46 902 107 q 547 -14 683 -14 q 302 47 411 -14 q 129 223 193 107 q 66 505 66 339 q 129 788 66 672 q 302 964 193 904 q 547 1024 411 1024 q 792 964 683 1024 q 966 788 902 904 q 1030 505 1030 672 m 780 505 q 719 732 780 654 q 547 810 657 810 q 377 732 438 810 q 315 505 315 654 q 377 278 315 357 q 547 200 438 200 q 719 278 657 200 q 780 505 780 357 z "},"Ӧ":{"ha":1095,"x_min":66,"x_max":1030,"o":"m 1030 505 q 966 222 1030 338 q 792 46 902 107 q 547 -14 683 -14 q 302 47 411 -14 q 129 223 193 107 q 66 505 66 339 q 129 788 66 672 q 302 964 193 904 q 547 1024 411 1024 q 792 964 683 1024 q 966 788 902 904 q 1030 505 1030 672 m 780 505 q 719 732 780 654 q 547 810 657 810 q 377 732 438 810 q 315 505 315 654 q 377 278 315 357 q 547 200 438 200 q 719 278 657 200 q 780 505 780 357 m 395 1106 q 315 1138 348 1106 q 283 1214 283 1170 q 315 1290 283 1259 q 395 1321 348 1321 q 473 1290 440 1321 q 505 1214 505 1259 q 473 1138 505 1170 q 395 1106 440 1106 m 702 1106 q 623 1138 656 1106 q 590 1214 590 1170 q 623 1290 590 1259 q 702 1321 656 1321 q 781 1290 748 1321 q 813 1214 813 1259 q 781 1138 813 1170 q 702 1106 748 1106 z "},"Ɵ":{"ha":1095,"x_min":66,"x_max":1030,"o":"m 1030 505 q 966 222 1030 338 q 792 46 902 107 q 547 -14 683 -14 q 302 47 411 -14 q 129 223 193 107 q 66 505 66 339 q 129 788 66 672 q 302 964 193 904 q 547 1024 411 1024 q 792 964 683 1024 q 966 788 902 904 q 1030 505 1030 672 m 547 200 q 702 259 643 200 q 776 431 761 318 l 319 431 q 393 259 334 318 q 547 200 453 200 m 776 579 q 702 751 761 692 q 547 810 643 810 q 393 751 453 810 q 319 579 334 692 l 776 579 z "},"Ө":{"ha":1095,"x_min":66,"x_max":1030,"o":"m 1030 505 q 966 222 1030 338 q 792 46 902 107 q 547 -14 683 -14 q 302 47 411 -14 q 129 223 193 107 q 66 505 66 339 q 129 788 66 672 q 302 964 193 904 q 547 1024 411 1024 q 792 964 683 1024 q 966 788 902 904 q 1030 505 1030 672 m 547 200 q 702 259 643 200 q 776 431 761 318 l 319 431 q 393 259 334 318 q 547 200 453 200 m 776 579 q 702 751 761 692 q 547 810 643 810 q 393 751 453 810 q 319 579 334 692 l 776 579 z "},"Ӫ":{"ha":1095,"x_min":66,"x_max":1030,"o":"m 1030 505 q 966 222 1030 338 q 792 46 902 107 q 547 -14 683 -14 q 302 47 411 -14 q 129 223 193 107 q 66 505 66 339 q 129 788 66 672 q 302 964 193 904 q 547 1024 411 1024 q 792 964 683 1024 q 966 788 902 904 q 1030 505 1030 672 m 547 200 q 702 259 643 200 q 776 431 761 318 l 319 431 q 393 259 334 318 q 547 200 453 200 m 776 579 q 702 751 761 692 q 547 810 643 810 q 393 751 453 810 q 319 579 334 692 l 776 579 m 395 1106 q 315 1138 348 1106 q 283 1214 283 1170 q 315 1290 283 1259 q 395 1321 348 1321 q 473 1290 440 1321 q 505 1214 505 1259 q 473 1138 505 1170 q 395 1106 440 1106 m 702 1106 q 623 1138 656 1106 q 590 1214 590 1170 q 623 1290 590 1259 q 702 1321 656 1321 q 781 1290 748 1321 q 813 1214 813 1259 q 781 1138 813 1170 q 702 1106 748 1106 z "},"Œ":{"ha":1444,"x_min":66,"x_max":1367,"o":"m 529 0 q 293 56 398 0 q 127 224 188 112 q 66 504 66 336 q 127 785 66 672 q 293 954 188 897 q 529 1010 398 1010 l 1367 1010 l 1367 812 l 907 812 l 907 605 l 1331 605 l 1331 406 l 907 406 l 907 198 l 1367 198 l 1367 0 l 529 0 m 663 198 l 663 812 l 529 812 q 417 781 466 812 q 340 684 367 751 q 312 504 312 616 q 340 324 312 391 q 417 228 367 257 q 529 198 466 198 l 663 198 z "},"P":{"ha":906,"x_min":76,"x_max":862,"o":"m 76 0 l 76 1010 l 494 1010 q 690 966 607 1010 q 817 843 772 922 q 862 660 862 764 q 816 478 862 556 q 686 357 770 400 q 486 314 602 314 l 321 314 l 321 0 l 76 0 m 321 506 l 441 506 q 566 548 523 506 q 609 660 609 590 q 566 772 609 731 q 441 813 523 813 l 321 813 l 321 506 z "},"Ṕ":{"ha":906,"x_min":76,"x_max":862,"o":"m 76 0 l 76 1010 l 494 1010 q 690 966 607 1010 q 817 843 772 922 q 862 660 862 764 q 816 478 862 556 q 686 357 770 400 q 486 314 602 314 l 321 314 l 321 0 l 76 0 m 321 506 l 441 506 q 566 548 523 506 q 609 660 609 590 q 566 772 609 731 q 441 813 523 813 l 321 813 l 321 506 m 362 1106 l 461 1329 l 675 1329 l 526 1106 l 362 1106 z "},"Ṗ":{"ha":906,"x_min":76,"x_max":862,"o":"m 76 0 l 76 1010 l 494 1010 q 690 966 607 1010 q 817 843 772 922 q 862 660 862 764 q 816 478 862 556 q 686 357 770 400 q 486 314 602 314 l 321 314 l 321 0 l 76 0 m 321 506 l 441 506 q 566 548 523 506 q 609 660 609 590 q 566 772 609 731 q 441 813 523 813 l 321 813 l 321 506 m 444 1098 q 357 1132 394 1098 q 321 1214 321 1166 q 357 1295 321 1262 q 444 1329 394 1329 q 532 1295 496 1329 q 568 1214 568 1262 q 532 1132 568 1166 q 444 1098 496 1098 z "},"Ҏ":{"ha":931,"x_min":83,"x_max":869,"o":"m 83 0 l 83 1010 l 500 1010 q 696 966 614 1010 q 824 843 779 922 q 869 660 869 764 q 824 480 869 558 q 699 360 780 403 l 765 258 l 676 200 l 596 324 q 493 314 547 314 l 327 314 l 327 0 l 83 0 m 500 668 l 576 551 q 616 660 616 592 q 573 772 616 731 q 447 813 530 813 l 327 813 l 327 506 l 447 506 q 478 508 463 506 l 411 611 l 500 668 z "},"Ƥ":{"ha":1216,"x_min":43,"x_max":1173,"o":"m 259 620 l 43 620 l 43 730 q 129 936 43 861 q 362 1010 215 1010 l 804 1010 q 1000 966 918 1010 q 1128 843 1083 922 q 1173 660 1173 764 q 1127 478 1173 556 q 997 357 1081 400 q 797 314 913 314 l 631 314 l 631 0 l 387 0 l 387 813 l 362 813 q 298 794 321 813 q 267 745 276 775 q 259 686 258 716 l 259 620 m 631 506 l 752 506 q 877 548 834 506 q 920 660 920 590 q 877 772 920 731 q 752 813 834 813 l 631 813 l 631 506 z "},"Ρ":{"ha":906,"x_min":76,"x_max":862,"o":"m 76 0 l 76 1010 l 494 1010 q 690 966 607 1010 q 817 843 772 922 q 862 660 862 764 q 816 478 862 556 q 686 357 770 400 q 486 314 602 314 l 321 314 l 321 0 l 76 0 m 321 506 l 441 506 q 566 548 523 506 q 609 660 609 590 q 566 772 609 731 q 441 813 523 813 l 321 813 l 321 506 z "},"Ῥ":{"ha":1134,"x_min":71,"x_max":1069,"o":"m 283 0 l 283 1010 l 700 1010 q 896 966 814 1010 q 1024 843 979 922 q 1069 660 1069 764 q 1023 478 1069 556 q 893 357 977 400 q 693 314 809 314 l 527 314 l 527 0 l 283 0 m 527 506 l 648 506 q 773 548 730 506 q 816 660 816 590 q 773 772 816 731 q 648 813 730 813 l 527 813 l 527 506 m 71 942 l 71 1010 l 190 1010 l 190 946 q 200 884 191 915 q 242 834 210 853 l 183 765 q 105 832 137 786 q 71 942 72 877 z "},"Q":{"ha":1097,"x_min":66,"x_max":1030,"o":"m 1030 505 q 988 272 1030 372 q 874 105 946 171 l 1023 -79 l 802 -79 l 724 15 q 547 -14 641 -14 q 302 47 411 -14 q 129 223 193 107 q 66 505 66 339 q 129 788 66 672 q 302 964 193 904 q 547 1024 411 1024 q 792 964 683 1024 q 966 788 902 904 q 1030 505 1030 672 m 463 363 l 660 363 l 722 284 q 780 505 780 363 q 719 732 780 654 q 547 810 657 810 q 377 732 438 810 q 315 505 315 654 q 377 278 315 357 q 547 200 438 200 q 584 203 566 200 l 463 363 z "},"R":{"ha":919,"x_min":76,"x_max":897,"o":"m 76 0 l 76 1010 l 494 1010 q 690 969 607 1010 q 817 853 772 928 q 862 674 862 778 q 816 496 862 569 q 687 385 770 422 l 897 0 l 630 0 l 446 346 l 321 346 l 321 0 l 76 0 m 321 538 l 441 538 q 566 571 523 538 q 609 674 609 604 q 441 813 609 813 l 321 813 l 321 538 z "},"Ŕ":{"ha":919,"x_min":76,"x_max":897,"o":"m 76 0 l 76 1010 l 494 1010 q 690 969 607 1010 q 817 853 772 928 q 862 674 862 778 q 816 496 862 569 q 687 385 770 422 l 897 0 l 630 0 l 446 346 l 321 346 l 321 0 l 76 0 m 321 538 l 441 538 q 566 571 523 538 q 609 674 609 604 q 441 813 609 813 l 321 813 l 321 538 m 370 1106 l 470 1329 l 684 1329 l 535 1106 l 370 1106 z "},"Ŗ":{"ha":919,"x_min":76,"x_max":897,"o":"m 76 0 l 76 1010 l 494 1010 q 690 969 607 1010 q 817 853 772 928 q 862 674 862 778 q 816 496 862 569 q 687 385 770 422 l 897 0 l 630 0 l 446 346 l 321 346 l 321 0 l 76 0 m 321 538 l 441 538 q 566 571 523 538 q 609 674 609 604 q 441 813 609 813 l 321 813 l 321 538 m 299 -320 l 363 -80 l 582 -80 l 466 -320 l 299 -320 z "},"Ř":{"ha":919,"x_min":76,"x_max":897,"o":"m 76 0 l 76 1010 l 494 1010 q 690 969 607 1010 q 817 853 772 928 q 862 674 862 778 q 816 496 862 569 q 687 385 770 422 l 897 0 l 630 0 l 446 346 l 321 346 l 321 0 l 76 0 m 321 538 l 441 538 q 566 571 523 538 q 609 674 609 604 q 441 813 609 813 l 321 813 l 321 538 m 356 1328 l 454 1214 l 552 1328 l 754 1328 l 754 1322 l 541 1101 l 367 1101 l 154 1322 l 154 1328 l 356 1328 z "},"Ȑ":{"ha":919,"x_min":76,"x_max":897,"o":"m 76 0 l 76 1010 l 494 1010 q 690 969 607 1010 q 817 853 772 928 q 862 674 862 778 q 816 496 862 569 q 687 385 770 422 l 897 0 l 630 0 l 446 346 l 321 346 l 321 0 l 76 0 m 321 538 l 441 538 q 566 571 523 538 q 609 674 609 604 q 441 813 609 813 l 321 813 l 321 538 m 396 1106 l 219 1152 l 130 1329 l 340 1283 l 396 1106 m 647 1106 l 483 1152 l 436 1329 l 627 1283 l 647 1106 z "},"Ȓ":{"ha":919,"x_min":76,"x_max":897,"o":"m 76 0 l 76 1010 l 494 1010 q 690 969 607 1010 q 817 853 772 928 q 862 674 862 778 q 816 496 862 569 q 687 385 770 422 l 897 0 l 630 0 l 446 346 l 321 346 l 321 0 l 76 0 m 321 538 l 441 538 q 566 571 523 538 q 609 674 609 604 q 441 813 609 813 l 321 813 l 321 538 m 195 1130 q 264 1283 194 1223 q 452 1342 333 1342 q 640 1283 570 1342 q 711 1130 710 1223 l 551 1130 q 528 1189 551 1163 q 452 1215 506 1215 q 376 1189 399 1215 q 354 1130 353 1163 l 195 1130 z "},"Ṙ":{"ha":919,"x_min":76,"x_max":897,"o":"m 76 0 l 76 1010 l 494 1010 q 690 969 607 1010 q 817 853 772 928 q 862 674 862 778 q 816 496 862 569 q 687 385 770 422 l 897 0 l 630 0 l 446 346 l 321 346 l 321 0 l 76 0 m 321 538 l 441 538 q 566 571 523 538 q 609 674 609 604 q 441 813 609 813 l 321 813 l 321 538 m 454 1098 q 366 1132 403 1098 q 330 1214 330 1166 q 366 1295 330 1262 q 454 1329 403 1329 q 541 1295 505 1329 q 578 1214 578 1262 q 541 1132 578 1166 q 454 1098 505 1098 z "},"Ṛ":{"ha":919,"x_min":76,"x_max":897,"o":"m 76 0 l 76 1010 l 494 1010 q 690 969 607 1010 q 817 853 772 928 q 862 674 862 778 q 816 496 862 569 q 687 385 770 422 l 897 0 l 630 0 l 446 346 l 321 346 l 321 0 l 76 0 m 321 538 l 441 538 q 566 571 523 538 q 609 674 609 604 q 441 813 609 813 l 321 813 l 321 538 m 470 -295 q 383 -261 419 -295 q 346 -180 346 -227 q 383 -98 346 -132 q 470 -65 419 -65 q 558 -98 521 -65 q 594 -180 594 -132 q 558 -261 594 -227 q 470 -295 521 -295 z "},"Ṝ":{"ha":919,"x_min":76,"x_max":897,"o":"m 76 0 l 76 1010 l 494 1010 q 690 969 607 1010 q 817 853 772 928 q 862 674 862 778 q 816 496 862 569 q 687 385 770 422 l 897 0 l 630 0 l 446 346 l 321 346 l 321 0 l 76 0 m 321 538 l 441 538 q 566 571 523 538 q 609 674 609 604 q 441 813 609 813 l 321 813 l 321 538 m 470 -295 q 383 -261 419 -295 q 346 -180 346 -227 q 383 -98 346 -132 q 470 -65 419 -65 q 558 -98 521 -65 q 594 -180 594 -132 q 558 -261 594 -227 q 470 -295 521 -295 m 697 1263 l 697 1143 l 210 1143 l 210 1263 l 697 1263 z "},"Ṟ":{"ha":919,"x_min":76,"x_max":897,"o":"m 76 0 l 76 1010 l 494 1010 q 690 969 607 1010 q 817 853 772 928 q 862 674 862 778 q 816 496 862 569 q 687 385 770 422 l 897 0 l 630 0 l 446 346 l 321 346 l 321 0 l 76 0 m 321 538 l 441 538 q 566 571 523 538 q 609 674 609 604 q 441 813 609 813 l 321 813 l 321 538 m 713 -127 l 713 -246 l 226 -246 l 226 -127 l 713 -127 z "},"℟":{"ha":930,"x_min":81,"x_max":902,"o":"m 641 1155 l 610 998 q 799 887 731 971 q 867 674 867 802 q 821 496 867 569 q 692 385 775 422 l 902 0 l 635 0 l 474 301 l 367 -252 l 287 -242 l 403 346 l 326 346 l 326 0 l 81 0 l 81 1010 l 499 1010 q 535 1009 517 1010 l 553 1101 l 334 1149 l 354 1222 l 641 1155 m 326 538 l 441 538 l 495 810 q 446 813 472 813 l 326 813 l 326 538 m 522 547 q 614 674 614 573 q 568 781 614 746 l 522 547 z "},"℞":{"ha":1102,"x_min":76,"x_max":1033,"o":"m 76 1010 l 483 1010 q 765 927 669 1010 q 862 694 862 844 q 822 534 862 598 q 721 429 783 469 l 775 355 l 853 461 l 1000 461 l 850 252 l 1033 0 l 835 0 l 752 115 l 669 0 l 516 0 l 676 219 l 569 369 l 321 369 l 321 0 l 76 0 l 76 1010 m 321 565 l 484 565 q 582 594 544 565 q 620 688 620 623 q 582 782 620 752 q 483 812 544 812 l 321 812 l 321 565 z "},"Ɍ":{"ha":952,"x_min":9,"x_max":923,"o":"m 103 0 l 103 364 l 9 364 l 9 542 l 103 542 l 103 1010 l 520 1010 q 716 969 633 1010 q 843 853 799 928 q 888 674 888 778 q 842 496 888 569 q 713 385 797 422 l 923 0 l 656 0 l 472 346 l 347 346 l 347 0 l 103 0 m 347 538 l 467 538 q 592 571 549 538 q 635 674 635 604 q 467 813 635 813 l 347 813 l 347 538 z "},"S":{"ha":917,"x_min":47,"x_max":870,"o":"m 622 707 q 579 792 618 762 q 469 822 540 822 q 362 795 398 822 q 326 727 327 768 q 365 657 325 682 q 474 617 405 631 l 561 597 q 790 489 710 564 q 870 293 870 414 q 763 68 870 149 q 469 -13 657 -13 q 164 73 278 -13 q 47 336 50 159 l 281 336 q 335 226 285 263 q 466 189 385 189 q 581 218 539 189 q 622 293 622 247 q 583 361 622 336 q 461 406 544 387 l 355 431 q 149 528 224 461 q 73 710 73 595 q 124 875 73 804 q 264 985 175 945 q 469 1024 354 1024 q 673 984 586 1024 q 807 873 760 945 q 856 707 855 802 l 622 707 z "},"Ś":{"ha":917,"x_min":47,"x_max":870,"o":"m 622 707 q 579 792 618 762 q 469 822 540 822 q 362 795 398 822 q 326 727 327 768 q 365 657 325 682 q 474 617 405 631 l 561 597 q 790 489 710 564 q 870 293 870 414 q 763 68 870 149 q 469 -13 657 -13 q 164 73 278 -13 q 47 336 50 159 l 281 336 q 335 226 285 263 q 466 189 385 189 q 581 218 539 189 q 622 293 622 247 q 583 361 622 336 q 461 406 544 387 l 355 431 q 149 528 224 461 q 73 710 73 595 q 124 875 73 804 q 264 985 175 945 q 469 1024 354 1024 q 673 984 586 1024 q 807 873 760 945 q 856 707 855 802 l 622 707 m 376 1106 l 476 1329 l 690 1329 l 541 1106 l 376 1106 z "},"Ŝ":{"ha":917,"x_min":47,"x_max":870,"o":"m 622 707 q 579 792 618 762 q 469 822 540 822 q 362 795 398 822 q 326 727 327 768 q 365 657 325 682 q 474 617 405 631 l 561 597 q 790 489 710 564 q 870 293 870 414 q 763 68 870 149 q 469 -13 657 -13 q 164 73 278 -13 q 47 336 50 159 l 281 336 q 335 226 285 263 q 466 189 385 189 q 581 218 539 189 q 622 293 622 247 q 583 361 622 336 q 461 406 544 387 l 355 431 q 149 528 224 461 q 73 710 73 595 q 124 875 73 804 q 264 985 175 945 q 469 1024 354 1024 q 673 984 586 1024 q 807 873 760 945 q 856 707 855 802 l 622 707 m 362 1100 l 159 1100 l 159 1106 l 373 1327 l 546 1327 l 759 1106 l 759 1100 l 557 1100 l 459 1214 l 362 1100 z "},"Ş":{"ha":917,"x_min":47,"x_max":870,"o":"m 622 707 q 579 792 618 762 q 469 822 540 822 q 362 795 398 822 q 326 727 327 768 q 365 657 325 682 q 474 617 405 631 l 561 597 q 790 489 710 564 q 870 293 870 414 q 763 68 870 149 q 469 -13 657 -13 q 164 73 278 -13 q 47 336 50 159 l 281 336 q 335 226 285 263 q 466 189 385 189 q 581 218 539 189 q 622 293 622 247 q 583 361 622 336 q 461 406 544 387 l 355 431 q 149 528 224 461 q 73 710 73 595 q 124 875 73 804 q 264 985 175 945 q 469 1024 354 1024 q 673 984 586 1024 q 807 873 760 945 q 856 707 855 802 l 622 707 m 413 4 l 510 4 l 502 -40 q 589 -80 556 -48 q 622 -161 621 -111 q 549 -283 622 -238 q 344 -327 475 -327 l 343 -228 q 447 -213 410 -228 q 486 -167 484 -198 q 390 -98 489 -111 l 413 4 z "},"Š":{"ha":917,"x_min":47,"x_max":870,"o":"m 622 707 q 579 792 618 762 q 469 822 540 822 q 362 795 398 822 q 326 727 327 768 q 365 657 325 682 q 474 617 405 631 l 561 597 q 790 489 710 564 q 870 293 870 414 q 763 68 870 149 q 469 -13 657 -13 q 164 73 278 -13 q 47 336 50 159 l 281 336 q 335 226 285 263 q 466 189 385 189 q 581 218 539 189 q 622 293 622 247 q 583 361 622 336 q 461 406 544 387 l 355 431 q 149 528 224 461 q 73 710 73 595 q 124 875 73 804 q 264 985 175 945 q 469 1024 354 1024 q 673 984 586 1024 q 807 873 760 945 q 856 707 855 802 l 622 707 m 362 1328 l 459 1214 l 557 1328 l 759 1328 l 759 1322 l 546 1101 l 373 1101 l 159 1322 l 159 1328 l 362 1328 z "},"Ș":{"ha":917,"x_min":47,"x_max":870,"o":"m 622 707 q 579 792 618 762 q 469 822 540 822 q 362 795 398 822 q 326 727 327 768 q 365 657 325 682 q 474 617 405 631 l 561 597 q 790 489 710 564 q 870 293 870 414 q 763 68 870 149 q 469 -13 657 -13 q 164 73 278 -13 q 47 336 50 159 l 281 336 q 335 226 285 263 q 466 189 385 189 q 581 218 539 189 q 622 293 622 247 q 583 361 622 336 q 461 406 544 387 l 355 431 q 149 528 224 461 q 73 710 73 595 q 124 875 73 804 q 264 985 175 945 q 469 1024 354 1024 q 673 984 586 1024 q 807 873 760 945 q 856 707 855 802 l 622 707 m 292 -323 l 355 -83 l 575 -83 l 459 -323 l 292 -323 z "},"Ṡ":{"ha":917,"x_min":47,"x_max":870,"o":"m 622 707 q 579 792 618 762 q 469 822 540 822 q 362 795 398 822 q 326 727 327 768 q 365 657 325 682 q 474 617 405 631 l 561 597 q 790 489 710 564 q 870 293 870 414 q 763 68 870 149 q 469 -13 657 -13 q 164 73 278 -13 q 47 336 50 159 l 281 336 q 335 226 285 263 q 466 189 385 189 q 581 218 539 189 q 622 293 622 247 q 583 361 622 336 q 461 406 544 387 l 355 431 q 149 528 224 461 q 73 710 73 595 q 124 875 73 804 q 264 985 175 945 q 469 1024 354 1024 q 673 984 586 1024 q 807 873 760 945 q 856 707 855 802 l 622 707 m 459 1098 q 372 1132 408 1098 q 335 1214 335 1166 q 372 1295 335 1262 q 459 1329 408 1329 q 547 1295 510 1329 q 583 1214 583 1262 q 547 1132 583 1166 q 459 1098 510 1098 z "},"Ṣ":{"ha":917,"x_min":47,"x_max":870,"o":"m 622 707 q 579 792 618 762 q 469 822 540 822 q 362 795 398 822 q 326 727 327 768 q 365 657 325 682 q 474 617 405 631 l 561 597 q 790 489 710 564 q 870 293 870 414 q 763 68 870 149 q 469 -13 657 -13 q 164 73 278 -13 q 47 336 50 159 l 281 336 q 335 226 285 263 q 466 189 385 189 q 581 218 539 189 q 622 293 622 247 q 583 361 622 336 q 461 406 544 387 l 355 431 q 149 528 224 461 q 73 710 73 595 q 124 875 73 804 q 264 985 175 945 q 469 1024 354 1024 q 673 984 586 1024 q 807 873 760 945 q 856 707 855 802 l 622 707 m 463 -298 q 376 -265 412 -298 q 339 -183 339 -231 q 376 -102 339 -135 q 463 -68 412 -68 q 551 -102 514 -68 q 587 -183 587 -135 q 551 -265 587 -231 q 463 -298 514 -298 z "},"Ṥ":{"ha":917,"x_min":47,"x_max":870,"o":"m 622 707 q 579 792 618 762 q 469 822 540 822 q 362 795 398 822 q 326 727 327 768 q 365 657 325 682 q 474 617 405 631 l 561 597 q 790 489 710 564 q 870 293 870 414 q 763 68 870 149 q 469 -13 657 -13 q 164 73 278 -13 q 47 336 50 159 l 281 336 q 335 226 285 263 q 466 189 385 189 q 581 218 539 189 q 622 293 622 247 q 583 361 622 336 q 461 406 544 387 l 355 431 q 149 528 224 461 q 73 710 73 595 q 124 875 73 804 q 264 985 175 945 q 469 1024 354 1024 q 673 984 586 1024 q 807 873 760 945 q 856 707 855 802 l 622 707 m 216 1260 q 245 1319 217 1295 q 317 1343 273 1343 q 390 1319 362 1343 q 418 1260 418 1295 q 390 1201 418 1226 q 317 1177 362 1177 q 245 1201 273 1177 q 216 1260 217 1226 m 409 1106 l 510 1278 l 664 1278 l 527 1106 l 409 1106 z "},"Ṧ":{"ha":917,"x_min":47,"x_max":870,"o":"m 622 707 q 579 792 618 762 q 469 822 540 822 q 362 795 398 822 q 326 727 327 768 q 365 657 325 682 q 474 617 405 631 l 561 597 q 790 489 710 564 q 870 293 870 414 q 763 68 870 149 q 469 -13 657 -13 q 164 73 278 -13 q 47 336 50 159 l 281 336 q 335 226 285 263 q 466 189 385 189 q 581 218 539 189 q 622 293 622 247 q 583 361 622 336 q 461 406 544 387 l 355 431 q 149 528 224 461 q 73 710 73 595 q 124 875 73 804 q 264 985 175 945 q 469 1024 354 1024 q 673 984 586 1024 q 807 873 760 945 q 856 707 855 802 l 622 707 m 371 1302 l 461 1228 l 550 1302 l 747 1302 l 747 1290 l 543 1131 l 380 1131 l 174 1293 l 174 1302 l 371 1302 m 359 1418 q 387 1477 359 1453 q 459 1501 415 1501 q 532 1477 504 1501 q 560 1418 560 1453 q 532 1360 560 1383 q 459 1337 504 1337 q 387 1360 415 1337 q 359 1418 359 1383 z "},"Ṩ":{"ha":917,"x_min":47,"x_max":870,"o":"m 622 707 q 579 792 618 762 q 469 822 540 822 q 362 795 398 822 q 326 727 327 768 q 365 657 325 682 q 474 617 405 631 l 561 597 q 790 489 710 564 q 870 293 870 414 q 763 68 870 149 q 469 -13 657 -13 q 164 73 278 -13 q 47 336 50 159 l 281 336 q 335 226 285 263 q 466 189 385 189 q 581 218 539 189 q 622 293 622 247 q 583 361 622 336 q 461 406 544 387 l 355 431 q 149 528 224 461 q 73 710 73 595 q 124 875 73 804 q 264 985 175 945 q 469 1024 354 1024 q 673 984 586 1024 q 807 873 760 945 q 856 707 855 802 l 622 707 m 463 -298 q 376 -265 412 -298 q 339 -183 339 -231 q 376 -102 339 -135 q 463 -68 412 -68 q 551 -102 514 -68 q 587 -183 587 -135 q 551 -265 587 -231 q 463 -298 514 -298 m 459 1098 q 372 1132 408 1098 q 335 1214 335 1166 q 372 1295 335 1262 q 459 1329 408 1329 q 547 1295 510 1329 q 583 1214 583 1262 q 547 1132 583 1166 q 459 1098 510 1098 z "},"Ѕ":{"ha":917,"x_min":47,"x_max":870,"o":"m 622 707 q 579 792 618 762 q 469 822 540 822 q 362 795 398 822 q 326 727 327 768 q 365 657 325 682 q 474 617 405 631 l 561 597 q 790 489 710 564 q 870 293 870 414 q 763 68 870 149 q 469 -13 657 -13 q 164 73 278 -13 q 47 336 50 159 l 281 336 q 335 226 285 263 q 466 189 385 189 q 581 218 539 189 q 622 293 622 247 q 583 361 622 336 q 461 406 544 387 l 355 431 q 149 528 224 461 q 73 710 73 595 q 124 875 73 804 q 264 985 175 945 q 469 1024 354 1024 q 673 984 586 1024 q 807 873 760 945 q 856 707 855 802 l 622 707 z "},"Ƨ":{"ha":917,"x_min":47,"x_max":870,"o":"m 295 707 l 61 707 q 110 873 62 802 q 244 984 158 945 q 448 1024 331 1024 q 653 985 564 1024 q 794 875 743 945 q 844 710 845 804 q 769 528 844 595 q 562 431 693 461 l 457 406 q 335 361 373 387 q 295 293 296 336 q 337 218 296 247 q 452 189 378 189 q 582 226 533 189 q 636 336 632 263 l 870 336 q 754 73 868 159 q 449 -13 639 -13 q 154 68 260 -13 q 47 293 48 149 q 128 489 48 414 q 357 597 207 564 l 443 617 q 553 657 512 631 q 591 727 593 682 q 555 795 591 768 q 449 822 520 822 q 339 792 377 822 q 295 707 300 762 z "},"ẞ":{"ha":1012,"x_min":76,"x_max":964,"o":"m 76 0 l 76 663 q 123 853 76 771 q 254 979 170 934 q 449 1024 338 1024 q 606 1000 523 1024 q 772 936 690 977 q 922 842 854 895 l 697 589 q 837 535 777 576 q 931 432 898 494 q 964 295 964 370 q 917 133 964 203 q 788 25 871 64 q 598 -14 705 -14 q 475 -2 540 -14 q 364 29 411 9 l 429 206 q 504 182 465 191 q 578 174 543 174 q 691 206 650 174 q 732 295 732 239 q 706 384 732 351 q 637 434 680 418 q 546 449 595 449 l 456 449 l 456 584 l 635 773 q 552 818 600 801 q 451 835 504 835 q 353 787 385 835 q 321 663 321 739 l 321 0 l 76 0 z "},"T":{"ha":941,"x_min":43,"x_max":897,"o":"m 43 812 l 43 1010 l 897 1010 l 897 812 l 591 812 l 591 0 l 350 0 l 350 812 l 43 812 z "},"Ţ":{"ha":941,"x_min":43,"x_max":897,"o":"m 43 812 l 43 1010 l 897 1010 l 897 812 l 591 812 l 591 0 l 350 0 l 350 812 l 43 812 m 422 4 l 518 4 l 510 -40 q 597 -80 565 -48 q 630 -161 630 -111 q 557 -283 631 -238 q 352 -327 483 -327 l 351 -228 q 456 -213 419 -228 q 494 -167 493 -198 q 399 -98 497 -111 l 422 4 z "},"Ť":{"ha":941,"x_min":43,"x_max":897,"o":"m 43 812 l 43 1010 l 897 1010 l 897 812 l 591 812 l 591 0 l 350 0 l 350 812 l 43 812 m 373 1328 l 471 1214 l 569 1328 l 771 1328 l 771 1322 l 558 1101 l 385 1101 l 171 1322 l 171 1328 l 373 1328 z "},"Ț":{"ha":941,"x_min":43,"x_max":897,"o":"m 43 812 l 43 1010 l 897 1010 l 897 812 l 591 812 l 591 0 l 350 0 l 350 812 l 43 812 m 299 -320 l 362 -80 l 581 -80 l 466 -320 l 299 -320 z "},"Ṫ":{"ha":941,"x_min":43,"x_max":897,"o":"m 43 812 l 43 1010 l 897 1010 l 897 812 l 591 812 l 591 0 l 350 0 l 350 812 l 43 812 m 471 1098 q 384 1132 420 1098 q 347 1214 347 1166 q 384 1295 347 1262 q 471 1329 420 1329 q 559 1295 522 1329 q 595 1214 595 1262 q 559 1132 595 1166 q 471 1098 522 1098 z "},"Ṭ":{"ha":941,"x_min":43,"x_max":897,"o":"m 43 812 l 43 1010 l 897 1010 l 897 812 l 591 812 l 591 0 l 350 0 l 350 812 l 43 812 m 470 -295 q 382 -261 419 -295 q 346 -180 346 -227 q 382 -98 346 -132 q 470 -65 419 -65 q 557 -98 521 -65 q 593 -180 593 -132 q 557 -261 593 -227 q 470 -295 521 -295 z "},"Ṯ":{"ha":941,"x_min":43,"x_max":897,"o":"m 43 812 l 43 1010 l 897 1010 l 897 812 l 591 812 l 591 0 l 350 0 l 350 812 l 43 812 m 713 -127 l 713 -246 l 226 -246 l 226 -127 l 713 -127 z "},"Ṱ":{"ha":941,"x_min":43,"x_max":897,"o":"m 43 812 l 43 1010 l 897 1010 l 897 812 l 591 812 l 591 0 l 350 0 l 350 812 l 43 812 m 371 -291 l 169 -291 l 169 -285 l 383 -64 l 556 -64 l 769 -285 l 769 -291 l 567 -291 l 469 -177 l 371 -291 z "},"Ƭ":{"ha":986,"x_min":43,"x_max":943,"o":"m 943 1010 l 943 812 l 636 812 l 636 0 l 396 0 l 396 812 l 346 812 q 281 793 303 812 q 250 745 258 774 q 242 685 242 716 l 242 619 l 43 619 l 43 729 q 120 935 43 860 q 346 1010 197 1010 l 943 1010 z "},"Ʈ":{"ha":941,"x_min":43,"x_max":897,"o":"m 43 812 l 43 1010 l 897 1010 l 897 812 l 591 812 l 591 -35 q 624 -87 591 -74 q 695 -100 656 -100 l 739 -100 l 739 -284 l 630 -284 q 529 -275 579 -284 q 438 -240 479 -266 q 374 -165 398 -215 q 350 -34 350 -115 l 350 812 l 43 812 z "},"Ⱦ":{"ha":941,"x_min":43,"x_max":897,"o":"m 223 -128 l 350 277 l 350 812 l 43 812 l 43 1010 l 580 1010 l 619 1138 l 754 1138 l 714 1010 l 897 1010 l 897 812 l 652 812 l 591 616 l 591 0 l 398 0 l 358 -128 l 223 -128 z "},"Τ":{"ha":941,"x_min":43,"x_max":897,"o":"m 43 812 l 43 1010 l 897 1010 l 897 812 l 591 812 l 591 0 l 350 0 l 350 812 l 43 812 z "},"U":{"ha":1008,"x_min":76,"x_max":931,"o":"m 688 1010 l 931 1010 l 931 359 q 877 162 931 246 q 728 33 824 79 q 504 -13 632 -13 q 279 33 376 -13 q 130 162 183 79 q 76 359 76 246 l 76 1010 l 321 1010 l 321 380 q 371 250 321 301 q 504 199 422 199 q 637 250 586 199 q 688 380 688 301 l 688 1010 z "},"Ư":{"ha":1211,"x_min":76,"x_max":1167,"o":"m 1025 1038 l 1167 1038 q 1147 878 1167 946 q 1074 767 1126 809 q 931 715 1023 726 l 931 359 q 877 162 931 246 q 728 33 824 79 q 504 -13 632 -13 q 279 33 376 -13 q 130 162 183 79 q 76 359 76 246 l 76 1010 l 321 1010 l 321 380 q 371 250 321 301 q 504 199 422 199 q 637 250 586 199 q 688 380 688 301 l 688 1010 l 931 1010 l 931 833 q 996 872 976 844 q 1020 942 1016 900 q 1025 1038 1025 984 z "},"Ù":{"ha":1008,"x_min":76,"x_max":931,"o":"m 688 1010 l 931 1010 l 931 359 q 877 162 931 246 q 728 33 824 79 q 504 -13 632 -13 q 279 33 376 -13 q 130 162 183 79 q 76 359 76 246 l 76 1010 l 321 1010 l 321 380 q 371 250 321 301 q 504 199 422 199 q 637 250 586 199 q 688 380 688 301 l 688 1010 m 423 1106 l 274 1329 l 487 1329 l 587 1106 l 423 1106 z "},"Ú":{"ha":1008,"x_min":76,"x_max":931,"o":"m 688 1010 l 931 1010 l 931 359 q 877 162 931 246 q 728 33 824 79 q 504 -13 632 -13 q 279 33 376 -13 q 130 162 183 79 q 76 359 76 246 l 76 1010 l 321 1010 l 321 380 q 371 250 321 301 q 504 199 422 199 q 637 250 586 199 q 688 380 688 301 l 688 1010 m 421 1106 l 520 1329 l 734 1329 l 585 1106 l 421 1106 z "},"Û":{"ha":1008,"x_min":76,"x_max":931,"o":"m 688 1010 l 931 1010 l 931 359 q 877 162 931 246 q 728 33 824 79 q 504 -13 632 -13 q 279 33 376 -13 q 130 162 183 79 q 76 359 76 246 l 76 1010 l 321 1010 l 321 380 q 371 250 321 301 q 504 199 422 199 q 637 250 586 199 q 688 380 688 301 l 688 1010 m 406 1100 l 204 1100 l 204 1106 l 417 1327 l 590 1327 l 803 1106 l 803 1100 l 602 1100 l 504 1214 l 406 1100 z "},"Ü":{"ha":1008,"x_min":76,"x_max":931,"o":"m 688 1010 l 931 1010 l 931 359 q 877 162 931 246 q 728 33 824 79 q 504 -13 632 -13 q 279 33 376 -13 q 130 162 183 79 q 76 359 76 246 l 76 1010 l 321 1010 l 321 380 q 371 250 321 301 q 504 199 422 199 q 637 250 586 199 q 688 380 688 301 l 688 1010 m 351 1106 q 272 1138 304 1106 q 239 1214 239 1170 q 272 1290 239 1259 q 351 1321 304 1321 q 429 1290 397 1321 q 461 1214 461 1259 q 429 1138 461 1170 q 351 1106 397 1106 m 658 1106 q 579 1138 612 1106 q 546 1214 546 1170 q 579 1290 546 1259 q 658 1321 612 1321 q 737 1290 704 1321 q 769 1214 769 1259 q 737 1138 769 1170 q 658 1106 704 1106 z "},"Ũ":{"ha":1008,"x_min":76,"x_max":931,"o":"m 688 1010 l 931 1010 l 931 359 q 877 162 931 246 q 728 33 824 79 q 504 -13 632 -13 q 279 33 376 -13 q 130 162 183 79 q 76 359 76 246 l 76 1010 l 321 1010 l 321 380 q 371 250 321 301 q 504 199 422 199 q 637 250 586 199 q 688 380 688 301 l 688 1010 m 366 1104 l 241 1105 q 289 1256 241 1205 q 405 1308 336 1308 q 475 1292 447 1308 q 525 1260 503 1277 q 557 1239 542 1248 q 588 1231 572 1231 q 630 1252 616 1231 q 644 1307 643 1272 l 767 1306 q 719 1154 766 1206 q 603 1102 671 1102 q 532 1117 560 1101 q 483 1149 505 1132 q 453 1170 467 1161 q 420 1179 438 1179 q 381 1159 396 1179 q 366 1104 366 1140 z "},"Ū":{"ha":1008,"x_min":76,"x_max":931,"o":"m 688 1010 l 931 1010 l 931 359 q 877 162 931 246 q 728 33 824 79 q 504 -13 632 -13 q 279 33 376 -13 q 130 162 183 79 q 76 359 76 246 l 76 1010 l 321 1010 l 321 380 q 371 250 321 301 q 504 199 422 199 q 637 250 586 199 q 688 380 688 301 l 688 1010 m 747 1263 l 747 1143 l 260 1143 l 260 1263 l 747 1263 z "},"Ŭ":{"ha":1008,"x_min":76,"x_max":931,"o":"m 688 1010 l 931 1010 l 931 359 q 877 162 931 246 q 728 33 824 79 q 504 -13 632 -13 q 279 33 376 -13 q 130 162 183 79 q 76 359 76 246 l 76 1010 l 321 1010 l 321 380 q 371 250 321 301 q 504 199 422 199 q 637 250 586 199 q 688 380 688 301 l 688 1010 m 602 1278 l 761 1278 q 691 1129 761 1186 q 504 1073 622 1073 q 316 1129 385 1073 q 247 1278 247 1186 l 404 1278 q 427 1219 404 1246 q 504 1193 449 1193 q 579 1219 556 1193 q 602 1278 602 1245 z "},"Ů":{"ha":1008,"x_min":76,"x_max":931,"o":"m 688 1010 l 931 1010 l 931 359 q 877 162 931 246 q 728 33 824 79 q 504 -13 632 -13 q 279 33 376 -13 q 130 162 183 79 q 76 359 76 246 l 76 1010 l 321 1010 l 321 380 q 371 250 321 301 q 504 199 422 199 q 637 250 586 199 q 688 380 688 301 l 688 1010 m 504 1060 q 424 1080 460 1060 q 366 1136 388 1101 q 345 1212 345 1170 q 366 1289 345 1254 q 424 1344 388 1323 q 504 1364 460 1364 q 616 1320 570 1364 q 663 1212 663 1275 q 616 1105 663 1149 q 504 1060 570 1060 m 504 1149 q 551 1168 531 1149 q 571 1212 571 1186 q 551 1257 571 1238 q 504 1275 531 1275 q 457 1257 476 1275 q 437 1212 437 1238 q 456 1167 437 1186 q 504 1149 476 1149 z "},"Ű":{"ha":1008,"x_min":76,"x_max":931,"o":"m 688 1010 l 931 1010 l 931 359 q 877 162 931 246 q 728 33 824 79 q 504 -13 632 -13 q 279 33 376 -13 q 130 162 183 79 q 76 359 76 246 l 76 1010 l 321 1010 l 321 380 q 371 250 321 301 q 504 199 422 199 q 637 250 586 199 q 688 380 688 301 l 688 1010 m 273 1099 l 412 1302 l 605 1302 l 439 1099 l 273 1099 m 543 1099 l 701 1302 l 895 1302 l 707 1099 l 543 1099 z "},"Ų":{"ha":1008,"x_min":76,"x_max":931,"o":"m 688 1010 l 931 1010 l 931 359 q 877 162 931 246 q 728 33 824 79 q 504 -13 632 -13 q 279 33 376 -13 q 130 162 183 79 q 76 359 76 246 l 76 1010 l 321 1010 l 321 380 q 371 250 321 301 q 504 199 422 199 q 637 250 586 199 q 688 380 688 301 l 688 1010 m 546 -278 q 433 -244 479 -278 q 373 -148 388 -211 q 368 -64 363 -107 q 395 12 374 -22 q 453 63 417 46 l 643 0 q 569 -39 596 -18 q 542 -93 541 -60 q 588 -143 541 -143 q 614 -139 603 -143 q 635 -133 625 -136 l 661 -249 q 614 -269 643 -259 q 546 -278 585 -278 z "},"Ǔ":{"ha":1008,"x_min":76,"x_max":931,"o":"m 688 1010 l 931 1010 l 931 359 q 877 162 931 246 q 728 33 824 79 q 504 -13 632 -13 q 279 33 376 -13 q 130 162 183 79 q 76 359 76 246 l 76 1010 l 321 1010 l 321 380 q 371 250 321 301 q 504 199 422 199 q 637 250 586 199 q 688 380 688 301 l 688 1010 m 406 1328 l 504 1214 l 602 1328 l 803 1328 l 803 1322 l 590 1101 l 417 1101 l 204 1322 l 204 1328 l 406 1328 z "},"Ǖ":{"ha":1008,"x_min":76,"x_max":931,"o":"m 688 1010 l 931 1010 l 931 359 q 877 162 931 246 q 728 33 824 79 q 504 -13 632 -13 q 279 33 376 -13 q 130 162 183 79 q 76 359 76 246 l 76 1010 l 321 1010 l 321 380 q 371 250 321 301 q 504 199 422 199 q 637 250 586 199 q 688 380 688 301 l 688 1010 m 351 1106 q 272 1138 304 1106 q 239 1214 239 1170 q 272 1290 239 1259 q 351 1321 304 1321 q 429 1290 397 1321 q 461 1214 461 1259 q 429 1138 461 1170 q 351 1106 397 1106 m 658 1106 q 579 1138 612 1106 q 546 1214 546 1170 q 579 1290 546 1259 q 658 1321 612 1321 q 737 1290 704 1321 q 769 1214 769 1259 q 737 1138 769 1170 q 658 1106 704 1106 m 747 1515 l 747 1396 l 260 1396 l 260 1515 l 747 1515 z "},"Ǘ":{"ha":1008,"x_min":76,"x_max":931,"o":"m 688 1010 l 931 1010 l 931 359 q 877 162 931 246 q 728 33 824 79 q 504 -13 632 -13 q 279 33 376 -13 q 130 162 183 79 q 76 359 76 246 l 76 1010 l 321 1010 l 321 380 q 371 250 321 301 q 504 199 422 199 q 637 250 586 199 q 688 380 688 301 l 688 1010 m 413 1334 l 547 1516 l 753 1516 l 581 1334 l 413 1334 m 650 1076 q 575 1105 606 1076 q 544 1175 544 1134 q 575 1245 544 1216 q 650 1273 606 1273 q 724 1245 693 1273 q 755 1175 755 1216 q 724 1105 755 1134 q 650 1076 693 1076 m 358 1076 q 283 1105 314 1076 q 252 1175 252 1134 q 283 1245 252 1216 q 358 1273 314 1273 q 432 1245 401 1273 q 463 1175 463 1216 q 432 1105 463 1134 q 358 1076 401 1076 z "},"Ǚ":{"ha":1008,"x_min":76,"x_max":931,"o":"m 688 1010 l 931 1010 l 931 359 q 877 162 931 246 q 728 33 824 79 q 504 -13 632 -13 q 279 33 376 -13 q 130 162 183 79 q 76 359 76 246 l 76 1010 l 321 1010 l 321 380 q 371 250 321 301 q 504 199 422 199 q 637 250 586 199 q 688 380 688 301 l 688 1010 m 416 1458 l 505 1386 l 594 1458 l 791 1458 l 791 1448 l 587 1289 l 424 1289 l 218 1451 l 218 1458 l 416 1458 m 552 1201 q 580 1258 552 1235 q 653 1282 607 1282 q 724 1259 695 1282 q 753 1201 753 1236 q 725 1142 753 1165 q 653 1118 696 1118 q 580 1142 607 1118 q 552 1201 552 1166 m 256 1201 q 284 1259 256 1235 q 355 1283 311 1283 q 428 1259 400 1283 q 456 1201 456 1235 q 428 1142 456 1165 q 356 1119 400 1119 q 284 1142 312 1119 q 256 1201 256 1165 z "},"Ǜ":{"ha":1008,"x_min":76,"x_max":931,"o":"m 688 1010 l 931 1010 l 931 359 q 877 162 931 246 q 728 33 824 79 q 504 -13 632 -13 q 279 33 376 -13 q 130 162 183 79 q 76 359 76 246 l 76 1010 l 321 1010 l 321 380 q 371 250 321 301 q 504 199 422 199 q 637 250 586 199 q 688 380 688 301 l 688 1010 m 550 1201 q 579 1259 549 1236 q 651 1282 608 1282 q 724 1258 696 1282 q 752 1201 751 1235 q 724 1142 751 1166 q 651 1118 696 1118 q 579 1142 608 1118 q 550 1201 549 1165 m 254 1201 q 282 1259 254 1235 q 354 1283 310 1283 q 427 1259 399 1283 q 456 1201 456 1235 q 427 1142 456 1165 q 354 1119 398 1119 q 282 1142 310 1119 q 254 1201 254 1165 m 481 1406 l 571 1283 l 453 1283 l 327 1406 l 481 1406 z "},"Ȕ":{"ha":1008,"x_min":76,"x_max":931,"o":"m 688 1010 l 931 1010 l 931 359 q 877 162 931 246 q 728 33 824 79 q 504 -13 632 -13 q 279 33 376 -13 q 130 162 183 79 q 76 359 76 246 l 76 1010 l 321 1010 l 321 380 q 371 250 321 301 q 504 199 422 199 q 637 250 586 199 q 688 380 688 301 l 688 1010 m 446 1106 l 270 1152 l 181 1329 l 391 1283 l 446 1106 m 697 1106 l 534 1152 l 487 1329 l 678 1283 l 697 1106 z "},"Ȗ":{"ha":1008,"x_min":76,"x_max":931,"o":"m 688 1010 l 931 1010 l 931 359 q 877 162 931 246 q 728 33 824 79 q 504 -13 632 -13 q 279 33 376 -13 q 130 162 183 79 q 76 359 76 246 l 76 1010 l 321 1010 l 321 380 q 371 250 321 301 q 504 199 422 199 q 637 250 586 199 q 688 380 688 301 l 688 1010 m 245 1130 q 314 1283 245 1223 q 503 1342 384 1342 q 690 1283 620 1342 q 761 1130 761 1223 l 602 1130 q 579 1189 601 1163 q 503 1215 556 1215 q 426 1189 449 1215 q 404 1130 403 1163 l 245 1130 z "},"Ṳ":{"ha":1008,"x_min":76,"x_max":931,"o":"m 688 1010 l 931 1010 l 931 359 q 877 162 931 246 q 728 33 824 79 q 504 -13 632 -13 q 279 33 376 -13 q 130 162 183 79 q 76 359 76 246 l 76 1010 l 321 1010 l 321 380 q 371 250 321 301 q 504 199 422 199 q 637 250 586 199 q 688 380 688 301 l 688 1010 m 366 -293 q 279 -259 316 -293 q 243 -178 243 -225 q 279 -96 243 -130 q 366 -63 316 -63 q 454 -96 418 -63 q 490 -178 490 -130 q 454 -259 490 -225 q 366 -293 418 -293 m 740 -293 q 653 -259 690 -293 q 617 -178 617 -225 q 653 -96 617 -130 q 740 -63 690 -63 q 828 -96 792 -63 q 864 -178 864 -130 q 828 -259 864 -225 q 740 -293 792 -293 z "},"Ṵ":{"ha":1008,"x_min":76,"x_max":931,"o":"m 688 1010 l 931 1010 l 931 359 q 877 162 931 246 q 728 33 824 79 q 504 -13 632 -13 q 279 33 376 -13 q 130 162 183 79 q 76 359 76 246 l 76 1010 l 321 1010 l 321 380 q 371 250 321 301 q 504 199 422 199 q 637 250 586 199 q 688 380 688 301 l 688 1010 m 388 -276 l 262 -275 q 310 -123 262 -175 q 427 -72 358 -72 q 497 -87 469 -72 q 547 -119 525 -103 q 578 -140 563 -131 q 610 -149 593 -149 q 651 -128 638 -148 q 665 -73 665 -107 l 789 -74 q 740 -225 788 -173 q 625 -278 693 -277 q 554 -263 581 -278 q 505 -231 526 -247 q 474 -210 489 -219 q 442 -201 460 -201 q 403 -220 418 -201 q 388 -276 388 -240 z "},"Ṷ":{"ha":1008,"x_min":76,"x_max":931,"o":"m 688 1010 l 931 1010 l 931 359 q 877 162 931 246 q 728 33 824 79 q 504 -13 632 -13 q 279 33 376 -13 q 130 162 183 79 q 76 359 76 246 l 76 1010 l 321 1010 l 321 380 q 371 250 321 301 q 504 199 422 199 q 637 250 586 199 q 688 380 688 301 l 688 1010 m 406 -290 l 204 -290 l 204 -283 l 417 -62 l 590 -62 l 803 -283 l 803 -290 l 602 -290 l 504 -175 l 406 -290 z "},"Ṹ":{"ha":1008,"x_min":76,"x_max":931,"o":"m 688 1010 l 931 1010 l 931 359 q 877 162 931 246 q 728 33 824 79 q 504 -13 632 -13 q 279 33 376 -13 q 130 162 183 79 q 76 359 76 246 l 76 1010 l 321 1010 l 321 380 q 371 250 321 301 q 504 199 422 199 q 637 250 586 199 q 688 380 688 301 l 688 1010 m 373 1093 l 254 1094 q 299 1232 254 1185 q 410 1278 345 1278 q 476 1265 449 1279 q 524 1235 503 1250 q 554 1216 540 1224 q 583 1208 568 1208 q 623 1227 610 1208 q 636 1278 636 1246 l 753 1276 q 707 1139 752 1186 q 598 1091 662 1091 q 530 1105 556 1090 q 484 1134 504 1119 q 455 1153 469 1145 q 424 1161 441 1161 q 387 1143 401 1161 q 373 1093 373 1126 m 404 1334 l 538 1516 l 743 1516 l 571 1334 l 404 1334 z "},"Ṻ":{"ha":1008,"x_min":76,"x_max":931,"o":"m 688 1010 l 931 1010 l 931 359 q 877 162 931 246 q 728 33 824 79 q 504 -13 632 -13 q 279 33 376 -13 q 130 162 183 79 q 76 359 76 246 l 76 1010 l 321 1010 l 321 380 q 371 250 321 301 q 504 199 422 199 q 637 250 586 199 q 688 380 688 301 l 688 1010 m 747 1221 l 747 1103 l 259 1103 l 259 1221 l 747 1221 m 254 1364 q 282 1423 254 1399 q 354 1447 310 1447 q 427 1423 398 1447 q 456 1364 456 1399 q 427 1306 456 1330 q 354 1282 399 1282 q 281 1306 309 1282 q 254 1364 254 1330 m 550 1364 q 578 1423 549 1399 q 651 1447 606 1447 q 723 1423 695 1447 q 752 1364 751 1399 q 723 1306 751 1329 q 651 1283 695 1283 q 578 1306 606 1283 q 550 1364 549 1330 z "},"Ụ":{"ha":1008,"x_min":76,"x_max":931,"o":"m 688 1010 l 931 1010 l 931 359 q 877 162 931 246 q 728 33 824 79 q 504 -13 632 -13 q 279 33 376 -13 q 130 162 183 79 q 76 359 76 246 l 76 1010 l 321 1010 l 321 380 q 371 250 321 301 q 504 199 422 199 q 637 250 586 199 q 688 380 688 301 l 688 1010 m 504 -293 q 417 -259 453 -293 q 380 -178 380 -225 q 417 -96 380 -130 q 504 -63 453 -63 q 592 -96 555 -63 q 628 -178 628 -130 q 592 -259 628 -225 q 504 -293 555 -293 z "},"Ủ":{"ha":1008,"x_min":76,"x_max":931,"o":"m 688 1010 l 931 1010 l 931 359 q 877 162 931 246 q 728 33 824 79 q 504 -13 632 -13 q 279 33 376 -13 q 130 162 183 79 q 76 359 76 246 l 76 1010 l 321 1010 l 321 380 q 371 250 321 301 q 504 199 422 199 q 637 250 586 199 q 688 380 688 301 l 688 1010 m 590 1121 l 414 1121 l 400 1203 q 475 1217 453 1205 q 497 1246 497 1229 q 470 1281 497 1273 q 401 1290 442 1290 l 406 1392 q 622 1356 548 1392 q 696 1257 696 1321 q 663 1191 696 1213 q 590 1162 630 1168 l 590 1121 z "},"Ứ":{"ha":1211,"x_min":76,"x_max":1167,"o":"m 1025 1038 l 1167 1038 q 1147 878 1167 946 q 1074 767 1126 809 q 931 715 1023 726 l 931 359 q 877 162 931 246 q 728 33 824 79 q 504 -13 632 -13 q 279 33 376 -13 q 130 162 183 79 q 76 359 76 246 l 76 1010 l 321 1010 l 321 380 q 371 250 321 301 q 504 199 422 199 q 637 250 586 199 q 688 380 688 301 l 688 1010 l 931 1010 l 931 833 q 996 872 976 844 q 1020 942 1016 900 q 1025 1038 1025 984 m 421 1106 l 520 1329 l 734 1329 l 585 1106 l 421 1106 z "},"Ừ":{"ha":1211,"x_min":76,"x_max":1167,"o":"m 1025 1038 l 1167 1038 q 1147 878 1167 946 q 1074 767 1126 809 q 931 715 1023 726 l 931 359 q 877 162 931 246 q 728 33 824 79 q 504 -13 632 -13 q 279 33 376 -13 q 130 162 183 79 q 76 359 76 246 l 76 1010 l 321 1010 l 321 380 q 371 250 321 301 q 504 199 422 199 q 637 250 586 199 q 688 380 688 301 l 688 1010 l 931 1010 l 931 833 q 996 872 976 844 q 1020 942 1016 900 q 1025 1038 1025 984 m 423 1106 l 274 1329 l 487 1329 l 587 1106 l 423 1106 z "},"Ử":{"ha":1211,"x_min":76,"x_max":1167,"o":"m 1025 1038 l 1167 1038 q 1147 878 1167 946 q 1074 767 1126 809 q 931 715 1023 726 l 931 359 q 877 162 931 246 q 728 33 824 79 q 504 -13 632 -13 q 279 33 376 -13 q 130 162 183 79 q 76 359 76 246 l 76 1010 l 321 1010 l 321 380 q 371 250 321 301 q 504 199 422 199 q 637 250 586 199 q 688 380 688 301 l 688 1010 l 931 1010 l 931 833 q 996 872 976 844 q 1020 942 1016 900 q 1025 1038 1025 984 m 590 1121 l 414 1121 l 400 1203 q 475 1217 453 1205 q 497 1246 497 1229 q 470 1281 497 1273 q 401 1290 442 1290 l 406 1392 q 622 1356 548 1392 q 696 1257 696 1321 q 663 1191 696 1213 q 590 1162 630 1168 l 590 1121 z "},"Ữ":{"ha":1211,"x_min":76,"x_max":1167,"o":"m 1025 1038 l 1167 1038 q 1147 878 1167 946 q 1074 767 1126 809 q 931 715 1023 726 l 931 359 q 877 162 931 246 q 728 33 824 79 q 504 -13 632 -13 q 279 33 376 -13 q 130 162 183 79 q 76 359 76 246 l 76 1010 l 321 1010 l 321 380 q 371 250 321 301 q 504 199 422 199 q 637 250 586 199 q 688 380 688 301 l 688 1010 l 931 1010 l 931 833 q 996 872 976 844 q 1020 942 1016 900 q 1025 1038 1025 984 m 366 1104 l 241 1105 q 289 1256 241 1205 q 405 1308 336 1308 q 475 1292 447 1308 q 525 1260 503 1277 q 557 1239 542 1248 q 588 1231 572 1231 q 630 1252 616 1231 q 644 1307 643 1272 l 767 1306 q 719 1154 766 1206 q 603 1102 671 1102 q 532 1117 560 1101 q 483 1149 505 1132 q 453 1170 467 1161 q 420 1179 438 1179 q 381 1159 396 1179 q 366 1104 366 1140 z "},"Ự":{"ha":1211,"x_min":76,"x_max":1167,"o":"m 1025 1038 l 1167 1038 q 1147 878 1167 946 q 1074 767 1126 809 q 931 715 1023 726 l 931 359 q 877 162 931 246 q 728 33 824 79 q 504 -13 632 -13 q 279 33 376 -13 q 130 162 183 79 q 76 359 76 246 l 76 1010 l 321 1010 l 321 380 q 371 250 321 301 q 504 199 422 199 q 637 250 586 199 q 688 380 688 301 l 688 1010 l 931 1010 l 931 833 q 996 872 976 844 q 1020 942 1016 900 q 1025 1038 1025 984 m 504 -293 q 417 -259 453 -293 q 380 -178 380 -225 q 417 -96 380 -130 q 504 -63 453 -63 q 592 -96 555 -63 q 628 -178 628 -130 q 592 -259 628 -225 q 504 -293 555 -293 z "},"Ʉ":{"ha":1064,"x_min":-7,"x_max":1072,"o":"m 1072 570 l 1072 434 l 964 434 l 964 359 q 910 162 964 246 q 761 33 857 79 q 537 -13 665 -13 q 312 33 409 -13 q 163 162 216 79 q 109 359 109 246 l 109 434 l -7 434 l -7 570 l 109 570 l 109 1010 l 354 1010 l 354 570 l 721 570 l 721 1010 l 964 1010 l 964 570 l 1072 570 m 721 434 l 354 434 l 354 380 q 404 250 354 301 q 537 199 455 199 q 670 250 619 199 q 721 380 721 301 l 721 434 z "},"V":{"ha":1072,"x_min":33,"x_max":1039,"o":"m 306 1010 l 532 270 l 540 270 l 766 1010 l 1039 1010 l 698 0 l 373 0 l 33 1010 l 306 1010 z "},"Ṽ":{"ha":1072,"x_min":33,"x_max":1039,"o":"m 306 1010 l 532 270 l 540 270 l 766 1010 l 1039 1010 l 698 0 l 373 0 l 33 1010 l 306 1010 m 398 1104 l 272 1105 q 320 1256 272 1205 q 436 1308 368 1308 q 507 1292 478 1308 q 557 1260 535 1277 q 588 1239 573 1248 q 619 1231 603 1231 q 661 1252 648 1231 q 675 1307 675 1272 l 799 1306 q 750 1154 798 1206 q 635 1102 703 1102 q 564 1117 591 1101 q 514 1149 536 1132 q 484 1170 499 1161 q 452 1179 470 1179 q 413 1159 428 1179 q 398 1104 398 1140 z "},"Ṿ":{"ha":1072,"x_min":33,"x_max":1039,"o":"m 306 1010 l 532 270 l 540 270 l 766 1010 l 1039 1010 l 698 0 l 373 0 l 33 1010 l 306 1010 m 536 -295 q 449 -261 485 -295 q 412 -180 412 -227 q 449 -98 412 -132 q 536 -65 485 -65 q 624 -98 587 -65 q 660 -180 660 -132 q 624 -261 660 -227 q 536 -295 587 -295 z "},"W":{"ha":1479,"x_min":25,"x_max":1454,"o":"m 319 0 l 25 1010 l 294 1010 l 447 348 l 455 348 l 629 1010 l 849 1010 l 1023 347 l 1032 347 l 1185 1010 l 1454 1010 l 1161 0 l 925 0 l 743 613 l 735 613 l 553 0 l 319 0 z "},"Ŵ":{"ha":1479,"x_min":25,"x_max":1454,"o":"m 319 0 l 25 1010 l 294 1010 l 447 348 l 455 348 l 629 1010 l 849 1010 l 1023 347 l 1032 347 l 1185 1010 l 1454 1010 l 1161 0 l 925 0 l 743 613 l 735 613 l 553 0 l 319 0 m 642 1100 l 439 1100 l 439 1106 l 653 1327 l 826 1327 l 1039 1106 l 1039 1100 l 837 1100 l 739 1214 l 642 1100 z "},"Ẁ":{"ha":1479,"x_min":25,"x_max":1454,"o":"m 319 0 l 25 1010 l 294 1010 l 447 348 l 455 348 l 629 1010 l 849 1010 l 1023 347 l 1032 347 l 1185 1010 l 1454 1010 l 1161 0 l 925 0 l 743 613 l 735 613 l 553 0 l 319 0 m 658 1106 l 509 1329 l 723 1329 l 823 1106 l 658 1106 z "},"Ẃ":{"ha":1479,"x_min":25,"x_max":1454,"o":"m 319 0 l 25 1010 l 294 1010 l 447 348 l 455 348 l 629 1010 l 849 1010 l 1023 347 l 1032 347 l 1185 1010 l 1454 1010 l 1161 0 l 925 0 l 743 613 l 735 613 l 553 0 l 319 0 m 656 1106 l 756 1329 l 970 1329 l 821 1106 l 656 1106 z "},"Ẅ":{"ha":1479,"x_min":25,"x_max":1454,"o":"m 319 0 l 25 1010 l 294 1010 l 447 348 l 455 348 l 629 1010 l 849 1010 l 1023 347 l 1032 347 l 1185 1010 l 1454 1010 l 1161 0 l 925 0 l 743 613 l 735 613 l 553 0 l 319 0 m 586 1106 q 507 1138 540 1106 q 474 1214 474 1170 q 507 1290 474 1259 q 586 1321 540 1321 q 665 1290 632 1321 q 697 1214 697 1259 q 665 1138 697 1170 q 586 1106 632 1106 m 894 1106 q 815 1138 848 1106 q 782 1214 782 1170 q 815 1290 782 1259 q 894 1321 848 1321 q 972 1290 940 1321 q 1005 1214 1005 1259 q 972 1138 1005 1170 q 894 1106 940 1106 z "},"Ẇ":{"ha":1479,"x_min":25,"x_max":1454,"o":"m 319 0 l 25 1010 l 294 1010 l 447 348 l 455 348 l 629 1010 l 849 1010 l 1023 347 l 1032 347 l 1185 1010 l 1454 1010 l 1161 0 l 925 0 l 743 613 l 735 613 l 553 0 l 319 0 m 739 1098 q 652 1132 689 1098 q 616 1214 616 1166 q 652 1295 616 1262 q 739 1329 689 1329 q 827 1295 791 1329 q 863 1214 863 1262 q 827 1132 863 1166 q 739 1098 791 1098 z "},"Ẉ":{"ha":1479,"x_min":25,"x_max":1454,"o":"m 319 0 l 25 1010 l 294 1010 l 447 348 l 455 348 l 629 1010 l 849 1010 l 1023 347 l 1032 347 l 1185 1010 l 1454 1010 l 1161 0 l 925 0 l 743 613 l 735 613 l 553 0 l 319 0 m 739 -293 q 652 -260 689 -293 q 616 -178 616 -226 q 652 -97 616 -130 q 739 -63 689 -63 q 827 -97 791 -63 q 863 -178 863 -130 q 827 -260 863 -226 q 739 -293 791 -293 z "},"X":{"ha":1026,"x_min":40,"x_max":985,"o":"m 324 1010 l 508 691 l 516 691 l 702 1010 l 976 1010 l 671 505 l 985 0 l 705 0 l 516 323 l 508 323 l 319 0 l 40 0 l 354 505 l 48 1010 l 324 1010 z "},"Ẋ":{"ha":1026,"x_min":40,"x_max":985,"o":"m 324 1010 l 508 691 l 516 691 l 702 1010 l 976 1010 l 671 505 l 985 0 l 705 0 l 516 323 l 508 323 l 319 0 l 40 0 l 354 505 l 48 1010 l 324 1010 m 512 1098 q 425 1132 461 1098 q 388 1214 388 1166 q 425 1295 388 1262 q 512 1329 461 1329 q 600 1295 563 1329 q 636 1214 636 1262 q 600 1132 636 1166 q 512 1098 563 1098 z "},"Ẍ":{"ha":1026,"x_min":40,"x_max":985,"o":"m 324 1010 l 508 691 l 516 691 l 702 1010 l 976 1010 l 671 505 l 985 0 l 705 0 l 516 323 l 508 323 l 319 0 l 40 0 l 354 505 l 48 1010 l 324 1010 m 359 1106 q 280 1138 313 1106 q 247 1214 247 1170 q 280 1290 247 1259 q 359 1321 313 1321 q 437 1290 405 1321 q 470 1214 470 1259 q 437 1138 470 1170 q 359 1106 405 1106 m 667 1106 q 588 1138 620 1106 q 555 1214 555 1170 q 588 1290 555 1259 q 667 1321 620 1321 q 745 1290 713 1321 q 777 1214 777 1259 q 745 1138 777 1170 q 667 1106 713 1106 z "},"Ҳ":{"ha":1026,"x_min":40,"x_max":1057,"o":"m 324 1010 l 508 691 l 516 691 l 702 1010 l 976 1010 l 671 505 l 985 0 l 705 0 l 516 323 l 508 323 l 319 0 l 40 0 l 354 505 l 48 1010 l 324 1010 m 1057 157 l 1057 -243 l 825 -243 l 825 157 l 1057 157 z "},"Ӽ":{"ha":1026,"x_min":40,"x_max":1087,"o":"m 324 1010 l 508 691 l 516 691 l 702 1010 l 976 1010 l 671 505 l 985 0 l 705 0 l 516 323 l 508 323 l 319 0 l 40 0 l 354 505 l 48 1010 l 324 1010 m 854 212 l 1087 212 l 1087 -4 q 1010 -221 1087 -147 q 800 -296 934 -296 q 746 -294 771 -296 q 690 -286 721 -292 l 700 -105 q 732 -111 718 -109 q 770 -113 746 -113 q 854 -4 854 -113 l 854 212 z "},"Χ":{"ha":1026,"x_min":40,"x_max":985,"o":"m 324 1010 l 508 691 l 516 691 l 702 1010 l 976 1010 l 671 505 l 985 0 l 705 0 l 516 323 l 508 323 l 319 0 l 40 0 l 354 505 l 48 1010 l 324 1010 z "},"Y":{"ha":1034,"x_min":26,"x_max":1008,"o":"m 26 1010 l 299 1010 l 512 587 l 521 587 l 735 1010 l 1008 1010 l 638 337 l 638 0 l 396 0 l 396 337 l 26 1010 z "},"Ƴ":{"ha":1135,"x_min":36,"x_max":1117,"o":"m 36 1010 l 299 1010 l 552 587 l 564 587 l 739 876 q 848 986 785 952 q 981 1021 910 1020 q 1117 997 1051 1022 l 1066 817 q 982 819 1012 833 q 921 758 952 805 l 680 382 l 680 0 l 437 0 l 437 382 l 36 1010 z "},"Ý":{"ha":1034,"x_min":26,"x_max":1008,"o":"m 26 1010 l 299 1010 l 512 587 l 521 587 l 735 1010 l 1008 1010 l 638 337 l 638 0 l 396 0 l 396 337 l 26 1010 m 434 1106 l 533 1329 l 747 1329 l 598 1106 l 434 1106 z "},"Ŷ":{"ha":1034,"x_min":26,"x_max":1008,"o":"m 26 1010 l 299 1010 l 512 587 l 521 587 l 735 1010 l 1008 1010 l 638 337 l 638 0 l 396 0 l 396 337 l 26 1010 m 419 1100 l 217 1100 l 217 1106 l 431 1327 l 604 1327 l 817 1106 l 817 1100 l 615 1100 l 517 1214 l 419 1100 z "}}}
